<?xml version="1.0" encoding="UTF-8"?>
<!-- Created with Grafika (https://www.grafika.cc/) -->
<svg version="1.0" xmlns="http://www.w3.org/2000/svg" xmlns:svg="http://www.w3.org/2000/svg" width="8192" height="4126" viewBox="-73608.218750 -81988.335938 97327.054688 49010.722656" preserveAspectRatio="xMinYMin meet">
	<path d="M-50.0,-50.0 L50.0,50.0 L-50.0,50.0 L-50.0,-50.0 Z" fill-rule="evenodd" transform="matrix(64.247971, 0.000000, 0.000000, 64.247971, -27679.902344, -78168.218750)" style="fill:#000000;" />
	<path d="M-50.0,-50.0 L50.0,50.0 L-50.0,50.0 L-50.0,-50.0 Z" fill-rule="evenodd" transform="matrix(-64.247978, 0.000001, -0.000001, -64.247978, -41585.554688, -55954.734375)" style="fill:#000000;" />
	<path d="M-50.0,-50.0 L50.0,50.0 L-50.0,50.0 L-50.0,-50.0 Z" fill-rule="evenodd" transform="matrix(-64.247955, 0.000000, 0.000000, 64.247955, -41244.125000, -78294.046875)" style="fill:#000000;" />
	<path d="M-50.0,-50.0 L50.0,50.0 L-50.0,50.0 L-50.0,-50.0 Z" fill-rule="evenodd" transform="matrix(64.247948, 0.000000, 0.000000, -64.247948, -28021.328125, -55828.898438)" style="fill:#000000;" />
	<path d="M50.0,-50.0 L-50.0,50.0 L-50.0,-25.0 L50.0,-50.0 Z" fill-rule="evenodd" transform="matrix(0.000000, -69.557472, 69.557472, 0.000000, -55077.523438, -78487.968750)" style="fill:#000000;" />
	<path d="M50.0,-50.0 L-50.0,50.0 L-50.0,-25.0 L50.0,-50.0 Z" fill-rule="evenodd" transform="matrix(-0.000001, 69.557465, -69.557465, -0.000001, -69925.828125, -54889.242188)" style="fill:#000000;" />
	<path d="M50.0,-50.0 L-50.0,50.0 L-50.0,-25.0 L50.0,-50.0 Z" fill-rule="evenodd" transform="matrix(0.000001, -69.557480, -69.557480, -0.000001, -70130.343750, -78510.460938)" style="fill:#000000;" />
	<path d="M50.0,-50.0 L-50.0,50.0 L-50.0,-25.0 L50.0,-50.0 Z" fill-rule="evenodd" transform="matrix(-0.000000, 69.557503, 69.557503, 0.000000, -55024.882813, -55094.578125)" style="fill:#000000;" />
	<path d="M25.0,50.0 L0.0,50.0 L-25.0,50.0 L-50.0,25.0 L25.0,50.0 Z" fill-rule="evenodd" transform="matrix(248.985336, 0.000000, 0.000000, 248.985336, 15685.864258, -87878.835938)" style="fill:#000000;" />
	<path d="M25.0,50.0 L0.0,50.0 L-25.0,50.0 L-50.0,25.0 L25.0,50.0 Z" fill-rule="evenodd" transform="matrix(-248.985336, 0.000000, -0.000000, -248.985336, -13200.157227, -46431.351563)" style="fill:#000000;" />
	<path d="M25.0,50.0 L0.0,50.0 L-25.0,50.0 L-50.0,25.0 L25.0,50.0 Z" fill-rule="evenodd" transform="matrix(-248.985336, -0.000000, -0.000000, 248.985336, -13926.553711, -88025.687500)" style="fill:#000000;" />
	<path d="M25.0,50.0 L0.0,50.0 L-25.0,50.0 L-50.0,25.0 L25.0,50.0 Z" fill-rule="evenodd" transform="matrix(248.985336, 0.000000, 0.000000, -248.985336, 16412.267578, -46284.484375)" style="fill:#000000;" />
	<path d="M0.0,-50.0 L50.0,50.0 L-50.0,50.0 L0.0,-50.0 Z" transform="matrix(71.514336, 0.000000, 0.000000, 71.514336, -69489.875000, -36649.203125)" style="fill:#000000;" />
	<path d="M0.0,-50.0 L50.0,50.0 L-50.0,50.0 L0.0,-50.0 Z" transform="matrix(-71.514313, 0.000000, -0.000000, -71.514313, -56260.585938, -36553.328125)" style="fill:#000000;" />
	<path d="M0.0,-50.0 L50.0,50.0 L-50.0,50.0 L0.0,-50.0 Z" transform="matrix(-0.000000, -71.514275, 71.514275, -0.000000, -42456.109375, -36936.789063)" style="fill:#000000;" />
	<path d="M0.0,-50.0 L50.0,50.0 L-50.0,50.0 L0.0,-50.0 Z" transform="matrix(0.000000, 71.514282, -71.514282, 0.000000, -27811.890625, -36881.593750)" style="fill:#000000;" />
	<path d="M0.0,-50.0 L50.0,50.0 L-50.0,50.0 L0.0,-50.0 Z" transform="matrix(187.645660, -0.000001, 0.000000, 44.165375, -8352.464844, -36155.257813)" style="fill:#000000;" />
	<path d="M0.0,-50.0 L50.0,50.0 L-50.0,50.0 L0.0,-50.0 Z" transform="matrix(187.645660, -0.000001, 0.000000, 26.548397, 14336.553711, -35274.414063)" style="fill:#000000;" />
</svg>