<?xml version="1.0" encoding="UTF-8"?>
<!-- Created with Grafika (https://www.grafika.cc/) -->
<svg version="1.0" xmlns="http://www.w3.org/2000/svg" xmlns:svg="http://www.w3.org/2000/svg" width="533" height="228" viewBox="-341.966187 -1393.621704 532.584076 227.883301" preserveAspectRatio="xMinYMin meet">
	<path d="M-2979.015625,1128.60400390625 L-2979.015625,4101.96875 L-1882.41015625,4101.96875 L-1882.41015625,1128.60400390625 L-2430.712890625,2615.2841796875 L-2979.015625,1128.60400390625 ZM-2443.51806640625,5198.58203125 L-2443.51806640625,4101.97705078125 L-3572.845947265625,4101.9765625 L-2443.51806640625,5198.58203125 ZM-2443.517822265625,5198.58203125 L-2443.517822265625,4101.9765625 L-1314.189697265625,4101.9765625 L-2443.517822265625,5198.58203125 Z" fill-rule="evenodd" transform="matrix(0.000000, -0.024005, 0.024005, 0.000000, -133.742081, -1413.606079)" style="fill:#000000;" />
	<path d="M-2979.015625,1128.60400390625 L-2979.015625,4101.96875 L-1882.41015625,4101.96875 L-1882.41015625,1128.60400390625 L-2430.712890625,2615.2841796875 L-2979.015625,1128.60400390625 ZM-2443.51806640625,5198.58203125 L-2443.51806640625,4101.97705078125 L-3572.845947265625,4101.9765625 L-2443.51806640625,5198.58203125 ZM-2443.517822265625,5198.58203125 L-2443.517822265625,4101.9765625 L-1314.189697265625,4101.9765625 L-2443.517822265625,5198.58203125 Z" fill-rule="evenodd" transform="matrix(0.000000, -0.024005, -0.024005, -0.000000, -11.758891, -1378.424194)" style="fill:#000000;" />
	<path d="M-2979.015625,1128.60400390625 L-2979.015625,4101.96875 L-1882.41015625,4101.96875 L-1882.41015625,1128.60400390625 L-2430.712890625,2615.2841796875 L-2979.015625,1128.60400390625 ZM-2443.51806640625,5198.58203125 L-2443.51806640625,4101.97705078125 L-3572.845947265625,4101.9765625 L-2443.51806640625,5198.58203125 ZM-2443.517822265625,5198.58203125 L-2443.517822265625,4101.9765625 L-1314.189697265625,4101.9765625 L-2443.517822265625,5198.58203125 Z" fill-rule="evenodd" transform="matrix(-0.026669, 0.000000, 0.000000, 0.027034, -183.037888, -1311.892334)" style="fill:#000000;" />
	<path d="M-2979.015625,1128.60400390625 L-2979.015625,4101.96875 L-1882.41015625,4101.96875 L-1882.41015625,1128.60400390625 L-2430.712890625,2615.2841796875 L-2979.015625,1128.60400390625 ZM-2443.51806640625,5198.58203125 L-2443.51806640625,4101.97705078125 L-3572.845947265625,4101.9765625 L-2443.51806640625,5198.58203125 ZM-2443.517822265625,5198.58203125 L-2443.517822265625,4101.9765625 L-1314.189697265625,4101.9765625 L-2443.517822265625,5198.58203125 Z" fill-rule="evenodd" transform="matrix(0.028123, 0.000000, 0.000000, -0.027489, 12.778630, -1141.359497)" style="fill:#000000;" />
	<path d="M11356.33203125,9740.4619140625 C17695.21875,10795.9228515625 21736.44921875,12386.1806640625 27225.921875,16265.267578125 L23306.224609375,10839.796875 L55180.9453125,9721.1708984375 L23569.69921875,8685.009765625 L27786.982421875,3836.336181640625 C21773.755859375,7318.87890625 17958.64453125,8641.140625 11356.33203125,9740.4619140625 Z" fill-rule="evenodd" transform="matrix(0.000000, 0.002828, -0.004536, 0.000000, -222.310318, -1321.771484)" style="fill:#000000;" />
	<path d="M11356.33203125,9740.4619140625 C17695.21875,10795.9228515625 21736.44921875,12386.1806640625 27225.921875,16265.267578125 L23306.224609375,10839.796875 L55180.9453125,9721.1708984375 L23569.69921875,8685.009765625 L27786.982421875,3836.336181640625 C21773.755859375,7318.87890625 17958.64453125,8641.140625 11356.33203125,9740.4619140625 Z" fill-rule="evenodd" transform="matrix(0.003098, 0.000000, 0.000000, 0.004969, -369.021881, -1357.089111)" style="fill:#000000;" />
	<path d="M11356.33203125,9740.4619140625 C17958.64453125,8641.140625 21773.755859375,7318.87890625 27786.982421875,3836.336181640625 L23569.69921875,8685.009765625 L55180.9453125,9721.1708984375 L23306.224609375,10839.796875 L27225.921875,16265.267578125 C21736.44921875,12386.1806640625 17695.21875,10795.9228515625 11356.33203125,9740.4619140625 Z" fill-rule="evenodd" transform="matrix(0.000000, -0.002742, 0.004399, 0.000000, -348.500824, -1141.108887)" style="fill:#000000;" />
	<path d="M11356.33203125,9740.4619140625 C17695.21875,10795.9228515625 21736.44921875,12386.1806640625 27225.921875,16265.267578125 L23306.224609375,10839.796875 L55180.9453125,9721.1708984375 L23569.69921875,8685.009765625 L27786.982421875,3836.336181640625 C21773.755859375,7318.87890625 17958.64453125,8641.140625 11356.33203125,9740.4619140625 Z" fill-rule="evenodd" transform="matrix(-0.002858, 0.000000, 0.000000, -0.004584, -184.269775, -1319.057129)" style="fill:#000000;" />
	<path d="M4651.21875,-436.765625 L4651.21875,659.83984375 L4136.623046875,659.83984375 L5231.32958984375,1787.2127685546875 L5231.32958984375,1789.1641845703125 L5232.27734375,1788.189453125 L5233.2265625,1789.1658935546875 L5233.2265625,1787.2109375 L6327.93505859375,659.83984375 L5780.54296875,659.83984375 L5780.54296875,-436.7636413574219 L5215.88037109375,111.537109375 L4651.21875,-436.765625 Z" fill-rule="evenodd" transform="matrix(0.000000, 0.024005, -0.024005, 0.000000, 180.133530, -1468.562378)" style="fill:#000000;" />
	<path d="M4651.21875,-436.765625 L4651.21875,659.83984375 L4136.623046875,659.83984375 L5231.32958984375,1787.2127685546875 L5231.32958984375,1789.1641845703125 L5232.27734375,1788.189453125 L5233.2265625,1789.1658935546875 L5233.2265625,1787.2109375 L6327.93505859375,659.83984375 L5780.54296875,659.83984375 L5780.54296875,-436.7636413574219 L5215.88037109375,111.537109375 L4651.21875,-436.765625 Z" fill-rule="evenodd" transform="matrix(0.000000, 0.024005, 0.024005, 0.000000, 68.797226, -1468.576294)" style="fill:#000000;" />
	<path d="M4651.21875,-436.765625 L4651.21875,659.83984375 L4136.623046875,659.83984375 L5231.32958984375,1787.2127685546875 L5231.32958984375,1789.1641845703125 L5232.27734375,1788.189453125 L5233.2265625,1789.1658935546875 L5233.2265625,1787.2109375 L6327.93505859375,659.83984375 L5780.54296875,659.83984375 L5780.54296875,-436.7636413574219 L5215.88037109375,111.537109375 L4651.21875,-436.765625 Z" fill-rule="evenodd" transform="matrix(0.024005, 0.000000, 0.000000, -0.024005, -2.182423, -1260.591309)" style="fill:#000000;" />
	<path d="M4651.21875,-436.765625 L4651.21875,659.83984375 L4136.623046875,659.83984375 L5231.32958984375,1787.2127685546875 L5231.32958984375,1789.1641845703125 L5232.27734375,1788.189453125 L5233.2265625,1789.1658935546875 L5233.2265625,1787.2109375 L6327.93505859375,659.83984375 L5780.54296875,659.83984375 L5780.54296875,-436.7636413574219 L5215.88037109375,111.537109375 L4651.21875,-436.765625 Z" fill-rule="evenodd" transform="matrix(0.024602, 0.000000, 0.000000, 0.024602, -4.910812, -1221.338623)" style="fill:#000000;" />
</svg>