<?xml version="1.0" encoding="UTF-8"?>
<!-- Created with Grafika (https://www.grafika.cc/) -->
<svg version="1.0" xmlns="http://www.w3.org/2000/svg" xmlns:svg="http://www.w3.org/2000/svg" width="573" height="231" viewBox="-359.880798 -1393.473389 572.410736 230.167480" preserveAspectRatio="xMinYMin meet">
	<path d="M-18822.595703125,21671.9375 L-19084.013671875,22078.04296875 L-18958.10546875,22078.04296875 L-18958.10546875,22624.14453125 L-18687.0859375,22624.14453125 L-18687.0859375,22078.04296875 L-18561.1796875,22078.04296875 L-18822.595703125,21671.9375 Z" fill-rule="evenodd" transform="matrix(0.073596, 0.000000, 0.000000, 0.075734, 1168.249146, -2963.377197)" style="fill:#000000;" />
	<path d="M-18822.595703125,21671.9375 L-19084.013671875,22078.04296875 L-18958.10546875,22078.04296875 L-18958.10546875,22624.14453125 L-18687.0859375,22624.14453125 L-18687.0859375,22078.04296875 L-18561.1796875,22078.04296875 L-18822.595703125,21671.9375 Z" fill-rule="evenodd" transform="matrix(-0.076018, 0.000000, 0.000000, -0.076018, -1608.374146, 406.957458)" style="fill:#000000;" />
	<path d="M-5323.603515625,1080.322265625 L-5588.3515625,1491.599609375 L-5460.83984375,1491.599609375 L-5460.83984375,1647.7186279296875 L-5594.443359375,1647.7186279296875 L-5594.443359375,1521.810546875 L-6000.55859375,1783.232421875 L-5594.443359375,2044.6541748046875 L-5594.443359375,1918.7440185546875 L-5323.60546875,1918.7440185546875 L-5188.1865234375,1918.7440185546875 L-5186.369140625,1647.7186279296875 L-5186.369140625,1491.599609375 L-5058.859375,1491.599609375 L-5323.603515625,1080.322265625 Z" fill-rule="evenodd" transform="matrix(0.075062, 0.000000, 0.000000, 0.075062, 584.252258, -1318.033203)" style="fill:#000000;" />
	<path d="M-5323.603515625,1080.322265625 L-5588.3515625,1491.599609375 L-5460.83984375,1491.599609375 L-5460.83984375,1647.7186279296875 L-5594.443359375,1647.7186279296875 L-5594.443359375,1521.810546875 L-6000.55859375,1783.232421875 L-5594.443359375,2044.6541748046875 L-5594.443359375,1918.7440185546875 L-5323.60546875,1918.7440185546875 L-5188.1865234375,1918.7440185546875 L-5186.369140625,1647.7186279296875 L-5186.369140625,1491.599609375 L-5058.859375,1491.599609375 L-5323.603515625,1080.322265625 Z" fill-rule="evenodd" transform="matrix(-0.075062, 0.000000, 0.000000, -0.075062, -735.857178, -1239.998169)" style="fill:#000000;" />
	<path d="M-3505.478271484375,167.1953125 L-3766.900390625,573.310546875 L-3640.989990234375,573.310546875 L-3640.989990234375,765.5546875 L-3793.275146484375,765.5546875 L-3793.275146484375,638.044921875 L-4204.552734375,902.7890014648438 L-3793.275146484375,1167.5369873046875 L-3793.275146484375,1040.025390625 L-3637.156005859375,1040.025390625 L-3637.156005859375,1173.62890625 L-3763.064453125,1173.62890625 L-3501.642333984375,1579.7440185546875 L-3240.220703125,1173.62890625 L-3366.130615234375,1173.62890625 L-3366.130615234375,981.3847045898438 L-3213.845458984375,981.3847045898438 L-3213.845458984375,1108.89453125 L-2802.568359375,844.150390625 L-3213.845458984375,579.40234375 L-3213.845458984375,706.9140625 L-3369.965087890625,706.9140625 L-3369.965087890625,573.310546875 L-3244.056640625,573.310546875 L-3505.478271484375,167.1953125 Z" fill-rule="evenodd" transform="matrix(0.047115, 0.000000, 0.000000, 0.047115, 93.640938, -1316.778320)" style="fill:#000000;" />
	<path d="M-3505.478271484375,167.1953125 L-3766.900390625,573.310546875 L-3640.989990234375,573.310546875 L-3637.156005859375,1040.025390625 L-3637.156005859375,1173.62890625 L-3763.064453125,1173.62890625 L-3501.642333984375,1579.7440185546875 L-3240.220703125,1173.62890625 L-3366.130615234375,1173.62890625 L-3366.130615234375,981.3847045898438 L-3213.845458984375,981.3847045898438 L-3213.845458984375,1108.89453125 L-2802.568359375,844.150390625 L-3213.845458984375,579.40234375 L-3213.845458984375,706.9140625 L-3369.965087890625,706.9140625 L-3369.965087890625,573.310546875 L-3244.056640625,573.310546875 L-3505.478271484375,167.1953125 Z" fill-rule="evenodd" transform="matrix(0.000000, -0.072067, 0.072067, 0.000000, -131.298035, -1434.776978)" style="fill:#000000;" />
	<path d="M-3505.478271484375,167.1953125 L-3766.900390625,573.310546875 L-3640.989990234375,573.310546875 L-3637.156005859375,1040.025390625 L-3637.156005859375,1173.62890625 L-3763.064453125,1173.62890625 L-3501.642333984375,1579.7440185546875 L-3240.220703125,1173.62890625 L-3366.130615234375,1173.62890625 L-3366.130615234375,981.3847045898438 L-3213.845458984375,981.3847045898438 L-3213.845458984375,1108.89453125 L-2802.568359375,844.150390625 L-3213.845458984375,579.40234375 L-3213.845458984375,706.9140625 L-3369.965087890625,706.9140625 L-3369.965087890625,573.310546875 L-3244.056640625,573.310546875 L-3505.478271484375,167.1953125 Z" fill-rule="evenodd" transform="matrix(-0.070459, 0.000000, 0.000000, -0.070459, -89.851990, -1221.128296)" style="fill:#000000;" />
	<path d="M-3505.478271484375,167.1953125 L-3766.900390625,573.310546875 L-3640.989990234375,573.310546875 L-3637.156005859375,1040.025390625 L-3637.156005859375,1173.62890625 L-3763.064453125,1173.62890625 L-3501.642333984375,1579.7440185546875 L-3240.220703125,1173.62890625 L-3366.130615234375,1173.62890625 L-3366.130615234375,981.3847045898438 L-3213.845458984375,981.3847045898438 L-3213.845458984375,1108.89453125 L-2802.568359375,844.150390625 L-3213.845458984375,579.40234375 L-3213.845458984375,706.9140625 L-3369.965087890625,706.9140625 L-3369.965087890625,573.310546875 L-3244.056640625,573.310546875 L-3505.478271484375,167.1953125 Z" fill-rule="evenodd" transform="matrix(0.000000, 0.070240, -0.070240, 0.000000, -14.823348, -1122.926270)" style="fill:#000000;" />
	<path d="M-3505.478271484375,167.1953125 L-3766.900390625,573.310546875 L-3640.989990234375,573.310546875 L-3637.156005859375,1040.025390625 L-3637.156005859375,1173.62890625 L-3763.064453125,1173.62890625 L-3501.642333984375,1579.7440185546875 L-3240.220703125,1173.62890625 L-3366.130615234375,1173.62890625 L-3366.130615234375,981.3847045898438 L-3213.845458984375,981.3847045898438 L-3213.845458984375,1108.89453125 L-2802.568359375,844.150390625 L-3213.845458984375,579.40234375 L-3213.845458984375,706.9140625 L-3369.965087890625,706.9140625 L-3369.965087890625,573.310546875 L-3244.056640625,573.310546875 L-3505.478271484375,167.1953125 Z" fill-rule="evenodd" transform="matrix(0.070499, 0.000000, 0.000000, 0.070499, -58.293491, -1338.518799)" style="fill:#000000;" />
	<path d="M-5323.603515625,1080.322265625 L-5588.3515625,1491.599609375 L-5460.83984375,1491.599609375 L-5460.83984375,1647.7186279296875 L-5594.443359375,1647.7186279296875 L-5594.443359375,1521.810546875 L-6000.55859375,1783.232421875 L-5594.443359375,2044.6541748046875 L-5594.443359375,1918.7440185546875 L-5323.60546875,1918.7440185546875 L-5188.1865234375,1918.7440185546875 L-5186.369140625,1647.7186279296875 L-5186.369140625,1491.599609375 L-5058.859375,1491.599609375 L-5323.603515625,1080.322265625 Z" fill-rule="evenodd" transform="matrix(-0.000000, -0.075062, 0.075062, 0.000000, 59.054691, -1773.048828)" style="fill:#000000;" />
	<path d="M-5323.603515625,1080.322265625 L-5588.3515625,1491.599609375 L-5460.83984375,1491.599609375 L-5460.83984375,1647.7186279296875 L-5594.443359375,1647.7186279296875 L-5594.443359375,1521.810546875 L-6000.55859375,1783.232421875 L-5594.443359375,2044.6541748046875 L-5594.443359375,1918.7440185546875 L-5323.60546875,1918.7440185546875 L-5188.1865234375,1918.7440185546875 L-5186.369140625,1647.7186279296875 L-5186.369140625,1491.599609375 L-5058.859375,1491.599609375 L-5323.603515625,1080.322265625 Z" fill-rule="evenodd" transform="matrix(0.000000, 0.075062, -0.075062, -0.000000, -206.405533, -785.755310)" style="fill:#000000;" />
	<path d="M-18822.595703125,21671.9375 L-19084.013671875,22078.04296875 L-18958.10546875,22078.04296875 L-18958.10546875,22624.14453125 L-18687.0859375,22624.14453125 L-18687.0859375,22078.04296875 L-18561.1796875,22078.04296875 L-18822.595703125,21671.9375 Z" fill-rule="evenodd" transform="matrix(0.000000, -0.077570, 0.075956, 0.000000, -1893.713745, -2832.643555)" style="fill:#000000;" />
	<path d="M-18822.595703125,21671.9375 L-19084.013671875,22078.04296875 L-18958.10546875,22078.04296875 L-18958.10546875,22624.14453125 L-18687.0859375,22624.14453125 L-18687.0859375,22078.04296875 L-18561.1796875,22078.04296875 L-18822.595703125,21671.9375 Z" fill-rule="evenodd" transform="matrix(0.000000, 0.075063, -0.075063, 0.000000, 1468.434692, 217.251053)" style="fill:#000000;" />
	<path d="M-20864.6015625,18709.580078125 L-21270.70703125,18970.99609375 L-20864.6015625,19232.4140625 L-20864.6015625,19106.5078125 L-20322.935546875,19106.5078125 L-20322.935546875,19232.4140625 L-19916.828125,18970.998046875 L-20322.935546875,18709.580078125 L-20322.935546875,18835.48828125 L-20864.6015625,18835.48828125 L-20864.6015625,18709.580078125 Z" fill-rule="evenodd" transform="matrix(-0.075063, -0.000000, 0.000000, -0.075063, -1490.462891, 56.135845)" style="fill:#000000;" />
	<path d="M-20864.6015625,18709.580078125 L-21270.70703125,18970.99609375 L-20864.6015625,19232.4140625 L-20864.6015625,19106.5078125 L-20322.935546875,19106.5078125 L-20322.935546875,19232.4140625 L-19916.828125,18970.998046875 L-20322.935546875,18709.580078125 L-20322.935546875,18835.48828125 L-20864.6015625,18835.48828125 L-20864.6015625,18709.580078125 Z" fill-rule="evenodd" transform="matrix(-0.000000, 0.075063, -0.075063, -0.000000, 1481.153198, 318.993073)" style="fill:#000000;" />
</svg>