<?xml version="1.0" encoding="UTF-8"?>
<!-- Created with Grafika (https://www.grafika.cc/) -->
<svg version="1.0" xmlns="http://www.w3.org/2000/svg" xmlns:svg="http://www.w3.org/2000/svg" width="601" height="435" viewBox="201.165741 211.717987 600.215851 434.641022" preserveAspectRatio="xMinYMin meet">
	<defs>
		<linearGradient gradientUnits="userSpaceOnUse" gradientTransform="matrix(0.258547, 0.000000, 0.000000, 0.258547, 285.140625, 343.671631)" spreadMethod="reflect" id="816100c5-cea3-4cd1-8614-2bc84caccbfc" x1="1082.506591796875" y1="277.7311096191406" x2="1681.5260009765625" y2="-251.13775634765625">
			<stop offset="0.000000%" stop-color="#FFFFFF" />
			<stop offset="0.000000%" stop-color="#000000" />
		</linearGradient>
		<radialGradient gradientUnits="userSpaceOnUse" gradientTransform="matrix(0.258547, 0.000000, 0.000000, 0.258547, 285.140625, 343.671631)" spreadMethod="reflect" id="b6c2ee9c-cf7d-4d6f-8e22-456321c367ae" cx="186.33523559570312" cy="-269.2317199707031" r="2036.3399689732173">
			<stop offset="0.000000%" stop-color="#FFFFFF" />
			<stop offset="59.648371%" stop-color="#FFFFFF" />
		</radialGradient>
		<linearGradient gradientUnits="userSpaceOnUse" gradientTransform="matrix(0.258547, 0.000000, 0.000000, 0.258547, 285.140625, 343.671631)" spreadMethod="reflect" id="d8c0cd24-beb8-43d0-b6e8-a4c9fd23dbbc" x1="1082.506591796875" y1="277.7311096191406" x2="1681.5260009765625" y2="-251.13775634765625">
			<stop offset="0.000000%" stop-color="#FFFFFF" />
			<stop offset="0.000000%" stop-color="#000000" />
		</linearGradient>
		<radialGradient gradientUnits="userSpaceOnUse" gradientTransform="matrix(0.258547, 0.000000, 0.000000, 0.258547, 285.140625, 343.671631)" spreadMethod="reflect" id="c381ae16-bcde-4724-a0bf-7b9d6f63441e" cx="186.33523559570312" cy="-269.2317199707031" r="2036.3399689732173">
			<stop offset="0.000000%" stop-color="#FFFFFF" />
			<stop offset="59.648371%" stop-color="#FFFFFF" />
		</radialGradient>
		<linearGradient gradientUnits="userSpaceOnUse" gradientTransform="matrix(0.258547, 0.000000, 0.000000, 0.258547, 285.140625, 343.671631)" spreadMethod="reflect" id="fad616e0-97c8-4e9f-b319-6192e650f028" x1="1082.506591796875" y1="277.7311096191406" x2="1681.5260009765625" y2="-251.13775634765625">
			<stop offset="0.000000%" stop-color="#FFFFFF" />
			<stop offset="0.000000%" stop-color="#000000" />
		</linearGradient>
		<radialGradient gradientUnits="userSpaceOnUse" gradientTransform="matrix(0.258547, 0.000000, 0.000000, 0.258547, 285.140625, 343.671631)" spreadMethod="reflect" id="f25d82cc-31a9-4dba-81b3-d3786d6bdc39" cx="186.33523559570312" cy="-269.2317199707031" r="2036.3399689732173">
			<stop offset="0.000000%" stop-color="#FFFFFF" />
			<stop offset="59.648371%" stop-color="#FFFFFF" />
		</radialGradient>
		<linearGradient gradientUnits="userSpaceOnUse" gradientTransform="matrix(0.258547, 0.000000, 0.000000, 0.258547, 285.140625, 343.671631)" spreadMethod="reflect" id="346266a0-04d2-4ee4-9b25-476994b14586" x1="1082.506591796875" y1="277.7311096191406" x2="1681.5260009765625" y2="-251.13775634765625">
			<stop offset="0.000000%" stop-color="#FFFFFF" />
			<stop offset="0.000000%" stop-color="#000000" />
		</linearGradient>
		<radialGradient gradientUnits="userSpaceOnUse" gradientTransform="matrix(0.258547, 0.000000, 0.000000, 0.258547, 285.140625, 343.671631)" spreadMethod="reflect" id="a608a36b-3f8f-44c8-8594-35f19b0d8a5e" cx="186.33523559570312" cy="-269.2317199707031" r="2036.3399689732173">
			<stop offset="0.000000%" stop-color="#FFFFFF" />
			<stop offset="59.648371%" stop-color="#FFFFFF" />
		</radialGradient>
		<linearGradient gradientUnits="userSpaceOnUse" gradientTransform="matrix(0.258547, 0.000000, 0.000000, 0.258547, 285.140625, 343.671631)" spreadMethod="reflect" id="c996907c-808f-49e2-b957-bd46519c687b" x1="1082.506591796875" y1="277.7311096191406" x2="1681.5260009765625" y2="-251.13775634765625">
			<stop offset="0.000000%" stop-color="#FFFFFF" />
			<stop offset="0.000000%" stop-color="#000000" />
		</linearGradient>
		<radialGradient gradientUnits="userSpaceOnUse" gradientTransform="matrix(0.258547, 0.000000, 0.000000, 0.258547, 285.140625, 343.671631)" spreadMethod="reflect" id="9b52a570-b8c7-4229-ac5f-6d162da4ff3f" cx="186.33523559570312" cy="-269.2317199707031" r="2036.3399689732173">
			<stop offset="0.000000%" stop-color="#FFFFFF" />
			<stop offset="59.648371%" stop-color="#FFFFFF" />
		</radialGradient>
		<linearGradient gradientUnits="userSpaceOnUse" gradientTransform="matrix(0.258547, 0.000000, 0.000000, 0.258547, 285.140625, 343.671631)" spreadMethod="reflect" id="02392262-4afa-4268-add8-0ccdaf04c8f1" x1="1082.506591796875" y1="277.7311096191406" x2="1681.5260009765625" y2="-251.13775634765625">
			<stop offset="0.000000%" stop-color="#FFFFFF" />
			<stop offset="0.000000%" stop-color="#000000" />
		</linearGradient>
		<radialGradient gradientUnits="userSpaceOnUse" gradientTransform="matrix(0.258547, 0.000000, 0.000000, 0.258547, 285.140625, 343.671631)" spreadMethod="reflect" id="bd4f6373-6b40-490e-934b-ac0f94d69625" cx="186.33523559570312" cy="-269.2317199707031" r="2036.3399689732173">
			<stop offset="0.000000%" stop-color="#FFFFFF" />
			<stop offset="59.648371%" stop-color="#FFFFFF" />
		</radialGradient>
	</defs>
	<rect x="-53.456642150878906" y="-22.27359962463379" width="106.91328430175781" height="44.54719924926758" transform="matrix(5.612025, 0.000000, 0.000000, 5.612025, 501.165863, 520.607178)" style="fill:#000000;" />
	<g transform="matrix(1.000000, 0.000000, 0.000000, 1.000000, 320.406738, -360.531769)">
		<path d="M-100.0,0.0 C-100.0,-0.869727373123169 -105.73896026611328,-4.208403587341309 -104.4068603515625,-5.028519153594971 C-103.07477569580078,-5.848634243011475 -94.67164611816406,-4.150189399719238 -92.1415023803711,-4.903805732727051 C-89.61136627197266,-5.657422065734863 -96.34017181396484,-17.018110275268555 -92.74602508544922,-17.68834114074707 C-89.15188598632812,-18.358572006225586 -75.23479461669922,-8.338346481323242 -70.71067810058594,-8.908305168151855 C-66.18656921386719,-9.478263854980469 -61.230987548828125,-9.993864059448242 -55.910953521728516,-10.446662902832031 C-50.590919494628906,-10.89946174621582 -67.20625305175781,-48.892059326171875 -61.224342346191406,-49.2108154296875 C-55.2424201965332,-49.52956771850586 -26.66324806213379,-12.174474716186523 -20.153488159179688,-12.342293739318848 C-13.643729209899902,-12.510113716125488 -6.90355920791626,-12.598246574401855 0.0,-12.598246574401855 C6.90355920791626,-12.598246574401855 22.463350296020508,-34.08822250366211 28.973108291625977,-33.92040252685547 C35.48286437988281,-33.75258255004883 32.942596435546875,-11.926966667175293 38.92451095581055,-11.608213424682617 C44.906429290771484,-11.289460182189941 81.39250183105469,-49.82360076904297 86.71253967285156,-49.37080001831055 C92.0325698852539,-48.91800308227539 66.18656921386719,-9.478263854980469 70.71067810058594,-8.908305168151855 C75.23479461669922,-8.338346481323242 79.32743072509766,-7.714029788970947 82.92156982421875,-7.043798923492432 C86.51571655273438,-6.373567581176758 95.52110290527344,-14.796408653259277 98.05123138427734,-14.042790412902832 C100.58137512207031,-13.289173126220703 96.63626861572266,-3.3591015338897705 97.96835327148438,-2.5389859676361084 C99.30042266845703,-1.7188705205917358 100.0,-0.869727373123169 100.0,0.0 C100.0,0.869727373123169 99.30042266845703,1.7188705205917358 97.96835327148438,2.5389859676361084 C96.63626861572266,3.3591015338897705 86.51571655273438,6.373567581176758 82.92156982421875,7.043798923492432 C79.32743072509766,7.714029788970947 75.23479461669922,8.338346481323242 70.71067810058594,8.908305168151855 C66.18656921386719,9.478263854980469 61.230987548828125,9.993864059448242 55.910953521728516,10.446662902832031 C50.590919494628906,10.89946174621582 62.70066833496094,28.513700485229492 56.718753814697266,28.83245277404785 C50.73683547973633,29.15120506286621 26.66324806213379,12.174474716186523 20.153488159179688,12.342293739318848 C13.643729209899902,12.510113716125488 6.90355920791626,12.598246574401855 0.0,12.598246574401855 C-6.90355920791626,12.598246574401855 -13.643729209899902,12.510113716125488 -20.153488159179688,12.342293739318848 C-26.66324806213379,12.174474716186523 -32.942596435546875,11.926966667175293 -38.92451095581055,11.608213424682617 C-44.906429290771484,11.289460182189941 -50.590919494628906,10.89946174621582 -55.910953521728516,10.446662902832031 C-61.230987548828125,9.993864059448242 -66.18656921386719,9.478263854980469 -70.71067810058594,8.908305168151855 C-75.23479461669922,8.338346481323242 -103.3121109008789,10.99905776977539 -106.90625762939453,10.328826904296875 C-110.50040435791016,9.65859603881836 -89.61136627197266,5.657422065734863 -92.1415023803711,4.903805732727051 C-94.67164611816406,4.150189399719238 -96.63626861572266,3.3591015338897705 -97.96835327148438,2.5389859676361084 C-99.30042266845703,1.7188705205917358 -100.0,0.869727373123169 -100.0,0.0 Z" transform="matrix(0.448940, 0.000000, -0.000000, -0.448940, 424.729187, 585.195801)" style="fill:#000000;" />
		<path d="M-70.71067810058594,-8.908305168151855 C-66.18656921386719,-9.478263854980469 -61.230987548828125,-9.993864059448242 -55.910953521728516,-10.446662902832031 C-50.590919494628906,-10.89946174621582 -67.20625305175781,-48.892059326171875 -61.224342346191406,-49.2108154296875 C-55.2424201965332,-49.52956771850586 -26.66324806213379,-12.174474716186523 -20.153488159179688,-12.342293739318848 C-13.643729209899902,-12.510113716125488 -6.90355920791626,-12.598246574401855 0.0,-12.598246574401855 C6.90355920791626,-12.598246574401855 22.463350296020508,-34.08822250366211 28.973108291625977,-33.92040252685547 C35.48286437988281,-33.75258255004883 32.942596435546875,-11.926966667175293 38.92451095581055,-11.608213424682617 C44.906429290771484,-11.289460182189941 81.39250183105469,-49.82360076904297 86.71253967285156,-49.37080001831055 C92.0325698852539,-48.91800308227539 66.18656921386719,-9.478263854980469 70.71067810058594,-8.908305168151855 C75.23479461669922,-8.338346481323242 79.32743072509766,-7.714029788970947 82.92156982421875,-7.043798923492432 C86.51571655273438,-6.373567581176758 95.52110290527344,-14.796408653259277 98.05123138427734,-14.042790412902832 C100.58137512207031,-13.289173126220703 105.38082122802734,-61.32192611694336 106.71290588378906,-60.5018196105957 C108.04499053955078,-59.68171691894531 103.3053970336914,-1.5217044353485107 101.97330474853516,-0.7015880346298218 C101.6402816772461,-0.49655911326408386 92.9273452758789,8.10049819946289 76.32233428955078,7.414090633392334 C68.01982116699219,7.070886135101318 55.847496032714844,-2.322066068649292 45.55674362182617,-2.787560224533081 C35.265987396240234,-3.253054141998291 24.327741622924805,-3.7629318237304688 13.435240745544434,-4.283668518066406 C2.5427405834198,-4.804405689239502 -21.888996124267578,6.377886772155762 -31.996746063232422,5.868952751159668 C-42.1044921875,5.360018730163574 -37.888248443603516,-6.840141296386719 -45.824737548828125,-7.270225524902344 C-61.697723388671875,-8.130393981933594 -71.84170532226562,-8.765814781188965 -70.71067810058594,-8.908305168151855 Z" transform="matrix(0.448940, 0.000000, -0.000000, -0.448940, 424.729187, 585.195801)" style="fill:#FFFFFF;" />
	</g>
	<rect x="-64.70925263594836" y="-27.177112276665866" width="129.41850527189672" height="54.35422455333173" transform="matrix(4.632628, 0.000000, 0.000000, 4.632628, 500.939758, 520.457581)" style="fill:#E5E5E5;" />
	<rect x="-64.70925263594836" y="-18.356567685492337" width="129.41850527189672" height="36.71313537098467" transform="matrix(4.632628, 0.000000, 0.000000, 4.632628, 500.939758, 561.319885)" style="fill:#E5E5E5;" />
	<rect x="-64.70925263594836" y="-12.240608024410903" width="129.41850527189672" height="24.481216048821807" transform="matrix(4.632628, 0.000000, 0.000000, 4.632628, 500.939758, 451.262390)" style="fill:#9B9A9C;" />
	<path d="M-73.45893096923828,-19.5792179107666 Q-58.905059814453125,7.26882791519165 -46.661903381347656,7.26882791519165 Q-34.41874694824219,7.26882791519165 -24.486310958862305,-19.5792179107666 Q-10.089821815490723,0.8108277320861816 2.153334140777588,0.8108277320861816 Q14.396489143371582,0.8108277320861816 24.486310958862305,-19.5792179107666 Q39.673641204833984,-8.599254608154297 51.91680145263672,-8.599254608154297 Q66.08097076416016,4.681817054748535 75.37994384765625,-6.298147201538086 Q78.91671752929688,-10.280191421508789 89.23886108398438,-23.56126594543457 C85.4988784790039,-17.420255661010742 89.66616821289062,0.3556590974330902 97.94524383544922,-4.89480447769165 Q97.94524383544922,-2.447402238845825 97.94524383544922,0.0 Q97.94524383544922,2.447402238845825 97.94524383544922,4.89480447769165 Q97.94524383544922,7.342206954956055 97.94524383544922,9.7896089553833 Q97.94524383544922,12.237011909484863 97.94524383544922,14.68441390991211 Q97.94524383544922,17.131816864013672 97.94524383544922,19.5792179107666 Q85.70208740234375,19.5792179107666 73.45893096923828,19.5792179107666 Q61.21577453613281,19.5792179107666 48.97262191772461,19.5792179107666 Q36.72946548461914,19.5792179107666 24.486310958862305,19.5792179107666 Q12.243155479431152,19.5792179107666 0.0,19.5792179107666 Q-12.243155479431152,19.5792179107666 -24.486310958862305,19.5792179107666 Q-36.72946548461914,19.5792179107666 -48.97262191772461,19.5792179107666 Q-61.21577453613281,19.5792179107666 -73.45893096923828,19.5792179107666 Q-85.70208740234375,19.5792179107666 -97.94524383544922,19.5792179107666 Q-97.94524383544922,17.131816864013672 -97.94524383544922,14.68441390991211 Q-97.94524383544922,12.237011909484863 -97.94524383544922,9.7896089553833 Q-97.94524383544922,7.342206954956055 -97.94524383544922,4.89480447769165 Q-97.94524383544922,2.447402238845825 -97.94524383544922,0.0 Q-97.94524383544922,-2.447402238845825 -97.94524383544922,-4.89480447769165 C-97.94524383544922,-7.342206954956055 -90.64389038085938,-6.033944129943848 -73.45893096923828,-19.5792179107666 Z" transform="matrix(3.059045, 0.000000, 0.000000, 3.059045, 500.784760, 473.024902)" style="fill:#000000;" />
	<path d="M-73.45893096923828,-19.5792179107666 Q-58.905059814453125,7.26882791519165 -46.661903381347656,7.26882791519165 Q-34.41874694824219,7.26882791519165 -24.486310958862305,-19.5792179107666 Q-10.089821815490723,0.8108277320861816 2.153334140777588,0.8108277320861816 Q14.396489143371582,0.8108277320861816 24.486310958862305,-19.5792179107666 Q39.673641204833984,-8.599254608154297 51.91680145263672,-8.599254608154297 Q66.08097076416016,4.681817054748535 75.37994384765625,-6.298147201538086 Q78.91671752929688,-10.280191421508789 89.23886108398438,-23.56126594543457 C85.4988784790039,-17.420255661010742 89.66616821289062,0.3556590974330902 97.94524383544922,-4.89480447769165 Q97.94524383544922,-2.447402238845825 97.94524383544922,0.0 Q97.94524383544922,2.447402238845825 97.94524383544922,4.89480447769165 Q97.94524383544922,7.342206954956055 97.94524383544922,9.7896089553833 Q97.94524383544922,12.237011909484863 97.94524383544922,14.68441390991211 Q97.94524383544922,17.131816864013672 97.94524383544922,19.5792179107666 Q85.70208740234375,19.5792179107666 73.45893096923828,19.5792179107666 Q61.21577453613281,19.5792179107666 48.97262191772461,19.5792179107666 Q36.72946548461914,19.5792179107666 24.486310958862305,19.5792179107666 Q12.243155479431152,19.5792179107666 0.0,19.5792179107666 Q-12.243155479431152,19.5792179107666 -24.486310958862305,19.5792179107666 Q-36.72946548461914,19.5792179107666 -48.97262191772461,19.5792179107666 Q-61.21577453613281,19.5792179107666 -73.45893096923828,19.5792179107666 Q-85.70208740234375,19.5792179107666 -97.94524383544922,19.5792179107666 Q-97.94524383544922,17.131816864013672 -97.94524383544922,14.68441390991211 Q-97.94524383544922,12.237011909484863 -97.94524383544922,9.7896089553833 Q-97.94524383544922,7.342206954956055 -97.94524383544922,4.89480447769165 Q-97.94524383544922,2.447402238845825 -97.94524383544922,0.0 Q-97.94524383544922,-2.447402238845825 -97.94524383544922,-4.89480447769165 C-97.94524383544922,-7.342206954956055 -90.64389038085938,-6.033944129943848 -73.45893096923828,-19.5792179107666 Z" transform="matrix(3.064038, 0.000000, 0.000000, 3.059045, 501.273682, 473.024902)" style="fill:#000000;" />
	<path d="M-73.45893096923828,-19.5792179107666 Q-58.905059814453125,7.26882791519165 -46.661903381347656,7.26882791519165 Q-34.41874694824219,7.26882791519165 -24.486310958862305,-19.5792179107666 Q-10.089821815490723,0.8108277320861816 2.153334140777588,0.8108277320861816 Q14.396489143371582,0.8108277320861816 24.486310958862305,-19.5792179107666 Q39.673641204833984,-8.599254608154297 51.91680145263672,-8.599254608154297 Q66.08097076416016,4.681817054748535 75.37994384765625,-6.298147201538086 Q78.91671752929688,-10.280191421508789 89.23886108398438,-23.56126594543457 C85.4988784790039,-17.420255661010742 89.66616821289062,0.3556590974330902 97.94524383544922,-4.89480447769165 Q97.94524383544922,-2.447402238845825 97.94524383544922,0.0 Q97.94524383544922,2.447402238845825 97.94524383544922,4.89480447769165 Q97.94524383544922,7.342206954956055 97.94524383544922,9.7896089553833 Q97.94524383544922,12.237011909484863 97.94524383544922,14.68441390991211 Q97.94524383544922,17.131816864013672 97.94524383544922,19.5792179107666 Q94.2507095336914,-1.2500011920928955 82.00755310058594,-1.2500011920928955 Q75.88597106933594,-1.2500011920928955 67.62723541259766,3.957303762435913 Q49.35139083862305,-3.1569180488586426 44.68773651123047,0.7485605478286743 Q40.02408218383789,4.654038906097412 48.97262191772461,19.5792179107666 Q31.725942611694336,1.134703516960144 25.604360580444336,1.134703516960144 Q19.4827880859375,1.134703516960144 24.486310958862305,19.5792179107666 Q15.326454162597656,12.506169319152832 9.204878807067871,12.506169319152832 Q3.0833003520965576,12.506169319152832 0.0,19.5792179107666 Q-6.121577739715576,19.5792179107666 -12.243155479431152,19.5792179107666 Q-18.190582275390625,7.726089954376221 -24.31216049194336,7.726089954376221 Q-36.55531692504883,7.726089954376221 -48.97262191772461,19.5792179107666 Q-61.287479400634766,7.687671184539795 -67.40906524658203,7.687671184539795 Q-73.53064727783203,7.687671184539795 -73.45893096923828,19.5792179107666 Q-72.802978515625,-4.103879928588867 -78.92455291748047,-4.103879928588867 Q-85.04613494873047,-4.103879928588867 -97.94524383544922,19.5792179107666 Q-97.94524383544922,17.131816864013672 -97.94524383544922,14.68441390991211 Q-97.94524383544922,12.237011909484863 -97.94524383544922,9.7896089553833 Q-97.94524383544922,7.342206954956055 -97.94524383544922,4.89480447769165 Q-97.94524383544922,2.447402238845825 -97.94524383544922,0.0 Q-97.94524383544922,-2.447402238845825 -97.94524383544922,-4.89480447769165 C-97.94524383544922,-7.342206954956055 -90.64389038085938,-6.033944129943848 -73.45893096923828,-19.5792179107666 Z" transform="matrix(3.059045, 0.000000, 0.000000, 3.059045, 500.784760, 473.024902)" style="fill:#FFFFFF;" />
	<path d="M-73.45893096923828,-19.5792179107666 Q-58.905059814453125,7.26882791519165 -46.661903381347656,7.26882791519165 Q-34.41874694824219,7.26882791519165 -24.486310958862305,-19.5792179107666 Q-10.089821815490723,0.8108277320861816 2.153334140777588,0.8108277320861816 Q14.396489143371582,0.8108277320861816 24.486310958862305,-19.5792179107666 Q39.673641204833984,-8.599254608154297 51.91680145263672,-8.599254608154297 Q66.08097076416016,4.681817054748535 75.37994384765625,-6.298147201538086 Q78.91671752929688,-10.280191421508789 89.23886108398438,-23.56126594543457 C85.4988784790039,-17.420255661010742 89.66616821289062,0.3556590974330902 97.94524383544922,-4.89480447769165 Q97.94524383544922,-2.447402238845825 97.94524383544922,0.0 Q97.94524383544922,2.447402238845825 97.94524383544922,4.89480447769165 Q97.94524383544922,7.342206954956055 97.94524383544922,9.7896089553833 Q97.94524383544922,12.237011909484863 97.94524383544922,14.68441390991211 Q97.94524383544922,17.131816864013672 97.94524383544922,19.5792179107666 Q94.2507095336914,-1.2500011920928955 82.00755310058594,-1.2500011920928955 Q75.88597106933594,-1.2500011920928955 67.62723541259766,3.957303762435913 Q49.35139083862305,-3.1569180488586426 44.68773651123047,0.7485605478286743 Q40.02408218383789,4.654038906097412 48.97262191772461,19.5792179107666 Q31.725942611694336,1.134703516960144 25.604360580444336,1.134703516960144 Q19.4827880859375,1.134703516960144 24.486310958862305,19.5792179107666 Q15.326454162597656,12.506169319152832 9.204878807067871,12.506169319152832 Q3.0833003520965576,12.506169319152832 0.0,19.5792179107666 Q-6.121577739715576,19.5792179107666 -12.243155479431152,19.5792179107666 Q-18.190582275390625,7.726089954376221 -24.31216049194336,7.726089954376221 Q-36.55531692504883,7.726089954376221 -48.97262191772461,19.5792179107666 Q-61.287479400634766,7.687671184539795 -67.40906524658203,7.687671184539795 Q-73.53064727783203,7.687671184539795 -73.45893096923828,19.5792179107666 Q-72.802978515625,-4.103879928588867 -78.92455291748047,-4.103879928588867 Q-85.04613494873047,-4.103879928588867 -97.94524383544922,19.5792179107666 Q-97.94524383544922,17.131816864013672 -97.94524383544922,14.68441390991211 Q-97.94524383544922,12.237011909484863 -97.94524383544922,9.7896089553833 Q-97.94524383544922,7.342206954956055 -97.94524383544922,4.89480447769165 Q-97.94524383544922,2.447402238845825 -97.94524383544922,0.0 Q-97.94524383544922,-2.447402238845825 -97.94524383544922,-4.89480447769165 C-97.94524383544922,-7.342206954956055 -90.64389038085938,-6.033944129943848 -73.45893096923828,-19.5792179107666 Z" transform="matrix(3.064037, 0.000000, 0.000000, 3.059045, 501.273682, 473.024902)" style="fill:#FFFFFF;" />
	<g transform="matrix(2.066139, 0.000000, 0.000000, 2.066139, -127.290779, -385.902008)">
		<path d="M320.875,476.80859375 L320.875,560.01953125 L320.875,601.625 L320.875,622.427734375 L320.875,632.8291015625 Q320.875,643.23046875 329.18994140625,643.23046875 L337.5049133300781,643.23046875 L354.1347351074219,643.23046875 L387.39453125,643.23046875 Q387.39453125,553.3515625 400.9042663574219,553.3515625 L407.658203125,553.3515625 L421.16796875,553.3515625 L427.923828125,553.3515625 Q441.4335632324219,553.3515625 441.4335632324219,643.23046875 L474.693359375,643.23046875 L491.3232421875,643.23046875 L499.6382141113281,643.23046875 Q507.953125,643.23046875 507.953125,632.8291015625 L507.953125,622.427734375 L507.953125,601.625 L507.953125,560.01953125 L507.953125,476.80859375 L320.875,476.80859375 Z" fill-rule="evenodd" transform="matrix(0.344218, 0.000000, 0.000000, 0.257023, 153.717529, 332.704254)" style="fill:#000000;" />
		<path d="M413.9745788574219,395.6171875 C370.8762512207031,396.44775390625 327.92425537109375,449.1067199707031 285.140625,551.1034545898438 L543.6875,551.1034545898438 C500.318359375,445.784423828125 457.07293701171875,394.7865905761719 413.9745788574219,395.6171875 Z" fill-rule="evenodd" transform="matrix(0.344218, 0.000000, 0.000000, 0.344218, 153.717529, 276.617767)" style="fill:url(#816100c5-cea3-4cd1-8614-2bc84caccbfc);" />
		<path d="M413.9745788574219,395.6171875 C408.5872497558594,395.72100830078125 403.2023010253906,396.6346435546875 397.819580078125,398.3532409667969 C392.4369201660156,400.0718078613281 387.0565490722656,402.5953674316406 381.6786193847656,405.9189758300781 C376.3006286621094,409.2426452636719 370.925048828125,413.3663635253906 365.5518493652344,418.2853088378906 C360.17864990234375,423.20428466796875 354.80792236328125,428.9184875488281 349.4395751953125,435.4230041503906 C344.0712585449219,441.92755126953125 338.7054443359375,449.22247314453125 333.3420715332031,457.3028259277344 C327.9787292480469,465.38323974609375 322.6178894042969,474.24908447265625 317.2595520019531,483.8956604003906 C311.9012756347656,493.5422058105469 306.5455017089844,503.9693603515625 301.19232177734375,515.1722412109375 C295.83917236328125,526.3751831054688 290.48858642578125,538.3538208007812 285.140625,551.1034545898438 C317.4589538574219,551.1034545898438 339.28167724609375,516.9573364257812 361.5728759765625,512.6846923828125 C383.86407470703125,508.4119567871094 410.689697265625,547.3406982421875 424.4720153808594,540.0198364257812 C438.25433349609375,532.698974609375 410.4349365234375,446.0357360839844 450.8875427246094,501.6875915527344 C491.3401794433594,557.3394775390625 488.5038146972656,533.8552856445312 462.6745300292969,473.048828125 C436.8453063964844,412.2424011230469 462.8885803222656,443.7414855957031 477.1872253417969,455.4330749511719 C491.4859313964844,467.1247253417969 491.2544860839844,445.67071533203125 473.1840515136719,426.7974548339844 C455.11358642578125,407.9241638183594 447.70208740234375,403.61370849609375 439.12646484375,400.1647033691406 C430.55084228515625,396.71575927734375 419.67779541015625,395.1442565917969 413.9745788574219,395.6171875 Z" fill-rule="evenodd" transform="matrix(0.344218, 0.000000, 0.000000, 0.344218, 153.717529, 276.617767)" style="fill:url(#b6c2ee9c-cf7d-4d6f-8e22-456321c367ae);" />
	</g>
	<g transform="matrix(0.968682, 0.000000, 0.000000, 0.968682, -27.440573, 98.344299)">
		<path d="M320.875,476.80859375 L320.875,560.01953125 L320.875,601.625 L320.875,622.427734375 L320.875,632.8291015625 Q320.875,643.23046875 329.18994140625,643.23046875 L337.5049133300781,643.23046875 L354.1347351074219,643.23046875 L387.39453125,643.23046875 Q387.39453125,553.3515625 400.9042663574219,553.3515625 L407.658203125,553.3515625 L421.16796875,553.3515625 L427.923828125,553.3515625 Q441.4335632324219,553.3515625 441.4335632324219,643.23046875 L474.693359375,643.23046875 L491.3232421875,643.23046875 L499.6382141113281,643.23046875 Q507.953125,643.23046875 507.953125,632.8291015625 L507.953125,622.427734375 L507.953125,601.625 L507.953125,560.01953125 L507.953125,476.80859375 L320.875,476.80859375 Z" fill-rule="evenodd" transform="matrix(0.344218, 0.000000, 0.000000, 0.257023, 153.717529, 332.704254)" style="fill:#000000;" />
		<path d="M413.9745788574219,395.6171875 C370.8762512207031,396.44775390625 327.92425537109375,449.1067199707031 285.140625,551.1034545898438 L543.6875,551.1034545898438 C500.318359375,445.784423828125 457.07293701171875,394.7865905761719 413.9745788574219,395.6171875 Z" fill-rule="evenodd" transform="matrix(0.344218, 0.000000, 0.000000, 0.344218, 153.717529, 276.617767)" style="fill:url(#d8c0cd24-beb8-43d0-b6e8-a4c9fd23dbbc);" />
		<path d="M413.9745788574219,395.6171875 C408.5872497558594,395.72100830078125 403.2023010253906,396.6346435546875 397.819580078125,398.3532409667969 C392.4369201660156,400.0718078613281 387.0565490722656,402.5953674316406 381.6786193847656,405.9189758300781 C376.3006286621094,409.2426452636719 370.925048828125,413.3663635253906 365.5518493652344,418.2853088378906 C360.17864990234375,423.20428466796875 354.80792236328125,428.9184875488281 349.4395751953125,435.4230041503906 C344.0712585449219,441.92755126953125 338.7054443359375,449.22247314453125 333.3420715332031,457.3028259277344 C327.9787292480469,465.38323974609375 322.6178894042969,474.24908447265625 317.2595520019531,483.8956604003906 C311.9012756347656,493.5422058105469 306.5455017089844,503.9693603515625 301.19232177734375,515.1722412109375 C295.83917236328125,526.3751831054688 290.48858642578125,538.3538208007812 285.140625,551.1034545898438 C317.4589538574219,551.1034545898438 339.28167724609375,516.9573364257812 361.5728759765625,512.6846923828125 C383.86407470703125,508.4119567871094 410.689697265625,547.3406982421875 424.4720153808594,540.0198364257812 C438.25433349609375,532.698974609375 410.4349365234375,446.0357360839844 450.8875427246094,501.6875915527344 C491.3401794433594,557.3394775390625 488.5038146972656,533.8552856445312 462.6745300292969,473.048828125 C436.8453063964844,412.2424011230469 462.8885803222656,443.7414855957031 477.1872253417969,455.4330749511719 C491.4859313964844,467.1247253417969 491.2544860839844,445.67071533203125 473.1840515136719,426.7974548339844 C455.11358642578125,407.9241638183594 447.70208740234375,403.61370849609375 439.12646484375,400.1647033691406 C430.55084228515625,396.71575927734375 419.67779541015625,395.1442565917969 413.9745788574219,395.6171875 Z" fill-rule="evenodd" transform="matrix(0.344218, 0.000000, 0.000000, 0.344218, 153.717529, 276.617767)" style="fill:url(#c381ae16-bcde-4724-a0bf-7b9d6f63441e);" />
	</g>
	<g transform="matrix(0.705695, 0.000000, 0.000000, 0.705695, 128.632156, 208.580673)">
		<path d="M320.875,476.80859375 L320.875,560.01953125 L320.875,601.625 L320.875,622.427734375 L320.875,632.8291015625 Q320.875,643.23046875 329.18994140625,643.23046875 L337.5049133300781,643.23046875 L354.1347351074219,643.23046875 L387.39453125,643.23046875 Q387.39453125,553.3515625 400.9042663574219,553.3515625 L407.658203125,553.3515625 L421.16796875,553.3515625 L427.923828125,553.3515625 Q441.4335632324219,553.3515625 441.4335632324219,643.23046875 L474.693359375,643.23046875 L491.3232421875,643.23046875 L499.6382141113281,643.23046875 Q507.953125,643.23046875 507.953125,632.8291015625 L507.953125,622.427734375 L507.953125,601.625 L507.953125,560.01953125 L507.953125,476.80859375 L320.875,476.80859375 Z" fill-rule="evenodd" transform="matrix(0.344218, 0.000000, 0.000000, 0.257023, 153.717529, 332.704254)" style="fill:#000000;" />
		<path d="M413.9745788574219,395.6171875 C370.8762512207031,396.44775390625 327.92425537109375,449.1067199707031 285.140625,551.1034545898438 L543.6875,551.1034545898438 C500.318359375,445.784423828125 457.07293701171875,394.7865905761719 413.9745788574219,395.6171875 Z" fill-rule="evenodd" transform="matrix(0.344218, 0.000000, 0.000000, 0.344218, 153.717529, 276.617767)" style="fill:url(#fad616e0-97c8-4e9f-b319-6192e650f028);" />
		<path d="M413.9745788574219,395.6171875 C408.5872497558594,395.72100830078125 403.2023010253906,396.6346435546875 397.819580078125,398.3532409667969 C392.4369201660156,400.0718078613281 387.0565490722656,402.5953674316406 381.6786193847656,405.9189758300781 C376.3006286621094,409.2426452636719 370.925048828125,413.3663635253906 365.5518493652344,418.2853088378906 C360.17864990234375,423.20428466796875 354.80792236328125,428.9184875488281 349.4395751953125,435.4230041503906 C344.0712585449219,441.92755126953125 338.7054443359375,449.22247314453125 333.3420715332031,457.3028259277344 C327.9787292480469,465.38323974609375 322.6178894042969,474.24908447265625 317.2595520019531,483.8956604003906 C311.9012756347656,493.5422058105469 306.5455017089844,503.9693603515625 301.19232177734375,515.1722412109375 C295.83917236328125,526.3751831054688 290.48858642578125,538.3538208007812 285.140625,551.1034545898438 C317.4589538574219,551.1034545898438 339.28167724609375,516.9573364257812 361.5728759765625,512.6846923828125 C383.86407470703125,508.4119567871094 410.689697265625,547.3406982421875 424.4720153808594,540.0198364257812 C438.25433349609375,532.698974609375 410.4349365234375,446.0357360839844 450.8875427246094,501.6875915527344 C491.3401794433594,557.3394775390625 488.5038146972656,533.8552856445312 462.6745300292969,473.048828125 C436.8453063964844,412.2424011230469 462.8885803222656,443.7414855957031 477.1872253417969,455.4330749511719 C491.4859313964844,467.1247253417969 491.2544860839844,445.67071533203125 473.1840515136719,426.7974548339844 C455.11358642578125,407.9241638183594 447.70208740234375,403.61370849609375 439.12646484375,400.1647033691406 C430.55084228515625,396.71575927734375 419.67779541015625,395.1442565917969 413.9745788574219,395.6171875 Z" fill-rule="evenodd" transform="matrix(0.344218, 0.000000, 0.000000, 0.344218, 153.717529, 276.617767)" style="fill:url(#f25d82cc-31a9-4dba-81b3-d3786d6bdc39);" />
	</g>
	<g transform="matrix(0.484154, 0.000000, 0.000000, 0.484154, 248.480103, 312.837585)">
		<path d="M320.875,476.80859375 L320.875,560.01953125 L320.875,601.625 L320.875,622.427734375 L320.875,632.8291015625 Q320.875,643.23046875 329.18994140625,643.23046875 L337.5049133300781,643.23046875 L354.1347351074219,643.23046875 L387.39453125,643.23046875 Q387.39453125,553.3515625 400.9042663574219,553.3515625 L407.658203125,553.3515625 L421.16796875,553.3515625 L427.923828125,553.3515625 Q441.4335632324219,553.3515625 441.4335632324219,643.23046875 L474.693359375,643.23046875 L491.3232421875,643.23046875 L499.6382141113281,643.23046875 Q507.953125,643.23046875 507.953125,632.8291015625 L507.953125,622.427734375 L507.953125,601.625 L507.953125,560.01953125 L507.953125,476.80859375 L320.875,476.80859375 Z" fill-rule="evenodd" transform="matrix(0.344218, 0.000000, 0.000000, 0.257023, 153.717529, 332.704254)" style="fill:#000000;" />
		<path d="M413.9745788574219,395.6171875 C370.8762512207031,396.44775390625 327.92425537109375,449.1067199707031 285.140625,551.1034545898438 L543.6875,551.1034545898438 C500.318359375,445.784423828125 457.07293701171875,394.7865905761719 413.9745788574219,395.6171875 Z" fill-rule="evenodd" transform="matrix(0.344218, 0.000000, 0.000000, 0.344218, 153.717529, 276.617767)" style="fill:url(#346266a0-04d2-4ee4-9b25-476994b14586);" />
		<path d="M413.9745788574219,395.6171875 C408.5872497558594,395.72100830078125 403.2023010253906,396.6346435546875 397.819580078125,398.3532409667969 C392.4369201660156,400.0718078613281 387.0565490722656,402.5953674316406 381.6786193847656,405.9189758300781 C376.3006286621094,409.2426452636719 370.925048828125,413.3663635253906 365.5518493652344,418.2853088378906 C360.17864990234375,423.20428466796875 354.80792236328125,428.9184875488281 349.4395751953125,435.4230041503906 C344.0712585449219,441.92755126953125 338.7054443359375,449.22247314453125 333.3420715332031,457.3028259277344 C327.9787292480469,465.38323974609375 322.6178894042969,474.24908447265625 317.2595520019531,483.8956604003906 C311.9012756347656,493.5422058105469 306.5455017089844,503.9693603515625 301.19232177734375,515.1722412109375 C295.83917236328125,526.3751831054688 290.48858642578125,538.3538208007812 285.140625,551.1034545898438 C317.4589538574219,551.1034545898438 339.28167724609375,516.9573364257812 361.5728759765625,512.6846923828125 C383.86407470703125,508.4119567871094 410.689697265625,547.3406982421875 424.4720153808594,540.0198364257812 C438.25433349609375,532.698974609375 410.4349365234375,446.0357360839844 450.8875427246094,501.6875915527344 C491.3401794433594,557.3394775390625 488.5038146972656,533.8552856445312 462.6745300292969,473.048828125 C436.8453063964844,412.2424011230469 462.8885803222656,443.7414855957031 477.1872253417969,455.4330749511719 C491.4859313964844,467.1247253417969 491.2544860839844,445.67071533203125 473.1840515136719,426.7974548339844 C455.11358642578125,407.9241638183594 447.70208740234375,403.61370849609375 439.12646484375,400.1647033691406 C430.55084228515625,396.71575927734375 419.67779541015625,395.1442565917969 413.9745788574219,395.6171875 Z" fill-rule="evenodd" transform="matrix(0.344218, 0.000000, 0.000000, 0.344218, 153.717529, 276.617767)" style="fill:url(#a608a36b-3f8f-44c8-8594-35f19b0d8a5e);" />
	</g>
	<g transform="matrix(0.794489, 0.000000, 0.000000, 0.794489, 388.310150, 171.109253)">
		<path d="M320.875,476.80859375 L320.875,560.01953125 L320.875,601.625 L320.875,622.427734375 L320.875,632.8291015625 Q320.875,643.23046875 329.18994140625,643.23046875 L337.5049133300781,643.23046875 L354.1347351074219,643.23046875 L387.39453125,643.23046875 Q387.39453125,553.3515625 400.9042663574219,553.3515625 L407.658203125,553.3515625 L421.16796875,553.3515625 L427.923828125,553.3515625 Q441.4335632324219,553.3515625 441.4335632324219,643.23046875 L474.693359375,643.23046875 L491.3232421875,643.23046875 L499.6382141113281,643.23046875 Q507.953125,643.23046875 507.953125,632.8291015625 L507.953125,622.427734375 L507.953125,601.625 L507.953125,560.01953125 L507.953125,476.80859375 L320.875,476.80859375 Z" fill-rule="evenodd" transform="matrix(0.344218, 0.000000, 0.000000, 0.257023, 153.717529, 332.704254)" style="fill:#000000;" />
		<path d="M413.9745788574219,395.6171875 C370.8762512207031,396.44775390625 327.92425537109375,449.1067199707031 285.140625,551.1034545898438 L543.6875,551.1034545898438 C500.318359375,445.784423828125 457.07293701171875,394.7865905761719 413.9745788574219,395.6171875 Z" fill-rule="evenodd" transform="matrix(0.344218, 0.000000, 0.000000, 0.344218, 153.717529, 276.617767)" style="fill:url(#c996907c-808f-49e2-b957-bd46519c687b);" />
		<path d="M413.9745788574219,395.6171875 C408.5872497558594,395.72100830078125 403.2023010253906,396.6346435546875 397.819580078125,398.3532409667969 C392.4369201660156,400.0718078613281 387.0565490722656,402.5953674316406 381.6786193847656,405.9189758300781 C376.3006286621094,409.2426452636719 370.925048828125,413.3663635253906 365.5518493652344,418.2853088378906 C360.17864990234375,423.20428466796875 354.80792236328125,428.9184875488281 349.4395751953125,435.4230041503906 C344.0712585449219,441.92755126953125 338.7054443359375,449.22247314453125 333.3420715332031,457.3028259277344 C327.9787292480469,465.38323974609375 322.6178894042969,474.24908447265625 317.2595520019531,483.8956604003906 C311.9012756347656,493.5422058105469 306.5455017089844,503.9693603515625 301.19232177734375,515.1722412109375 C295.83917236328125,526.3751831054688 290.48858642578125,538.3538208007812 285.140625,551.1034545898438 C317.4589538574219,551.1034545898438 339.28167724609375,516.9573364257812 361.5728759765625,512.6846923828125 C383.86407470703125,508.4119567871094 410.689697265625,547.3406982421875 424.4720153808594,540.0198364257812 C438.25433349609375,532.698974609375 410.4349365234375,446.0357360839844 450.8875427246094,501.6875915527344 C491.3401794433594,557.3394775390625 488.5038146972656,533.8552856445312 462.6745300292969,473.048828125 C436.8453063964844,412.2424011230469 462.8885803222656,443.7414855957031 477.1872253417969,455.4330749511719 C491.4859313964844,467.1247253417969 491.2544860839844,445.67071533203125 473.1840515136719,426.7974548339844 C455.11358642578125,407.9241638183594 447.70208740234375,403.61370849609375 439.12646484375,400.1647033691406 C430.55084228515625,396.71575927734375 419.67779541015625,395.1442565917969 413.9745788574219,395.6171875 Z" fill-rule="evenodd" transform="matrix(0.344218, 0.000000, 0.000000, 0.344218, 153.717529, 276.617767)" style="fill:url(#9b52a570-b8c7-4229-ac5f-6d162da4ff3f);" />
	</g>
	<g transform="matrix(1.180254, 0.000000, 0.000000, 1.180254, 388.677765, 11.377645)">
		<path d="M320.875,476.80859375 L320.875,560.01953125 L320.875,601.625 L320.875,622.427734375 L320.875,632.8291015625 Q320.875,643.23046875 329.18994140625,643.23046875 L337.5049133300781,643.23046875 L354.1347351074219,643.23046875 L387.39453125,643.23046875 Q387.39453125,553.3515625 400.9042663574219,553.3515625 L407.658203125,553.3515625 L421.16796875,553.3515625 L427.923828125,553.3515625 Q441.4335632324219,553.3515625 441.4335632324219,643.23046875 L474.693359375,643.23046875 L491.3232421875,643.23046875 L499.6382141113281,643.23046875 Q507.953125,643.23046875 507.953125,632.8291015625 L507.953125,622.427734375 L507.953125,601.625 L507.953125,560.01953125 L507.953125,476.80859375 L320.875,476.80859375 Z" fill-rule="evenodd" transform="matrix(0.344218, 0.000000, 0.000000, 0.257023, 153.717529, 332.704254)" style="fill:#000000;" />
		<path d="M413.9745788574219,395.6171875 C370.8762512207031,396.44775390625 327.92425537109375,449.1067199707031 285.140625,551.1034545898438 L543.6875,551.1034545898438 C500.318359375,445.784423828125 457.07293701171875,394.7865905761719 413.9745788574219,395.6171875 Z" fill-rule="evenodd" transform="matrix(0.344218, 0.000000, 0.000000, 0.344218, 153.717529, 276.617767)" style="fill:url(#02392262-4afa-4268-add8-0ccdaf04c8f1);" />
		<path d="M413.9745788574219,395.6171875 C408.5872497558594,395.72100830078125 403.2023010253906,396.6346435546875 397.819580078125,398.3532409667969 C392.4369201660156,400.0718078613281 387.0565490722656,402.5953674316406 381.6786193847656,405.9189758300781 C376.3006286621094,409.2426452636719 370.925048828125,413.3663635253906 365.5518493652344,418.2853088378906 C360.17864990234375,423.20428466796875 354.80792236328125,428.9184875488281 349.4395751953125,435.4230041503906 C344.0712585449219,441.92755126953125 338.7054443359375,449.22247314453125 333.3420715332031,457.3028259277344 C327.9787292480469,465.38323974609375 322.6178894042969,474.24908447265625 317.2595520019531,483.8956604003906 C311.9012756347656,493.5422058105469 306.5455017089844,503.9693603515625 301.19232177734375,515.1722412109375 C295.83917236328125,526.3751831054688 290.48858642578125,538.3538208007812 285.140625,551.1034545898438 C317.4589538574219,551.1034545898438 339.28167724609375,516.9573364257812 361.5728759765625,512.6846923828125 C383.86407470703125,508.4119567871094 410.689697265625,547.3406982421875 424.4720153808594,540.0198364257812 C438.25433349609375,532.698974609375 410.4349365234375,446.0357360839844 450.8875427246094,501.6875915527344 C491.3401794433594,557.3394775390625 488.5038146972656,533.8552856445312 462.6745300292969,473.048828125 C436.8453063964844,412.2424011230469 462.8885803222656,443.7414855957031 477.1872253417969,455.4330749511719 C491.4859313964844,467.1247253417969 491.2544860839844,445.67071533203125 473.1840515136719,426.7974548339844 C455.11358642578125,407.9241638183594 447.70208740234375,403.61370849609375 439.12646484375,400.1647033691406 C430.55084228515625,396.71575927734375 419.67779541015625,395.1442565917969 413.9745788574219,395.6171875 Z" fill-rule="evenodd" transform="matrix(0.344218, 0.000000, 0.000000, 0.344218, 153.717529, 276.617767)" style="fill:url(#bd4f6373-6b40-490e-934b-ac0f94d69625);" />
	</g>
</svg>