<?xml version="1.0" encoding="UTF-8"?>
<!-- Created with Grafika (https://www.grafika.cc/) -->
<svg version="1.0" xmlns="http://www.w3.org/2000/svg" xmlns:svg="http://www.w3.org/2000/svg" width="601" height="252" viewBox="201.165741 394.556122 600.215851 251.802887" preserveAspectRatio="xMinYMin meet">
	<defs>
		<linearGradient gradientUnits="userSpaceOnUse" gradientTransform="matrix(0.258547, 0.000000, 0.000000, 0.258547, 285.140625, 343.671631)" spreadMethod="reflect" id="9a22d507-a36b-471a-8f8f-61c70d849637" x1="1082.506591796875" y1="277.7311096191406" x2="1681.5260009765625" y2="-251.13775634765625">
			<stop offset="0.000000%" stop-color="#FFFFFF" />
			<stop offset="0.000000%" stop-color="#000000" />
		</linearGradient>
		<radialGradient gradientUnits="userSpaceOnUse" gradientTransform="matrix(0.258547, 0.000000, 0.000000, 0.258547, 285.140625, 343.671631)" spreadMethod="reflect" id="8b8fef60-1af7-4291-989c-17776c5337ac" cx="186.33523559570312" cy="-269.2317199707031" r="2036.3399689732173">
			<stop offset="0.000000%" stop-color="#FFFFFF" />
			<stop offset="59.648371%" stop-color="#FFFFFF" />
		</radialGradient>
		<linearGradient gradientUnits="userSpaceOnUse" gradientTransform="matrix(0.258547, 0.000000, 0.000000, 0.258547, 285.140625, 343.671631)" spreadMethod="reflect" id="dce4298e-0b9a-4304-947d-06f561f17346" x1="1082.506591796875" y1="277.7311096191406" x2="1681.5260009765625" y2="-251.13775634765625">
			<stop offset="0.000000%" stop-color="#FFFFFF" />
			<stop offset="0.000000%" stop-color="#000000" />
		</linearGradient>
		<radialGradient gradientUnits="userSpaceOnUse" gradientTransform="matrix(0.258547, 0.000000, 0.000000, 0.258547, 285.140625, 343.671631)" spreadMethod="reflect" id="cc763058-c74c-4660-80f3-1673632c1fc1" cx="186.33523559570312" cy="-269.2317199707031" r="2036.3399689732173">
			<stop offset="0.000000%" stop-color="#FFFFFF" />
			<stop offset="59.648371%" stop-color="#FFFFFF" />
		</radialGradient>
		<linearGradient gradientUnits="userSpaceOnUse" gradientTransform="matrix(0.258547, 0.000000, 0.000000, 0.258547, 285.140625, 343.671631)" spreadMethod="reflect" id="f3a2f059-49d3-4690-85d3-9436b4caa05c" x1="1082.506591796875" y1="277.7311096191406" x2="1681.5260009765625" y2="-251.13775634765625">
			<stop offset="0.000000%" stop-color="#FFFFFF" />
			<stop offset="0.000000%" stop-color="#000000" />
		</linearGradient>
		<radialGradient gradientUnits="userSpaceOnUse" gradientTransform="matrix(0.258547, 0.000000, 0.000000, 0.258547, 285.140625, 343.671631)" spreadMethod="reflect" id="7850d1b0-00ae-414c-9f1f-ae5de82a2818" cx="186.33523559570312" cy="-269.2317199707031" r="2036.3399689732173">
			<stop offset="0.000000%" stop-color="#FFFFFF" />
			<stop offset="59.648371%" stop-color="#FFFFFF" />
		</radialGradient>
		<linearGradient gradientUnits="userSpaceOnUse" gradientTransform="matrix(0.258547, 0.000000, 0.000000, 0.258547, 285.140625, 343.671631)" spreadMethod="reflect" id="4ee0b057-3ea7-4842-87f7-b922ff96a05c" x1="1082.506591796875" y1="277.7311096191406" x2="1681.5260009765625" y2="-251.13775634765625">
			<stop offset="0.000000%" stop-color="#FFFFFF" />
			<stop offset="0.000000%" stop-color="#000000" />
		</linearGradient>
		<radialGradient gradientUnits="userSpaceOnUse" gradientTransform="matrix(0.258547, 0.000000, 0.000000, 0.258547, 285.140625, 343.671631)" spreadMethod="reflect" id="7a4ddfc9-6664-47e1-ade5-d878d5d9efa3" cx="186.33523559570312" cy="-269.2317199707031" r="2036.3399689732173">
			<stop offset="0.000000%" stop-color="#FFFFFF" />
			<stop offset="59.648371%" stop-color="#FFFFFF" />
		</radialGradient>
		<linearGradient gradientUnits="userSpaceOnUse" gradientTransform="matrix(0.258547, 0.000000, 0.000000, 0.258547, 285.140625, 343.671631)" spreadMethod="reflect" id="78394620-5217-4a3b-8d31-d9598813a7c9" x1="1082.506591796875" y1="277.7311096191406" x2="1681.5260009765625" y2="-251.13775634765625">
			<stop offset="0.000000%" stop-color="#FFFFFF" />
			<stop offset="0.000000%" stop-color="#000000" />
		</linearGradient>
		<radialGradient gradientUnits="userSpaceOnUse" gradientTransform="matrix(0.258547, 0.000000, 0.000000, 0.258547, 285.140625, 343.671631)" spreadMethod="reflect" id="11fb96bf-c1e9-425b-91e6-dd4901956f53" cx="186.33523559570312" cy="-269.2317199707031" r="2036.3399689732173">
			<stop offset="0.000000%" stop-color="#FFFFFF" />
			<stop offset="59.648371%" stop-color="#FFFFFF" />
		</radialGradient>
		<linearGradient gradientUnits="userSpaceOnUse" gradientTransform="matrix(0.258547, 0.000000, 0.000000, 0.258547, 285.140625, 343.671631)" spreadMethod="reflect" id="7cae8be5-1975-4694-8d63-95b0129ad648" x1="1082.506591796875" y1="277.7311096191406" x2="1681.5260009765625" y2="-251.13775634765625">
			<stop offset="0.000000%" stop-color="#FFFFFF" />
			<stop offset="0.000000%" stop-color="#000000" />
		</linearGradient>
		<radialGradient gradientUnits="userSpaceOnUse" gradientTransform="matrix(0.258547, 0.000000, 0.000000, 0.258547, 285.140625, 343.671631)" spreadMethod="reflect" id="40b316b8-ac7c-4451-aa3f-3b822f804c2a" cx="186.33523559570312" cy="-269.2317199707031" r="2036.3399689732173">
			<stop offset="0.000000%" stop-color="#FFFFFF" />
			<stop offset="59.648371%" stop-color="#FFFFFF" />
		</radialGradient>
	</defs>
	<rect x="-53.456642150878906" y="-22.27359962463379" width="106.91328430175781" height="44.54719924926758" transform="matrix(5.612025, 0.000000, 0.000000, 5.612025, 501.165863, 520.607178)" style="fill:#000000;" />
	<rect x="-64.70925263594836" y="-27.177112276665866" width="129.41850527189672" height="54.35422455333173" transform="matrix(4.632628, 0.000000, 0.000000, 4.632628, 500.939758, 520.457581)" style="fill:#E5E5E5;" />
	<rect x="-64.70925263594836" y="-18.356567685492337" width="129.41850527189672" height="36.71313537098467" transform="matrix(4.632628, 0.000000, 0.000000, 4.632628, 500.939758, 561.319885)" style="fill:#E5E5E5;" />
	<rect x="-64.70925263594836" y="-12.240608024410903" width="129.41850527189672" height="24.481216048821807" transform="matrix(4.632628, 0.000000, 0.000000, 4.632628, 500.939758, 451.262390)" style="fill:#9B9A9C;" />
	<path d="M-73.45893096923828,-19.5792179107666 Q-58.905059814453125,7.26882791519165 -46.661903381347656,7.26882791519165 Q-34.41874694824219,7.26882791519165 -24.486310958862305,-19.5792179107666 Q-10.089821815490723,0.8108277320861816 2.153334140777588,0.8108277320861816 Q14.396489143371582,0.8108277320861816 24.486310958862305,-19.5792179107666 Q39.673641204833984,-8.599254608154297 51.91680145263672,-8.599254608154297 Q66.08097076416016,4.681817054748535 75.37994384765625,-6.298147201538086 Q78.91671752929688,-10.280191421508789 89.23886108398438,-23.56126594543457 C85.4988784790039,-17.420255661010742 89.66616821289062,0.3556590974330902 97.94524383544922,-4.89480447769165 Q97.94524383544922,-2.447402238845825 97.94524383544922,0.0 Q97.94524383544922,2.447402238845825 97.94524383544922,4.89480447769165 Q97.94524383544922,7.342206954956055 97.94524383544922,9.7896089553833 Q97.94524383544922,12.237011909484863 97.94524383544922,14.68441390991211 Q97.94524383544922,17.131816864013672 97.94524383544922,19.5792179107666 Q85.70208740234375,19.5792179107666 73.45893096923828,19.5792179107666 Q61.21577453613281,19.5792179107666 48.97262191772461,19.5792179107666 Q36.72946548461914,19.5792179107666 24.486310958862305,19.5792179107666 Q12.243155479431152,19.5792179107666 0.0,19.5792179107666 Q-12.243155479431152,19.5792179107666 -24.486310958862305,19.5792179107666 Q-36.72946548461914,19.5792179107666 -48.97262191772461,19.5792179107666 Q-61.21577453613281,19.5792179107666 -73.45893096923828,19.5792179107666 Q-85.70208740234375,19.5792179107666 -97.94524383544922,19.5792179107666 Q-97.94524383544922,17.131816864013672 -97.94524383544922,14.68441390991211 Q-97.94524383544922,12.237011909484863 -97.94524383544922,9.7896089553833 Q-97.94524383544922,7.342206954956055 -97.94524383544922,4.89480447769165 Q-97.94524383544922,2.447402238845825 -97.94524383544922,0.0 Q-97.94524383544922,-2.447402238845825 -97.94524383544922,-4.89480447769165 C-97.94524383544922,-7.342206954956055 -90.64389038085938,-6.033944129943848 -73.45893096923828,-19.5792179107666 Z" transform="matrix(3.059045, 0.000000, 0.000000, 3.059045, 500.784760, 473.024902)" style="fill:#000000;" />
	<path d="M-73.45893096923828,-19.5792179107666 Q-58.905059814453125,7.26882791519165 -46.661903381347656,7.26882791519165 Q-34.41874694824219,7.26882791519165 -24.486310958862305,-19.5792179107666 Q-10.089821815490723,0.8108277320861816 2.153334140777588,0.8108277320861816 Q14.396489143371582,0.8108277320861816 24.486310958862305,-19.5792179107666 Q39.673641204833984,-8.599254608154297 51.91680145263672,-8.599254608154297 Q66.08097076416016,4.681817054748535 75.37994384765625,-6.298147201538086 Q78.91671752929688,-10.280191421508789 89.23886108398438,-23.56126594543457 C85.4988784790039,-17.420255661010742 89.66616821289062,0.3556590974330902 97.94524383544922,-4.89480447769165 Q97.94524383544922,-2.447402238845825 97.94524383544922,0.0 Q97.94524383544922,2.447402238845825 97.94524383544922,4.89480447769165 Q97.94524383544922,7.342206954956055 97.94524383544922,9.7896089553833 Q97.94524383544922,12.237011909484863 97.94524383544922,14.68441390991211 Q97.94524383544922,17.131816864013672 97.94524383544922,19.5792179107666 Q85.70208740234375,19.5792179107666 73.45893096923828,19.5792179107666 Q61.21577453613281,19.5792179107666 48.97262191772461,19.5792179107666 Q36.72946548461914,19.5792179107666 24.486310958862305,19.5792179107666 Q12.243155479431152,19.5792179107666 0.0,19.5792179107666 Q-12.243155479431152,19.5792179107666 -24.486310958862305,19.5792179107666 Q-36.72946548461914,19.5792179107666 -48.97262191772461,19.5792179107666 Q-61.21577453613281,19.5792179107666 -73.45893096923828,19.5792179107666 Q-85.70208740234375,19.5792179107666 -97.94524383544922,19.5792179107666 Q-97.94524383544922,17.131816864013672 -97.94524383544922,14.68441390991211 Q-97.94524383544922,12.237011909484863 -97.94524383544922,9.7896089553833 Q-97.94524383544922,7.342206954956055 -97.94524383544922,4.89480447769165 Q-97.94524383544922,2.447402238845825 -97.94524383544922,0.0 Q-97.94524383544922,-2.447402238845825 -97.94524383544922,-4.89480447769165 C-97.94524383544922,-7.342206954956055 -90.64389038085938,-6.033944129943848 -73.45893096923828,-19.5792179107666 Z" transform="matrix(3.064038, 0.000000, 0.000000, 3.059045, 501.273682, 473.024902)" style="fill:#000000;" />
	<path d="M-73.45893096923828,-19.5792179107666 Q-58.905059814453125,7.26882791519165 -46.661903381347656,7.26882791519165 Q-34.41874694824219,7.26882791519165 -24.486310958862305,-19.5792179107666 Q-10.089821815490723,0.8108277320861816 2.153334140777588,0.8108277320861816 Q14.396489143371582,0.8108277320861816 24.486310958862305,-19.5792179107666 Q39.673641204833984,-8.599254608154297 51.91680145263672,-8.599254608154297 Q66.08097076416016,4.681817054748535 75.37994384765625,-6.298147201538086 Q78.91671752929688,-10.280191421508789 89.23886108398438,-23.56126594543457 C85.4988784790039,-17.420255661010742 89.66616821289062,0.3556590974330902 97.94524383544922,-4.89480447769165 Q97.94524383544922,-2.447402238845825 97.94524383544922,0.0 Q97.94524383544922,2.447402238845825 97.94524383544922,4.89480447769165 Q97.94524383544922,7.342206954956055 97.94524383544922,9.7896089553833 Q97.94524383544922,12.237011909484863 97.94524383544922,14.68441390991211 Q97.94524383544922,17.131816864013672 97.94524383544922,19.5792179107666 Q94.2507095336914,-1.2500011920928955 82.00755310058594,-1.2500011920928955 Q75.88597106933594,-1.2500011920928955 67.62723541259766,3.957303762435913 Q49.35139083862305,-3.1569180488586426 44.68773651123047,0.7485605478286743 Q40.02408218383789,4.654038906097412 48.97262191772461,19.5792179107666 Q31.725942611694336,1.134703516960144 25.604360580444336,1.134703516960144 Q19.4827880859375,1.134703516960144 24.486310958862305,19.5792179107666 Q15.326454162597656,12.506169319152832 9.204878807067871,12.506169319152832 Q3.0833003520965576,12.506169319152832 0.0,19.5792179107666 Q-6.121577739715576,19.5792179107666 -12.243155479431152,19.5792179107666 Q-18.190582275390625,7.726089954376221 -24.31216049194336,7.726089954376221 Q-36.55531692504883,7.726089954376221 -48.97262191772461,19.5792179107666 Q-61.287479400634766,7.687671184539795 -67.40906524658203,7.687671184539795 Q-73.53064727783203,7.687671184539795 -73.45893096923828,19.5792179107666 Q-72.802978515625,-4.103879928588867 -78.92455291748047,-4.103879928588867 Q-85.04613494873047,-4.103879928588867 -97.94524383544922,19.5792179107666 Q-97.94524383544922,17.131816864013672 -97.94524383544922,14.68441390991211 Q-97.94524383544922,12.237011909484863 -97.94524383544922,9.7896089553833 Q-97.94524383544922,7.342206954956055 -97.94524383544922,4.89480447769165 Q-97.94524383544922,2.447402238845825 -97.94524383544922,0.0 Q-97.94524383544922,-2.447402238845825 -97.94524383544922,-4.89480447769165 C-97.94524383544922,-7.342206954956055 -90.64389038085938,-6.033944129943848 -73.45893096923828,-19.5792179107666 Z" transform="matrix(3.059045, 0.000000, 0.000000, 3.059045, 500.784760, 473.024902)" style="fill:#FFFFFF;" />
	<path d="M-73.45893096923828,-19.5792179107666 Q-58.905059814453125,7.26882791519165 -46.661903381347656,7.26882791519165 Q-34.41874694824219,7.26882791519165 -24.486310958862305,-19.5792179107666 Q-10.089821815490723,0.8108277320861816 2.153334140777588,0.8108277320861816 Q14.396489143371582,0.8108277320861816 24.486310958862305,-19.5792179107666 Q39.673641204833984,-8.599254608154297 51.91680145263672,-8.599254608154297 Q66.08097076416016,4.681817054748535 75.37994384765625,-6.298147201538086 Q78.91671752929688,-10.280191421508789 89.23886108398438,-23.56126594543457 C85.4988784790039,-17.420255661010742 89.66616821289062,0.3556590974330902 97.94524383544922,-4.89480447769165 Q97.94524383544922,-2.447402238845825 97.94524383544922,0.0 Q97.94524383544922,2.447402238845825 97.94524383544922,4.89480447769165 Q97.94524383544922,7.342206954956055 97.94524383544922,9.7896089553833 Q97.94524383544922,12.237011909484863 97.94524383544922,14.68441390991211 Q97.94524383544922,17.131816864013672 97.94524383544922,19.5792179107666 Q94.2507095336914,-1.2500011920928955 82.00755310058594,-1.2500011920928955 Q75.88597106933594,-1.2500011920928955 67.62723541259766,3.957303762435913 Q49.35139083862305,-3.1569180488586426 44.68773651123047,0.7485605478286743 Q40.02408218383789,4.654038906097412 48.97262191772461,19.5792179107666 Q31.725942611694336,1.134703516960144 25.604360580444336,1.134703516960144 Q19.4827880859375,1.134703516960144 24.486310958862305,19.5792179107666 Q15.326454162597656,12.506169319152832 9.204878807067871,12.506169319152832 Q3.0833003520965576,12.506169319152832 0.0,19.5792179107666 Q-6.121577739715576,19.5792179107666 -12.243155479431152,19.5792179107666 Q-18.190582275390625,7.726089954376221 -24.31216049194336,7.726089954376221 Q-36.55531692504883,7.726089954376221 -48.97262191772461,19.5792179107666 Q-61.287479400634766,7.687671184539795 -67.40906524658203,7.687671184539795 Q-73.53064727783203,7.687671184539795 -73.45893096923828,19.5792179107666 Q-72.802978515625,-4.103879928588867 -78.92455291748047,-4.103879928588867 Q-85.04613494873047,-4.103879928588867 -97.94524383544922,19.5792179107666 Q-97.94524383544922,17.131816864013672 -97.94524383544922,14.68441390991211 Q-97.94524383544922,12.237011909484863 -97.94524383544922,9.7896089553833 Q-97.94524383544922,7.342206954956055 -97.94524383544922,4.89480447769165 Q-97.94524383544922,2.447402238845825 -97.94524383544922,0.0 Q-97.94524383544922,-2.447402238845825 -97.94524383544922,-4.89480447769165 C-97.94524383544922,-7.342206954956055 -90.64389038085938,-6.033944129943848 -73.45893096923828,-19.5792179107666 Z" transform="matrix(3.064037, 0.000000, 0.000000, 3.059045, 501.273682, 473.024902)" style="fill:#FFFFFF;" />
	<g transform="matrix(2.066139, 0.000000, 0.000000, 2.066139, -127.290779, -385.902008)">
		<path d="M320.875,476.80859375 L320.875,560.01953125 L320.875,601.625 L320.875,622.427734375 L320.875,632.8291015625 Q320.875,643.23046875 329.18994140625,643.23046875 L337.5049133300781,643.23046875 L354.1347351074219,643.23046875 L387.39453125,643.23046875 Q387.39453125,553.3515625 400.9042663574219,553.3515625 L407.658203125,553.3515625 L421.16796875,553.3515625 L427.923828125,553.3515625 Q441.4335632324219,553.3515625 441.4335632324219,643.23046875 L474.693359375,643.23046875 L491.3232421875,643.23046875 L499.6382141113281,643.23046875 Q507.953125,643.23046875 507.953125,632.8291015625 L507.953125,622.427734375 L507.953125,601.625 L507.953125,560.01953125 L507.953125,476.80859375 L320.875,476.80859375 Z" fill-rule="evenodd" transform="matrix(0.344218, 0.000000, 0.000000, 0.257023, 153.717529, 332.704254)" style="fill:#000000;" />
		<path d="M413.9745788574219,395.6171875 C370.8762512207031,396.44775390625 327.92425537109375,449.1067199707031 285.140625,551.1034545898438 L543.6875,551.1034545898438 C500.318359375,445.784423828125 457.07293701171875,394.7865905761719 413.9745788574219,395.6171875 Z" fill-rule="evenodd" transform="matrix(0.344218, 0.000000, 0.000000, 0.344218, 153.717529, 276.617767)" style="fill:url(#9a22d507-a36b-471a-8f8f-61c70d849637);" />
		<path d="M413.9745788574219,395.6171875 C408.5872497558594,395.72100830078125 403.2023010253906,396.6346435546875 397.819580078125,398.3532409667969 C392.4369201660156,400.0718078613281 387.0565490722656,402.5953674316406 381.6786193847656,405.9189758300781 C376.3006286621094,409.2426452636719 370.925048828125,413.3663635253906 365.5518493652344,418.2853088378906 C360.17864990234375,423.20428466796875 354.80792236328125,428.9184875488281 349.4395751953125,435.4230041503906 C344.0712585449219,441.92755126953125 338.7054443359375,449.22247314453125 333.3420715332031,457.3028259277344 C327.9787292480469,465.38323974609375 322.6178894042969,474.24908447265625 317.2595520019531,483.8956604003906 C311.9012756347656,493.5422058105469 306.5455017089844,503.9693603515625 301.19232177734375,515.1722412109375 C295.83917236328125,526.3751831054688 290.48858642578125,538.3538208007812 285.140625,551.1034545898438 C317.4589538574219,551.1034545898438 339.28167724609375,516.9573364257812 361.5728759765625,512.6846923828125 C383.86407470703125,508.4119567871094 410.689697265625,547.3406982421875 424.4720153808594,540.0198364257812 C438.25433349609375,532.698974609375 410.4349365234375,446.0357360839844 450.8875427246094,501.6875915527344 C491.3401794433594,557.3394775390625 488.5038146972656,533.8552856445312 462.6745300292969,473.048828125 C436.8453063964844,412.2424011230469 462.8885803222656,443.7414855957031 477.1872253417969,455.4330749511719 C491.4859313964844,467.1247253417969 491.2544860839844,445.67071533203125 473.1840515136719,426.7974548339844 C455.11358642578125,407.9241638183594 447.70208740234375,403.61370849609375 439.12646484375,400.1647033691406 C430.55084228515625,396.71575927734375 419.67779541015625,395.1442565917969 413.9745788574219,395.6171875 Z" fill-rule="evenodd" transform="matrix(0.344218, 0.000000, 0.000000, 0.344218, 153.717529, 276.617767)" style="fill:url(#8b8fef60-1af7-4291-989c-17776c5337ac);" />
	</g>
	<g transform="matrix(0.968682, 0.000000, 0.000000, 0.968682, -27.440573, 98.344299)">
		<path d="M320.875,476.80859375 L320.875,560.01953125 L320.875,601.625 L320.875,622.427734375 L320.875,632.8291015625 Q320.875,643.23046875 329.18994140625,643.23046875 L337.5049133300781,643.23046875 L354.1347351074219,643.23046875 L387.39453125,643.23046875 Q387.39453125,553.3515625 400.9042663574219,553.3515625 L407.658203125,553.3515625 L421.16796875,553.3515625 L427.923828125,553.3515625 Q441.4335632324219,553.3515625 441.4335632324219,643.23046875 L474.693359375,643.23046875 L491.3232421875,643.23046875 L499.6382141113281,643.23046875 Q507.953125,643.23046875 507.953125,632.8291015625 L507.953125,622.427734375 L507.953125,601.625 L507.953125,560.01953125 L507.953125,476.80859375 L320.875,476.80859375 Z" fill-rule="evenodd" transform="matrix(0.344218, 0.000000, 0.000000, 0.257023, 153.717529, 332.704254)" style="fill:#000000;" />
		<path d="M413.9745788574219,395.6171875 C370.8762512207031,396.44775390625 327.92425537109375,449.1067199707031 285.140625,551.1034545898438 L543.6875,551.1034545898438 C500.318359375,445.784423828125 457.07293701171875,394.7865905761719 413.9745788574219,395.6171875 Z" fill-rule="evenodd" transform="matrix(0.344218, 0.000000, 0.000000, 0.344218, 153.717529, 276.617767)" style="fill:url(#dce4298e-0b9a-4304-947d-06f561f17346);" />
		<path d="M413.9745788574219,395.6171875 C408.5872497558594,395.72100830078125 403.2023010253906,396.6346435546875 397.819580078125,398.3532409667969 C392.4369201660156,400.0718078613281 387.0565490722656,402.5953674316406 381.6786193847656,405.9189758300781 C376.3006286621094,409.2426452636719 370.925048828125,413.3663635253906 365.5518493652344,418.2853088378906 C360.17864990234375,423.20428466796875 354.80792236328125,428.9184875488281 349.4395751953125,435.4230041503906 C344.0712585449219,441.92755126953125 338.7054443359375,449.22247314453125 333.3420715332031,457.3028259277344 C327.9787292480469,465.38323974609375 322.6178894042969,474.24908447265625 317.2595520019531,483.8956604003906 C311.9012756347656,493.5422058105469 306.5455017089844,503.9693603515625 301.19232177734375,515.1722412109375 C295.83917236328125,526.3751831054688 290.48858642578125,538.3538208007812 285.140625,551.1034545898438 C317.4589538574219,551.1034545898438 339.28167724609375,516.9573364257812 361.5728759765625,512.6846923828125 C383.86407470703125,508.4119567871094 410.689697265625,547.3406982421875 424.4720153808594,540.0198364257812 C438.25433349609375,532.698974609375 410.4349365234375,446.0357360839844 450.8875427246094,501.6875915527344 C491.3401794433594,557.3394775390625 488.5038146972656,533.8552856445312 462.6745300292969,473.048828125 C436.8453063964844,412.2424011230469 462.8885803222656,443.7414855957031 477.1872253417969,455.4330749511719 C491.4859313964844,467.1247253417969 491.2544860839844,445.67071533203125 473.1840515136719,426.7974548339844 C455.11358642578125,407.9241638183594 447.70208740234375,403.61370849609375 439.12646484375,400.1647033691406 C430.55084228515625,396.71575927734375 419.67779541015625,395.1442565917969 413.9745788574219,395.6171875 Z" fill-rule="evenodd" transform="matrix(0.344218, 0.000000, 0.000000, 0.344218, 153.717529, 276.617767)" style="fill:url(#cc763058-c74c-4660-80f3-1673632c1fc1);" />
	</g>
	<g transform="matrix(0.705695, 0.000000, 0.000000, 0.705695, 128.632156, 208.580673)">
		<path d="M320.875,476.80859375 L320.875,560.01953125 L320.875,601.625 L320.875,622.427734375 L320.875,632.8291015625 Q320.875,643.23046875 329.18994140625,643.23046875 L337.5049133300781,643.23046875 L354.1347351074219,643.23046875 L387.39453125,643.23046875 Q387.39453125,553.3515625 400.9042663574219,553.3515625 L407.658203125,553.3515625 L421.16796875,553.3515625 L427.923828125,553.3515625 Q441.4335632324219,553.3515625 441.4335632324219,643.23046875 L474.693359375,643.23046875 L491.3232421875,643.23046875 L499.6382141113281,643.23046875 Q507.953125,643.23046875 507.953125,632.8291015625 L507.953125,622.427734375 L507.953125,601.625 L507.953125,560.01953125 L507.953125,476.80859375 L320.875,476.80859375 Z" fill-rule="evenodd" transform="matrix(0.344218, 0.000000, 0.000000, 0.257023, 153.717529, 332.704254)" style="fill:#000000;" />
		<path d="M413.9745788574219,395.6171875 C370.8762512207031,396.44775390625 327.92425537109375,449.1067199707031 285.140625,551.1034545898438 L543.6875,551.1034545898438 C500.318359375,445.784423828125 457.07293701171875,394.7865905761719 413.9745788574219,395.6171875 Z" fill-rule="evenodd" transform="matrix(0.344218, 0.000000, 0.000000, 0.344218, 153.717529, 276.617767)" style="fill:url(#f3a2f059-49d3-4690-85d3-9436b4caa05c);" />
		<path d="M413.9745788574219,395.6171875 C408.5872497558594,395.72100830078125 403.2023010253906,396.6346435546875 397.819580078125,398.3532409667969 C392.4369201660156,400.0718078613281 387.0565490722656,402.5953674316406 381.6786193847656,405.9189758300781 C376.3006286621094,409.2426452636719 370.925048828125,413.3663635253906 365.5518493652344,418.2853088378906 C360.17864990234375,423.20428466796875 354.80792236328125,428.9184875488281 349.4395751953125,435.4230041503906 C344.0712585449219,441.92755126953125 338.7054443359375,449.22247314453125 333.3420715332031,457.3028259277344 C327.9787292480469,465.38323974609375 322.6178894042969,474.24908447265625 317.2595520019531,483.8956604003906 C311.9012756347656,493.5422058105469 306.5455017089844,503.9693603515625 301.19232177734375,515.1722412109375 C295.83917236328125,526.3751831054688 290.48858642578125,538.3538208007812 285.140625,551.1034545898438 C317.4589538574219,551.1034545898438 339.28167724609375,516.9573364257812 361.5728759765625,512.6846923828125 C383.86407470703125,508.4119567871094 410.689697265625,547.3406982421875 424.4720153808594,540.0198364257812 C438.25433349609375,532.698974609375 410.4349365234375,446.0357360839844 450.8875427246094,501.6875915527344 C491.3401794433594,557.3394775390625 488.5038146972656,533.8552856445312 462.6745300292969,473.048828125 C436.8453063964844,412.2424011230469 462.8885803222656,443.7414855957031 477.1872253417969,455.4330749511719 C491.4859313964844,467.1247253417969 491.2544860839844,445.67071533203125 473.1840515136719,426.7974548339844 C455.11358642578125,407.9241638183594 447.70208740234375,403.61370849609375 439.12646484375,400.1647033691406 C430.55084228515625,396.71575927734375 419.67779541015625,395.1442565917969 413.9745788574219,395.6171875 Z" fill-rule="evenodd" transform="matrix(0.344218, 0.000000, 0.000000, 0.344218, 153.717529, 276.617767)" style="fill:url(#7850d1b0-00ae-414c-9f1f-ae5de82a2818);" />
	</g>
	<g transform="matrix(0.484154, 0.000000, 0.000000, 0.484154, 248.480103, 312.837585)">
		<path d="M320.875,476.80859375 L320.875,560.01953125 L320.875,601.625 L320.875,622.427734375 L320.875,632.8291015625 Q320.875,643.23046875 329.18994140625,643.23046875 L337.5049133300781,643.23046875 L354.1347351074219,643.23046875 L387.39453125,643.23046875 Q387.39453125,553.3515625 400.9042663574219,553.3515625 L407.658203125,553.3515625 L421.16796875,553.3515625 L427.923828125,553.3515625 Q441.4335632324219,553.3515625 441.4335632324219,643.23046875 L474.693359375,643.23046875 L491.3232421875,643.23046875 L499.6382141113281,643.23046875 Q507.953125,643.23046875 507.953125,632.8291015625 L507.953125,622.427734375 L507.953125,601.625 L507.953125,560.01953125 L507.953125,476.80859375 L320.875,476.80859375 Z" fill-rule="evenodd" transform="matrix(0.344218, 0.000000, 0.000000, 0.257023, 153.717529, 332.704254)" style="fill:#000000;" />
		<path d="M413.9745788574219,395.6171875 C370.8762512207031,396.44775390625 327.92425537109375,449.1067199707031 285.140625,551.1034545898438 L543.6875,551.1034545898438 C500.318359375,445.784423828125 457.07293701171875,394.7865905761719 413.9745788574219,395.6171875 Z" fill-rule="evenodd" transform="matrix(0.344218, 0.000000, 0.000000, 0.344218, 153.717529, 276.617767)" style="fill:url(#4ee0b057-3ea7-4842-87f7-b922ff96a05c);" />
		<path d="M413.9745788574219,395.6171875 C408.5872497558594,395.72100830078125 403.2023010253906,396.6346435546875 397.819580078125,398.3532409667969 C392.4369201660156,400.0718078613281 387.0565490722656,402.5953674316406 381.6786193847656,405.9189758300781 C376.3006286621094,409.2426452636719 370.925048828125,413.3663635253906 365.5518493652344,418.2853088378906 C360.17864990234375,423.20428466796875 354.80792236328125,428.9184875488281 349.4395751953125,435.4230041503906 C344.0712585449219,441.92755126953125 338.7054443359375,449.22247314453125 333.3420715332031,457.3028259277344 C327.9787292480469,465.38323974609375 322.6178894042969,474.24908447265625 317.2595520019531,483.8956604003906 C311.9012756347656,493.5422058105469 306.5455017089844,503.9693603515625 301.19232177734375,515.1722412109375 C295.83917236328125,526.3751831054688 290.48858642578125,538.3538208007812 285.140625,551.1034545898438 C317.4589538574219,551.1034545898438 339.28167724609375,516.9573364257812 361.5728759765625,512.6846923828125 C383.86407470703125,508.4119567871094 410.689697265625,547.3406982421875 424.4720153808594,540.0198364257812 C438.25433349609375,532.698974609375 410.4349365234375,446.0357360839844 450.8875427246094,501.6875915527344 C491.3401794433594,557.3394775390625 488.5038146972656,533.8552856445312 462.6745300292969,473.048828125 C436.8453063964844,412.2424011230469 462.8885803222656,443.7414855957031 477.1872253417969,455.4330749511719 C491.4859313964844,467.1247253417969 491.2544860839844,445.67071533203125 473.1840515136719,426.7974548339844 C455.11358642578125,407.9241638183594 447.70208740234375,403.61370849609375 439.12646484375,400.1647033691406 C430.55084228515625,396.71575927734375 419.67779541015625,395.1442565917969 413.9745788574219,395.6171875 Z" fill-rule="evenodd" transform="matrix(0.344218, 0.000000, 0.000000, 0.344218, 153.717529, 276.617767)" style="fill:url(#7a4ddfc9-6664-47e1-ade5-d878d5d9efa3);" />
	</g>
	<g transform="matrix(0.794489, 0.000000, 0.000000, 0.794489, 388.310150, 171.109253)">
		<path d="M320.875,476.80859375 L320.875,560.01953125 L320.875,601.625 L320.875,622.427734375 L320.875,632.8291015625 Q320.875,643.23046875 329.18994140625,643.23046875 L337.5049133300781,643.23046875 L354.1347351074219,643.23046875 L387.39453125,643.23046875 Q387.39453125,553.3515625 400.9042663574219,553.3515625 L407.658203125,553.3515625 L421.16796875,553.3515625 L427.923828125,553.3515625 Q441.4335632324219,553.3515625 441.4335632324219,643.23046875 L474.693359375,643.23046875 L491.3232421875,643.23046875 L499.6382141113281,643.23046875 Q507.953125,643.23046875 507.953125,632.8291015625 L507.953125,622.427734375 L507.953125,601.625 L507.953125,560.01953125 L507.953125,476.80859375 L320.875,476.80859375 Z" fill-rule="evenodd" transform="matrix(0.344218, 0.000000, 0.000000, 0.257023, 153.717529, 332.704254)" style="fill:#000000;" />
		<path d="M413.9745788574219,395.6171875 C370.8762512207031,396.44775390625 327.92425537109375,449.1067199707031 285.140625,551.1034545898438 L543.6875,551.1034545898438 C500.318359375,445.784423828125 457.07293701171875,394.7865905761719 413.9745788574219,395.6171875 Z" fill-rule="evenodd" transform="matrix(0.344218, 0.000000, 0.000000, 0.344218, 153.717529, 276.617767)" style="fill:url(#78394620-5217-4a3b-8d31-d9598813a7c9);" />
		<path d="M413.9745788574219,395.6171875 C408.5872497558594,395.72100830078125 403.2023010253906,396.6346435546875 397.819580078125,398.3532409667969 C392.4369201660156,400.0718078613281 387.0565490722656,402.5953674316406 381.6786193847656,405.9189758300781 C376.3006286621094,409.2426452636719 370.925048828125,413.3663635253906 365.5518493652344,418.2853088378906 C360.17864990234375,423.20428466796875 354.80792236328125,428.9184875488281 349.4395751953125,435.4230041503906 C344.0712585449219,441.92755126953125 338.7054443359375,449.22247314453125 333.3420715332031,457.3028259277344 C327.9787292480469,465.38323974609375 322.6178894042969,474.24908447265625 317.2595520019531,483.8956604003906 C311.9012756347656,493.5422058105469 306.5455017089844,503.9693603515625 301.19232177734375,515.1722412109375 C295.83917236328125,526.3751831054688 290.48858642578125,538.3538208007812 285.140625,551.1034545898438 C317.4589538574219,551.1034545898438 339.28167724609375,516.9573364257812 361.5728759765625,512.6846923828125 C383.86407470703125,508.4119567871094 410.689697265625,547.3406982421875 424.4720153808594,540.0198364257812 C438.25433349609375,532.698974609375 410.4349365234375,446.0357360839844 450.8875427246094,501.6875915527344 C491.3401794433594,557.3394775390625 488.5038146972656,533.8552856445312 462.6745300292969,473.048828125 C436.8453063964844,412.2424011230469 462.8885803222656,443.7414855957031 477.1872253417969,455.4330749511719 C491.4859313964844,467.1247253417969 491.2544860839844,445.67071533203125 473.1840515136719,426.7974548339844 C455.11358642578125,407.9241638183594 447.70208740234375,403.61370849609375 439.12646484375,400.1647033691406 C430.55084228515625,396.71575927734375 419.67779541015625,395.1442565917969 413.9745788574219,395.6171875 Z" fill-rule="evenodd" transform="matrix(0.344218, 0.000000, 0.000000, 0.344218, 153.717529, 276.617767)" style="fill:url(#11fb96bf-c1e9-425b-91e6-dd4901956f53);" />
	</g>
	<g transform="matrix(1.180254, 0.000000, 0.000000, 1.180254, 388.677765, 11.377645)">
		<path d="M320.875,476.80859375 L320.875,560.01953125 L320.875,601.625 L320.875,622.427734375 L320.875,632.8291015625 Q320.875,643.23046875 329.18994140625,643.23046875 L337.5049133300781,643.23046875 L354.1347351074219,643.23046875 L387.39453125,643.23046875 Q387.39453125,553.3515625 400.9042663574219,553.3515625 L407.658203125,553.3515625 L421.16796875,553.3515625 L427.923828125,553.3515625 Q441.4335632324219,553.3515625 441.4335632324219,643.23046875 L474.693359375,643.23046875 L491.3232421875,643.23046875 L499.6382141113281,643.23046875 Q507.953125,643.23046875 507.953125,632.8291015625 L507.953125,622.427734375 L507.953125,601.625 L507.953125,560.01953125 L507.953125,476.80859375 L320.875,476.80859375 Z" fill-rule="evenodd" transform="matrix(0.344218, 0.000000, 0.000000, 0.257023, 153.717529, 332.704254)" style="fill:#000000;" />
		<path d="M413.9745788574219,395.6171875 C370.8762512207031,396.44775390625 327.92425537109375,449.1067199707031 285.140625,551.1034545898438 L543.6875,551.1034545898438 C500.318359375,445.784423828125 457.07293701171875,394.7865905761719 413.9745788574219,395.6171875 Z" fill-rule="evenodd" transform="matrix(0.344218, 0.000000, 0.000000, 0.344218, 153.717529, 276.617767)" style="fill:url(#7cae8be5-1975-4694-8d63-95b0129ad648);" />
		<path d="M413.9745788574219,395.6171875 C408.5872497558594,395.72100830078125 403.2023010253906,396.6346435546875 397.819580078125,398.3532409667969 C392.4369201660156,400.0718078613281 387.0565490722656,402.5953674316406 381.6786193847656,405.9189758300781 C376.3006286621094,409.2426452636719 370.925048828125,413.3663635253906 365.5518493652344,418.2853088378906 C360.17864990234375,423.20428466796875 354.80792236328125,428.9184875488281 349.4395751953125,435.4230041503906 C344.0712585449219,441.92755126953125 338.7054443359375,449.22247314453125 333.3420715332031,457.3028259277344 C327.9787292480469,465.38323974609375 322.6178894042969,474.24908447265625 317.2595520019531,483.8956604003906 C311.9012756347656,493.5422058105469 306.5455017089844,503.9693603515625 301.19232177734375,515.1722412109375 C295.83917236328125,526.3751831054688 290.48858642578125,538.3538208007812 285.140625,551.1034545898438 C317.4589538574219,551.1034545898438 339.28167724609375,516.9573364257812 361.5728759765625,512.6846923828125 C383.86407470703125,508.4119567871094 410.689697265625,547.3406982421875 424.4720153808594,540.0198364257812 C438.25433349609375,532.698974609375 410.4349365234375,446.0357360839844 450.8875427246094,501.6875915527344 C491.3401794433594,557.3394775390625 488.5038146972656,533.8552856445312 462.6745300292969,473.048828125 C436.8453063964844,412.2424011230469 462.8885803222656,443.7414855957031 477.1872253417969,455.4330749511719 C491.4859313964844,467.1247253417969 491.2544860839844,445.67071533203125 473.1840515136719,426.7974548339844 C455.11358642578125,407.9241638183594 447.70208740234375,403.61370849609375 439.12646484375,400.1647033691406 C430.55084228515625,396.71575927734375 419.67779541015625,395.1442565917969 413.9745788574219,395.6171875 Z" fill-rule="evenodd" transform="matrix(0.344218, 0.000000, 0.000000, 0.344218, 153.717529, 276.617767)" style="fill:url(#40b316b8-ac7c-4451-aa3f-3b822f804c2a);" />
	</g>
</svg>