<?xml version="1.0" encoding="UTF-8"?>
<!-- Created with Grafika (https://www.grafika.cc/) -->
<svg version="1.0" xmlns="http://www.w3.org/2000/svg" xmlns:svg="http://www.w3.org/2000/svg" width="535" height="211" viewBox="-342.158630 -1388.476807 534.990524 210.665894" preserveAspectRatio="xMinYMin meet">
	<path d="M-77.58984375,-248.015625 C-86.13776397705078,-248.015625 -93.068359375,-241.08505249023438 -93.068359375,-232.537109375 C-93.068359375,-223.98915100097656 -86.13776397705078,-217.06053161621094 -77.58984375,-217.06053161621094 C-69.48251342773438,-217.06053161621094 -62.84382629394531,-223.29672241210938 -62.1796875,-231.232421875 C-62.833213806152344,-224.8473663330078 -68.2275390625,-219.865234375 -74.78515625,-219.865234375 C-81.78359985351562,-219.865234375 -87.45703125,-225.53866577148438 -87.45703125,-232.537109375 C-87.45703125,-239.53553771972656 -81.78359985351562,-245.208984375 -74.78515625,-245.208984375 C-68.22819519042969,-245.208984375 -62.834110260009766,-240.22979736328125 -62.1796875,-233.845703125 C-62.84566116333008,-241.77957153320312 -69.48382568359375,-248.015625 -77.58984375,-248.015625 Z" fill-rule="evenodd" transform="matrix(2.769991, 0.000000, 0.000000, 2.769991, 364.598053, -698.325317)" style="fill:#000000;" />
	<path d="M27.183591842651367,-409.4375 C18.635671615600586,-409.4375 11.70703125,-402.5088195800781 11.70703125,-393.9609375 C11.70703125,-385.4129943847656 18.635671615600586,-378.482421875 27.183591842651367,-378.482421875 C34.32563400268555,-378.482421875 40.321014404296875,-383.3271179199219 42.10546875,-389.904296875 C40.397308349609375,-384.6658630371094 35.47855758666992,-380.8769226074219 29.669921875,-380.8769226074219 C22.444189071655273,-380.8769226074219 16.5859375,-386.7351989746094 16.5859375,-393.9609375 C16.5859375,-401.1866455078125 22.444189071655273,-407.0429382324219 29.669921875,-407.0429382324219 C35.47758483886719,-407.0429382324219 40.394561767578125,-403.2566223144531 42.103515625,-398.01953125 C40.317893981933594,-404.594970703125 34.32438659667969,-409.4375 27.183591842651367,-409.4375 Z" fill-rule="evenodd" transform="matrix(2.769991, 0.000000, 0.000000, 2.769991, -371.022644, -129.898163)" style="fill:#000000;" />
	<path d="M19.99609375,-328.8593444824219 C11.44817066192627,-328.8593444824219 4.517578125,-321.93072509765625 4.517578125,-313.3828125 C4.517578125,-304.83489990234375 11.44817066192627,-297.904296875 19.99609375,-297.904296875 C28.544015884399414,-297.904296875 35.47265625,-304.83489990234375 35.47265625,-313.3828125 C35.47265625,-321.93072509765625 28.544015884399414,-328.8593444824219 19.99609375,-328.8593444824219 ZM21.7890625,-326.0546875 C28.787506103515625,-326.0546875 34.4609375,-320.3812561035156 34.4609375,-313.3828125 C34.4609375,-306.3843688964844 28.787506103515625,-300.7109375 21.7890625,-300.7109375 C14.790618896484375,-300.7109375 9.1171875,-306.3843688964844 9.1171875,-313.3828125 C9.1171875,-320.3812561035156 14.790618896484375,-326.0546875 21.7890625,-326.0546875 Z" fill-rule="evenodd" transform="matrix(2.769991, 0.000000, 0.000000, 2.769991, -214.123322, -474.910522)" style="fill:#000000;" />
	<path d="M70.783203125,-333.01171875 C62.23527908325195,-333.01171875 55.306640625,-326.08111572265625 55.306640625,-317.53314208984375 C55.306640625,-308.98529052734375 62.23527908325195,-302.056640625 70.783203125,-302.056640625 C79.33112335205078,-302.056640625 86.26171875,-308.98529052734375 86.26171875,-317.53314208984375 C86.26171875,-326.08111572265625 79.33112335205078,-333.01171875 70.783203125,-333.01171875 ZM70.783203125,-328.82421875 C77.01895904541016,-328.82421875 82.07421875,-323.7689514160156 82.07421875,-317.53314208984375 C82.07421875,-311.2974548339844 77.01895904541016,-306.2421875 70.783203125,-306.2421875 C64.54743957519531,-306.2421875 59.4921875,-311.2974548339844 59.4921875,-317.53314208984375 C59.4921875,-323.7689514160156 64.54743957519531,-328.82421875 70.783203125,-328.82421875 Z" fill-rule="evenodd" transform="matrix(2.769991, 0.000000, 0.000000, 2.769991, -495.357544, -466.037292)" style="fill:#000000;" />
	<path d="M99.75,-408.734375 C91.20207977294922,-408.734375 84.27147674560547,-401.80572509765625 84.27147674560547,-393.2578125 C84.27147674560547,-384.7098388671875 91.20207977294922,-377.7792053222656 99.75,-377.7792053222656 C100.40240478515625,-377.7792053222656 101.04067993164062,-377.8337097167969 101.671875,-377.9120788574219 C95.15807342529297,-379.972900390625 90.43553924560547,-386.0623779296875 90.43553924560547,-393.2578125 C90.43553924560547,-400.4532165527344 95.15807342529297,-406.54071044921875 101.671875,-408.6015930175781 C101.04067993164062,-408.679931640625 100.40240478515625,-408.734375 99.75,-408.734375 Z" fill-rule="evenodd" transform="matrix(2.769991, 0.000000, 0.000000, 2.769991, -88.798294, -133.834259)" style="fill:#000000;" />
	<path d="M12.841795921325684,-377.2050476074219 C4.2938737869262695,-377.2050476074219 -2.63671875,-370.27642822265625 -2.63671875,-361.7284851074219 C-2.63671875,-353.1805725097656 4.2938737869262695,-346.25 12.841795921325684,-346.25 C15.312150955200195,-346.25 17.613739013671875,-346.8827819824219 19.685544967651367,-347.912109375 C18.97987937927246,-347.80255126953125 18.26371955871582,-347.728515625 17.52734375,-347.728515625 C9.795635223388672,-347.728515625 3.52734375,-353.9967956542969 3.52734375,-361.7284851074219 C3.52734375,-369.4602355957031 9.795635223388672,-375.7284851074219 17.52734375,-375.7284851074219 C18.26371955871582,-375.7284851074219 18.97987937927246,-375.6544494628906 19.685544967651367,-375.54486083984375 C17.613739013671875,-376.5742492675781 15.312151908874512,-377.2050476074219 12.841795921325684,-377.2050476074219 Z" fill-rule="evenodd" transform="matrix(2.769991, 0.000000, 0.000000, 2.769991, 39.195374, -222.130737)" style="fill:#000000;" />
	<path d="M-20.52734375,-327.876953125 C-29.075267791748047,-327.876953125 -36.005859375,-320.94830322265625 -36.005859375,-312.4003601074219 C-36.005859375,-303.85247802734375 -29.075267791748047,-296.921875 -20.52734375,-296.921875 C-11.97942066192627,-296.921875 -5.05078125,-303.85247802734375 -5.05078125,-312.4003601074219 C-5.05078125,-320.94830322265625 -11.97942066192627,-327.876953125 -20.52734375,-327.876953125 ZM-18.068359375,-325.07220458984375 C-11.069915771484375,-325.07220458984375 -5.396484375,-319.3988342285156 -5.396484375,-312.4003601074219 C-5.396484375,-305.4019470214844 -11.069915771484375,-299.7284851074219 -18.068359375,-299.7284851074219 C-25.066802978515625,-299.7284851074219 -30.740232467651367,-305.4019470214844 -30.740232467651367,-312.4003601074219 C-30.740232467651367,-319.3988342285156 -25.066802978515625,-325.07220458984375 -18.068359375,-325.07220458984375 Z" fill-rule="evenodd" transform="matrix(2.769991, 0.000000, 0.000000, 2.769991, 57.352055, -477.064087)" style="fill:#000000;" />
	<path d="M-133.8515625,-327.0917663574219 C-142.3994903564453,-327.0917663574219 -149.330078125,-320.16314697265625 -149.330078125,-311.6152038574219 C-149.330078125,-303.06732177734375 -142.3994903564453,-296.13671875 -133.8515625,-296.13671875 C-129.4593048095703,-296.13671875 -125.51628112792969,-297.98516845703125 -122.69921875,-300.9237976074219 C-124.65644073486328,-299.6859130859375 -126.95821380615234,-298.9433288574219 -129.4453125,-298.9433288574219 C-136.44375610351562,-298.9433288574219 -142.1171875,-304.6167907714844 -142.1171875,-311.6152038574219 C-142.1171875,-318.6136474609375 -136.44375610351562,-324.2870788574219 -129.4453125,-324.2870788574219 C-126.95887756347656,-324.2870788574219 -124.65807342529297,-323.54388427734375 -122.70115661621094,-322.306640625 C-125.51811981201172,-325.2441101074219 -129.46029663085938,-327.0917663574219 -133.8515625,-327.0917663574219 Z" fill-rule="evenodd" transform="matrix(2.769991, 0.000000, 0.000000, 2.769991, 326.026947, -357.514862)" style="fill:#000000;" />
	<path d="M-95.111328125,-328.423828125 C-103.65924835205078,-328.423828125 -110.58786010742188,-321.49517822265625 -110.58786010742188,-312.947265625 C-110.58786010742188,-304.39935302734375 -103.65924835205078,-297.46875 -95.111328125,-297.46875 C-89.39024353027344,-297.46875 -84.45024871826172,-300.6087341308594 -81.771484375,-305.224609375 C-84.08941650390625,-302.23358154296875 -87.67696380615234,-300.275390625 -91.75389862060547,-300.275390625 C-98.7523422241211,-300.275390625 -104.42382049560547,-305.9488220214844 -104.42382049560547,-312.947265625 C-104.42382049560547,-319.9456787109375 -98.7523422241211,-325.619140625 -91.75389862060547,-325.619140625 C-87.67633819580078,-325.619140625 -84.08740997314453,-323.6597900390625 -81.76953125,-320.66796875 C-84.44805145263672,-325.2848205566406 -89.38951110839844,-328.423828125 -95.111328125,-328.423828125 Z" fill-rule="evenodd" transform="matrix(2.769991, 0.000000, 0.000000, 2.769991, 99.859703, -355.477753)" style="fill:#000000;" />
</svg>