<?xml version="1.0" encoding="UTF-8"?>
<!-- Created with Grafika (https://www.grafika.cc/) -->
<svg version="1.0" xmlns="http://www.w3.org/2000/svg" xmlns:svg="http://www.w3.org/2000/svg" width="556" height="224" viewBox="-351.089813 -1389.698608 555.597458 223.663452" preserveAspectRatio="xMinYMin meet">
	<rect x="-50.0" y="-50.0" width="100.0" height="100.0" transform="matrix(0.751146, 0.000000, 0.000000, 0.751146, -301.768280, -1344.267578)" style="fill:#000000;" />
	<path d="M-297.9745788574219,-1272.26171875 L-313.5312194824219,-1256.705078125 L-335.5312194824219,-1256.705078125 L-335.5312194824219,-1234.70703125 L-351.0898132324219,-1219.1484375 L-335.5312194824219,-1203.58984375 L-335.5312194824219,-1181.591796875 L-313.5312194824219,-1181.591796875 L-297.9745788574219,-1166.03515625 L-282.41796875,-1181.591796875 L-260.41796875,-1181.591796875 L-260.41796875,-1203.591796875 L-244.86129760742188,-1219.1484375 L-260.41796875,-1234.705078125 L-260.41796875,-1256.705078125 L-282.41796875,-1256.705078125 L-297.9745788574219,-1272.26171875 Z" fill-rule="evenodd" style="fill:#000000;" />
	<path d="M-25.0,-50.0 L0.0,-50.0 L25.0,-50.0 Q50.0,-50.0 50.0,-25.0 L50.0,0.0 L50.0,25.0 Q50.0,50.0 25.0,50.0 L0.0,50.0 L-25.0,50.0 Q-50.0,50.0 -50.0,25.0 L-50.0,0.0 L-50.0,-25.0 Q-50.0,-50.0 -25.0,-50.0 ZM-25.0,-50.0 L0.0,-50.0 L25.0,-50.0 Q50.0,-50.0 50.0,-25.0 L50.0,0.0 L50.0,25.0 Q50.0,50.0 25.0,50.0 L0.0,50.0 L-25.0,50.0 Q-50.0,50.0 -50.0,25.0 L-50.0,0.0 L-50.0,-25.0 Q-50.0,-50.0 -25.0,-50.0 Z" transform="matrix(0.751146, 0.000000, 0.000000, 0.751146, -211.528564, -1345.555664)" style="fill:#000000;" />
	<path d="M-25.0,-50.0 L0.0,-50.0 L25.0,-50.0 Q50.0,-50.0 50.0,0.0 Q50.0,50.0 25.0,50.0 L0.0,50.0 L-25.0,50.0 Q-50.0,50.0 -50.0,0.0 Q-50.0,-50.0 -25.0,-50.0 ZM-25.0,-50.0 L0.0,-50.0 L25.0,-50.0 Q50.0,-50.0 50.0,0.0 Q50.0,50.0 25.0,50.0 L0.0,50.0 L-25.0,50.0 Q-50.0,50.0 -50.0,0.0 Q-50.0,-50.0 -25.0,-50.0 Z" transform="matrix(0.769041, 0.000000, 0.000000, 0.769041, -119.691742, -1346.375732)" style="fill:#000000;" />
	<path d="M-25.0,-50.0 L0.0,-50.0 L25.0,-50.0 L50.0,0.0 L25.0,50.0 L0.0,50.0 L-25.0,50.0 L-50.0,0.0 L-25.0,-50.0 ZM-25.0,-50.0 L0.0,-50.0 L25.0,-50.0 L50.0,0.0 L25.0,50.0 L0.0,50.0 L-25.0,50.0 L-50.0,0.0 L-25.0,-50.0 Z" transform="matrix(0.894375, 0.000000, 0.000000, 0.752683, -25.746717, -1343.481689)" style="fill:#000000;" />
	<path d="M0.0,-53.29099655151367 L53.29099655151367,0.0 L0.0,53.29099655151367 L-53.29099655151367,0.0 L0.0,-53.29099655151367 Z" fill-rule="evenodd" transform="matrix(0.692003, -0.005632, 0.008119, 0.997639, -195.204132, -1224.789307)" style="fill:#000000;" />
	<path d="M-101.59778594970703,0.0 L-71.84048461914062,-71.84048461914062 L71.84048461914062,-71.84048461914062 L101.59778594970703,0.0 L-101.59778594970703,0.0 Z" fill-rule="evenodd" transform="matrix(0.550430, -0.004479, 0.004479, 0.550430, -83.144943, -1234.324951)" style="fill:#000000;" />
	<path d="M-100.0,0.0 L-38.92451095581055,-92.1415023803711 L38.92451095581055,-92.1415023803711 L100.0,0.0 L-100.0,0.0 Z" fill-rule="evenodd" transform="matrix(-0.625866, -0.000000, 0.000000, -0.625866, -81.957520, -1227.329834)" style="fill:#000000;" />
	<path d="M-92.1415023803711,-38.92451095581055 L-38.92451095581055,-92.1415023803711 L38.92451095581055,-92.1415023803711 L92.1415023803711,-38.92451095581055 L92.1415023803711,38.92451095581055 L38.92451095581055,92.1415023803711 L-38.92451095581055,92.1415023803711 L-92.1415023803711,38.92451095581055 L-92.1415023803711,-38.92451095581055 Z" fill-rule="evenodd" transform="matrix(0.420721, -0.003424, 0.003424, 0.420721, 73.300598, -1344.125000)" style="fill:#000000;" />
	<path d="M-5849.419921875,12880.02734375 L-7038.083984375,13818.8212890625 L-7038.08544921875,13818.8212890625 L-7038.083984375,13818.822265625 L-5849.419921875,15428.1328125 L-4660.75537109375,13818.822265625 L-4660.75390625,13818.8212890625 L-4660.7578125,13818.8212890625 L-5849.419921875,12880.02734375 Z" fill-rule="evenodd" transform="matrix(0.033652, 0.000000, 0.000000, 0.033652, 233.457413, -1694.062378)" style="fill:#000000;" />
	<path d="M0.0,-50.0 L50.0,0.0 L25.0,50.0 L0.0,50.0 L-25.0,50.0 L-50.0,0.0 L0.0,-50.0 Z" transform="matrix(0.844344, 0.000000, 0.000000, 0.844344, 162.290451, -1347.481445)" style="fill:#000000;" />
	<path d="M0.0,-50.0 L50.0,-12.5 L50.0,25.0 L25.0,50.0 L-25.0,50.0 L-50.0,25.0 L-50.0,-12.5 L0.0,-50.0 Z" fill-rule="evenodd" transform="matrix(0.834439, -0.012599, 0.013111, 0.868360, 151.148651, -1219.590088)" style="fill:#000000;" />
	<path d="" fill-rule="evenodd" transform="matrix(11.422191, 0.000000, 0.000000, 10.451474, -9425.796875, 14957.917969)" style="fill:none;" />
</svg>