<?xml version="1.0" encoding="UTF-8"?>
<!-- Created with Grafika (https://www.grafika.cc/) -->
<svg version="1.0" xmlns="http://www.w3.org/2000/svg" xmlns:svg="http://www.w3.org/2000/svg" width="580" height="214" viewBox="-363.759857 -1386.163696 579.337616 213.017578" preserveAspectRatio="xMinYMin meet">
	<path d="M-50.0,-50.0 L50.0,50.0 L-50.0,50.0 L-50.0,-50.0 Z" fill-rule="evenodd" transform="matrix(0.383240, 0.000000, 0.000000, 0.383240, -86.951675, -1363.376465)" style="fill:#000000;" />
	<path d="M-50.0,-50.0 L50.0,50.0 L-50.0,50.0 L-50.0,-50.0 Z" fill-rule="evenodd" transform="matrix(-0.383240, 0.000000, -0.000000, -0.383240, -173.963928, -1264.392822)" style="fill:#000000;" />
	<path d="M-50.0,-50.0 L50.0,50.0 L-50.0,50.0 L-50.0,-50.0 Z" fill-rule="evenodd" transform="matrix(-0.383240, 0.000000, 0.000000, 0.383240, -167.862640, -1364.126953)" style="fill:#000000;" />
	<path d="M-50.0,-50.0 L50.0,50.0 L-50.0,50.0 L-50.0,-50.0 Z" fill-rule="evenodd" transform="matrix(0.383240, 0.000000, 0.000000, -0.383240, -93.053200, -1263.642456)" style="fill:#000000;" />
	<path d="M50.0,-50.0 L-50.0,50.0 L-50.0,-25.0 L50.0,-50.0 Z" fill-rule="evenodd" transform="matrix(0.000000, -0.414911, 0.414911, 0.000000, -250.379059, -1365.283325)" style="fill:#000000;" />
	<path d="M50.0,-50.0 L-50.0,50.0 L-50.0,-25.0 L50.0,-50.0 Z" fill-rule="evenodd" transform="matrix(-0.000000, 0.414911, -0.414911, -0.000000, -343.014282, -1258.036987)" style="fill:#000000;" />
	<path d="M50.0,-50.0 L-50.0,50.0 L-50.0,-25.0 L50.0,-50.0 Z" fill-rule="evenodd" transform="matrix(0.000000, -0.414912, -0.414912, -0.000000, -340.169098, -1365.418091)" style="fill:#000000;" />
	<path d="M50.0,-50.0 L-50.0,50.0 L-50.0,-25.0 L50.0,-50.0 Z" fill-rule="evenodd" transform="matrix(0.000000, 0.414912, 0.414912, 0.000000, -254.129883, -1259.262451)" style="fill:#000000;" />
	<path d="M25.0,50.0 L0.0,50.0 L-25.0,50.0 L-50.0,25.0 L25.0,50.0 Z" fill-rule="evenodd" transform="matrix(1.485202, 0.000000, 0.000000, 1.485202, 171.725861, -1421.300415)" style="fill:#000000;" />
	<path d="M25.0,50.0 L0.0,50.0 L-25.0,50.0 L-50.0,25.0 L25.0,50.0 Z" fill-rule="evenodd" transform="matrix(-1.485202, 0.000000, 0.000000, -1.485202, -4.644657, -1207.585327)" style="fill:#000000;" />
	<path d="M25.0,50.0 L0.0,50.0 L-25.0,50.0 L-50.0,25.0 L25.0,50.0 Z" fill-rule="evenodd" transform="matrix(-1.485202, 0.000000, 0.000000, 1.485202, -4.912725, -1422.176392)" style="fill:#000000;" />
	<path d="M25.0,50.0 L0.0,50.0 L-25.0,50.0 L-50.0,25.0 L25.0,50.0 Z" fill-rule="evenodd" transform="matrix(1.485202, 0.000000, 0.000000, -1.485202, 171.993927, -1206.709229)" style="fill:#000000;" />
	<path d="M0.0,-50.0 L50.0,50.0 L-50.0,50.0 L0.0,-50.0 Z" fill-rule="evenodd" transform="matrix(0.426584, 0.000000, 0.000000, 0.426584, -340.413818, -1195.046997)" style="fill:#000000;" />
	<path d="M0.0,-50.0 L50.0,50.0 L-50.0,50.0 L0.0,-50.0 Z" fill-rule="evenodd" transform="matrix(-0.426584, 0.000000, 0.000000, -0.426584, -261.500885, -1194.475342)" style="fill:#000000;" />
	<path d="M0.0,-50.0 L50.0,50.0 L-50.0,50.0 L0.0,-50.0 Z" fill-rule="evenodd" transform="matrix(-0.000000, -0.426584, 0.426584, 0.000000, -179.156937, -1196.762329)" style="fill:#000000;" />
	<path d="M0.0,-50.0 L50.0,50.0 L-50.0,50.0 L0.0,-50.0 Z" fill-rule="evenodd" transform="matrix(0.000000, 0.426584, -0.426584, 0.000000, -91.803909, -1196.433350)" style="fill:#000000;" />
	<path d="M0.0,-50.0 L50.0,50.0 L-50.0,50.0 L0.0,-50.0 Z" fill-rule="evenodd" transform="matrix(1.119310, -0.000000, 0.000000, 0.263447, 24.271914, -1192.100586)" style="fill:#000000;" />
	<path d="M0.0,-50.0 L50.0,50.0 L-50.0,50.0 L0.0,-50.0 Z" fill-rule="evenodd" transform="matrix(1.119310, -0.000000, 0.000000, 0.158362, 159.612259, -1186.846436)" style="fill:#000000;" />
</svg>