<?xml version="1.0" encoding="UTF-8"?>
<!-- Created with Grafika (https://www.grafika.cc/) -->
<svg version="1.0" xmlns="http://www.w3.org/2000/svg" xmlns:svg="http://www.w3.org/2000/svg" width="523" height="222" viewBox="307.103149 4046.093750 522.939148 221.221680" preserveAspectRatio="xMinYMin meet">
	<path d="M-430.4355163574219,-1701.474609375 C-440.0421142578125,-1702.1534423828125 -449.9481201171875,-1700.070068359375 -458.91595458984375,-1694.8924560546875 L-1329.0546875,-1192.517578125 C-1352.96923828125,-1178.71044921875 -1361.16259765625,-1148.131591796875 -1347.35546875,-1124.2166748046875 L-587.59375,191.74609375 L-2125.45703125,191.755859375 C-2153.071044921875,191.755859375 -2175.45703125,214.14210510253906 -2175.45703125,241.755859375 L-2175.45703125,1246.50390625 C-2175.45703125,1274.1180419921875 -2153.071044921875,1296.50390625 -2125.45703125,1296.50390625 L-605.9198608398438,1296.515625 L-1374.8416748046875,2628.34765625 C-1388.6490478515625,2652.26220703125 -1380.4549560546875,2682.84130859375 -1356.541015625,2696.6484375 L-486.40234375,3199.021484375 C-462.48779296875,3212.828857421875 -431.90869140625,3204.634521484375 -418.1015625,3180.720703125 L341.67578125,1864.76953125 L1110.615234375,3196.591796875 C1124.42236328125,3220.506591796875 1155.0018310546875,3228.69921875 1178.9158935546875,3214.892578125 L2049.0546875,2712.517333984375 C2072.96923828125,2698.710693359375 2081.16259765625,2668.131103515625 2067.35546875,2644.216796875 L1307.59375,1328.25390625 L2845.45703125,1328.244140625 C2873.071044921875,1328.244140625 2895.45703125,1305.8580322265625 2895.45703125,1278.244140625 L2895.45703125,273.49609375 C2895.45703125,245.88182067871094 2873.071044921875,223.49609375 2845.45703125,223.49609375 L1325.9195556640625,223.484375 L2094.841796875,-1108.34765625 C2108.64892578125,-1132.26220703125 2100.454833984375,-1162.841552734375 2076.541015625,-1176.6484375 L1206.40234375,-1679.0234375 C1197.4344482421875,-1684.2010498046875 1187.5302734375,-1686.2841796875 1177.923828125,-1685.6053466796875 C1161.9129638671875,-1684.4739990234375 1146.73095703125,-1675.6671142578125 1138.1015625,-1660.7205810546875 L378.32421875,-344.76953125 L-390.615234375,-1676.5916748046875 C-399.24468994140625,-1691.538330078125 -414.42462158203125,-1700.343017578125 -430.4355163574219,-1701.474609375 ZM-452.2167663574219,-1583.2890625 L301.599609375,-277.662109375 L-481.955078125,174.72265625 L-1235.75390625,-1130.9158935546875 L-452.2167663574219,-1583.2890625 ZM1199.703125,-1567.419921875 L1983.239990234375,-1115.046875 L1229.44140625,190.591796875 L1204.44140625,233.89451599121094 L1229.44140625,190.591796875 L445.8885803222656,-261.79296875 L1199.703125,-1567.419921875 ZM360.0,-195.908203125 L1187.841796875,282.044921875 L1187.841796875,1237.955078125 L360.0,1715.908203125 L-467.841796875,1237.955078125 L-467.841796875,282.044921875 L360.0,-195.908203125 ZM-567.841796875,291.74609375 L-567.841796875,1196.515625 C-517.8417358398438,1196.515625 -567.841796875,1196.515625 -2075.45703125,1196.5057373046875 L-2075.45703125,291.7558288574219 L-567.841796875,291.74609375 ZM2795.45703125,323.494140625 L2795.45703125,1228.244140625 L1287.841796875,1228.25390625 L1237.8416748046875,1228.25390625 L1287.841796875,1228.25390625 L1287.841796875,323.484375 L1237.8416748046875,323.484375 L1287.841796875,323.484375 L2795.45703125,323.494140625 ZM-509.4413757324219,1329.408203125 L274.11328125,1781.79296875 L299.11328125,1738.4921875 L274.11328125,1781.79296875 L-479.703125,3087.419677734375 L-1263.240234375,2635.046875 L-509.4413757324219,1329.408203125 ZM1232.025390625,1327.9156494140625 L1201.9549560546875,1345.27734375 L1955.7540283203125,2650.916015625 L1172.2166748046875,3103.2890625 L418.400390625,1797.6619873046875 L375.099609375,1822.661865234375 L418.400390625,1797.6619873046875 L1201.9549560546875,1345.27734375 L1232.025390625,1327.9156494140625 ZM360.0,-195.908203125 L1187.841796875,282.044921875 L1187.841796875,1237.955078125 L360.0,1715.908203125 L-467.841796875,1237.955078125 L-467.841796875,282.044921875 L360.0,-195.908203125 Z" fill-rule="evenodd" transform="matrix(0.019473, 0.000000, 0.000000, 0.019473, 490.158905, 4079.229736)" style="fill:#000000;" />
	<path d="M-430.4355163574219,-1701.474609375 C-440.0421142578125,-1702.1534423828125 -449.9481201171875,-1700.070068359375 -458.91595458984375,-1694.8924560546875 L-1329.0546875,-1192.517578125 C-1352.96923828125,-1178.71044921875 -1361.16259765625,-1148.131591796875 -1347.35546875,-1124.2166748046875 L-587.59375,191.74609375 L-2125.45703125,191.755859375 C-2153.071044921875,191.755859375 -2175.45703125,214.14210510253906 -2175.45703125,241.755859375 L-2175.45703125,1246.50390625 C-2175.45703125,1274.1180419921875 -2153.071044921875,1296.50390625 -2125.45703125,1296.50390625 L-605.9198608398438,1296.515625 L-1374.8416748046875,2628.34765625 C-1388.6490478515625,2652.26220703125 -1380.4549560546875,2682.84130859375 -1356.541015625,2696.6484375 L-486.40234375,3199.021484375 C-462.48779296875,3212.828857421875 -431.90869140625,3204.634521484375 -418.1015625,3180.720703125 L341.67578125,1864.76953125 L1110.615234375,3196.591796875 C1124.42236328125,3220.506591796875 1155.0018310546875,3228.69921875 1178.9158935546875,3214.892578125 L2049.0546875,2712.517333984375 C2072.96923828125,2698.710693359375 2081.16259765625,2668.131103515625 2067.35546875,2644.216796875 L1307.59375,1328.25390625 L2845.45703125,1328.244140625 C2873.071044921875,1328.244140625 2895.45703125,1305.8580322265625 2895.45703125,1278.244140625 L2895.45703125,273.49609375 C2895.45703125,245.88182067871094 2873.071044921875,223.49609375 2845.45703125,223.49609375 L1325.9195556640625,223.484375 L2094.841796875,-1108.34765625 C2108.64892578125,-1132.26220703125 2100.454833984375,-1162.841552734375 2076.541015625,-1176.6484375 L1206.40234375,-1679.0234375 C1197.4344482421875,-1684.2010498046875 1187.5302734375,-1686.2841796875 1177.923828125,-1685.6053466796875 C1161.9129638671875,-1684.4739990234375 1146.73095703125,-1675.6671142578125 1138.1015625,-1660.7205810546875 L378.32421875,-344.76953125 L-390.615234375,-1676.5916748046875 C-399.24468994140625,-1691.538330078125 -414.42462158203125,-1700.343017578125 -430.4355163574219,-1701.474609375 ZM-452.2167663574219,-1583.2890625 L301.599609375,-277.662109375 L-481.955078125,174.72265625 L-1235.75390625,-1130.9158935546875 L-452.2167663574219,-1583.2890625 ZM1199.703125,-1567.419921875 L1983.239990234375,-1115.046875 L1229.44140625,190.591796875 L1204.44140625,233.89451599121094 L1229.44140625,190.591796875 L445.8885803222656,-261.79296875 L1199.703125,-1567.419921875 ZM-567.841796875,291.74609375 L-567.841796875,1196.515625 C-517.8417358398438,1196.515625 -567.841796875,1196.515625 -2075.45703125,1196.5057373046875 L-2075.45703125,291.7558288574219 L-567.841796875,291.74609375 ZM2795.45703125,323.494140625 L2795.45703125,1228.244140625 L1287.841796875,1228.25390625 L1237.8416748046875,1228.25390625 L1287.841796875,1228.25390625 L1287.841796875,323.484375 L1237.8416748046875,323.484375 L1287.841796875,323.484375 L2795.45703125,323.494140625 ZM-509.4413757324219,1329.408203125 L274.11328125,1781.79296875 L299.11328125,1738.4921875 L274.11328125,1781.79296875 L-479.703125,3087.419677734375 L-1263.240234375,2635.046875 L-509.4413757324219,1329.408203125 ZM1232.025390625,1327.9156494140625 L1201.9549560546875,1345.27734375 L1955.7540283203125,2650.916015625 L1172.2166748046875,3103.2890625 L418.400390625,1797.6619873046875 L375.099609375,1822.661865234375 L418.400390625,1797.6619873046875 L1201.9549560546875,1345.27734375 L1232.025390625,1327.9156494140625 ZM360.0,-195.908203125 L1187.841796875,282.044921875 L1187.841796875,1237.955078125 L360.0,1715.908203125 L-467.841796875,1237.955078125 L-467.841796875,282.044921875 L360.0,-195.908203125 Z" fill-rule="evenodd" transform="matrix(0.019473, 0.000000, 0.000000, 0.019473, 349.466644, 4081.132813)" style="fill:#000000;" />
	<path d="M-430.4355163574219,-1701.474609375 C-440.0421142578125,-1702.1534423828125 -449.9481201171875,-1700.070068359375 -458.91595458984375,-1694.8924560546875 L-1329.0546875,-1192.517578125 C-1352.96923828125,-1178.71044921875 -1361.16259765625,-1148.131591796875 -1347.35546875,-1124.2166748046875 L-587.59375,191.74609375 L-2125.45703125,191.755859375 C-2153.071044921875,191.755859375 -2175.45703125,214.14210510253906 -2175.45703125,241.755859375 L-2175.45703125,1246.50390625 C-2175.45703125,1274.1180419921875 -2153.071044921875,1296.50390625 -2125.45703125,1296.50390625 L-605.9198608398438,1296.515625 L-1374.8416748046875,2628.34765625 C-1388.6490478515625,2652.26220703125 -1380.4549560546875,2682.84130859375 -1356.541015625,2696.6484375 L-486.40234375,3199.021484375 C-462.48779296875,3212.828857421875 -431.90869140625,3204.634521484375 -418.1015625,3180.720703125 L341.67578125,1864.76953125 L1110.615234375,3196.591796875 C1124.42236328125,3220.506591796875 1155.0018310546875,3228.69921875 1178.9158935546875,3214.892578125 L2049.0546875,2712.517333984375 C2072.96923828125,2698.710693359375 2081.16259765625,2668.131103515625 2067.35546875,2644.216796875 L1307.59375,1328.25390625 L2845.45703125,1328.244140625 C2873.071044921875,1328.244140625 2895.45703125,1305.8580322265625 2895.45703125,1278.244140625 L2895.45703125,273.49609375 C2895.45703125,245.88182067871094 2873.071044921875,223.49609375 2845.45703125,223.49609375 L1325.9195556640625,223.484375 L2094.841796875,-1108.34765625 C2108.64892578125,-1132.26220703125 2100.454833984375,-1162.841552734375 2076.541015625,-1176.6484375 L1206.40234375,-1679.0234375 C1197.4344482421875,-1684.2010498046875 1187.5302734375,-1686.2841796875 1177.923828125,-1685.6053466796875 C1161.9129638671875,-1684.4739990234375 1146.73095703125,-1675.6671142578125 1138.1015625,-1660.7205810546875 L378.32421875,-344.76953125 L-390.615234375,-1676.5916748046875 C-399.24468994140625,-1691.538330078125 -414.42462158203125,-1700.343017578125 -430.4355163574219,-1701.474609375 ZM-452.2167663574219,-1583.2890625 L301.599609375,-277.662109375 L-481.955078125,174.72265625 L-1235.75390625,-1130.9158935546875 L-452.2167663574219,-1583.2890625 ZM1199.703125,-1567.419921875 L1983.239990234375,-1115.046875 L1229.44140625,190.591796875 L1204.44140625,233.89451599121094 L1229.44140625,190.591796875 L445.8885803222656,-261.79296875 L1199.703125,-1567.419921875 ZM-567.841796875,291.74609375 L-567.841796875,1196.515625 C-517.8417358398438,1196.515625 -567.841796875,1196.515625 -2075.45703125,1196.5057373046875 L-2075.45703125,291.7558288574219 L-567.841796875,291.74609375 ZM2795.45703125,323.494140625 L2795.45703125,1228.244140625 L1287.841796875,1228.25390625 L1237.8416748046875,1228.25390625 L1287.841796875,1228.25390625 L1287.841796875,323.484375 L1237.8416748046875,323.484375 L1287.841796875,323.484375 L2795.45703125,323.494140625 ZM-509.4413757324219,1329.408203125 L274.11328125,1781.79296875 L299.11328125,1738.4921875 L274.11328125,1781.79296875 L-479.703125,3087.419677734375 L-1263.240234375,2635.046875 L-509.4413757324219,1329.408203125 ZM1232.025390625,1327.9156494140625 L1201.9549560546875,1345.27734375 L1955.7540283203125,2650.916015625 L1172.2166748046875,3103.2890625 L418.400390625,1797.6619873046875 L375.099609375,1822.661865234375 L418.400390625,1797.6619873046875 L1201.9549560546875,1345.27734375 L1232.025390625,1327.9156494140625 ZM360.0,-195.908203125 L1187.841796875,282.044921875 L1187.841796875,1237.955078125 L360.0,1715.908203125 L-467.841796875,1237.955078125 L-467.841796875,282.044921875 L360.0,-195.908203125 ZM-567.841796875,291.74609375 L-567.841796875,1196.515625 C-517.8417358398438,1196.515625 -567.841796875,1196.515625 -2075.45703125,1196.5057373046875 L-2075.45703125,291.7558288574219 L-567.841796875,291.74609375 ZM1199.703125,-1567.419921875 L1983.239990234375,-1115.046875 L1229.44140625,190.591796875 L1204.44140625,233.89451599121094 L1229.44140625,190.591796875 L445.8885803222656,-261.79296875 L1199.703125,-1567.419921875 ZM1232.025390625,1327.9156494140625 L1201.9549560546875,1345.27734375 L1955.7540283203125,2650.916015625 L1172.2166748046875,3103.2890625 L418.400390625,1797.6619873046875 L375.099609375,1822.661865234375 L418.400390625,1797.6619873046875 L1201.9549560546875,1345.27734375 L1232.025390625,1327.9156494140625 Z" fill-rule="evenodd" transform="matrix(0.019473, 0.000000, 0.000000, 0.019473, 773.657959, 4083.432861)" style="fill:#000000;" />
	<path d="M-430.4355163574219,-1701.474609375 C-440.0421142578125,-1702.1534423828125 -449.9481201171875,-1700.070068359375 -458.91595458984375,-1694.8924560546875 L-1329.0546875,-1192.517578125 C-1352.96923828125,-1178.71044921875 -587.59375,191.74609375 -2125.45703125,191.755859375 C-2153.071044921875,191.755859375 -2175.45703125,214.14210510253906 -2175.45703125,241.755859375 L-2175.45703125,1246.50390625 C-2175.45703125,1274.1180419921875 -2153.071044921875,1296.50390625 -2125.45703125,1296.50390625 Q-605.9198608398438,1296.515625 -1374.8416748046875,2628.34765625 C-1388.6490478515625,2652.26220703125 -1380.4549560546875,2682.84130859375 -1356.541015625,2696.6484375 L-486.40234375,3199.021484375 C-462.48779296875,3212.828857421875 -431.90869140625,3204.634521484375 -418.1015625,3180.720703125 Q341.67578125,1864.76953125 1110.615234375,3196.591796875 C1124.42236328125,3220.506591796875 1155.0018310546875,3228.69921875 1178.9158935546875,3214.892578125 L2049.0546875,2712.517333984375 C2072.96923828125,2698.710693359375 2081.16259765625,2668.131103515625 2067.35546875,2644.216796875 Q1307.59375,1328.25390625 2845.45703125,1328.244140625 C2873.071044921875,1328.244140625 2895.45703125,1305.8580322265625 2895.45703125,1278.244140625 L2895.45703125,273.49609375 C2895.45703125,245.88182067871094 2873.071044921875,223.49609375 2845.45703125,223.49609375 Q1325.9195556640625,223.484375 2094.841796875,-1108.34765625 C2108.64892578125,-1132.26220703125 2100.454833984375,-1162.841552734375 2076.541015625,-1176.6484375 L1206.40234375,-1679.0234375 C1197.4344482421875,-1684.2010498046875 1187.5302734375,-1686.2841796875 1177.923828125,-1685.6053466796875 C1161.9129638671875,-1684.4739990234375 1146.73095703125,-1675.6671142578125 1138.1015625,-1660.7205810546875 L378.32421875,-344.76953125 L-390.615234375,-1676.5916748046875 C-399.24468994140625,-1691.538330078125 -414.42462158203125,-1700.343017578125 -430.4355163574219,-1701.474609375 ZM-452.2167663574219,-1583.2890625 L301.599609375,-277.662109375 Q-481.955078125,174.72265625 -1235.75390625,-1130.9158935546875 L-452.2167663574219,-1583.2890625 ZM1199.703125,-1567.419921875 L1983.239990234375,-1115.046875 Q1229.44140625,190.591796875 445.8885803222656,-261.79296875 L1199.703125,-1567.419921875 ZM-2075.45703125,1196.5057373046875 L-2075.45703125,291.7558288574219 C-567.841796875,291.74609375 -567.841796875,1196.515625 -2075.45703125,1196.5057373046875 ZM2795.45703125,323.494140625 L2795.45703125,1228.244140625 C1287.841796875,1228.25390625 1287.841796875,323.484375 2795.45703125,323.494140625 ZM-479.703125,3087.419677734375 L-1263.240234375,2635.046875 C-509.4413757324219,1329.408203125 274.11328125,1781.79296875 -479.703125,3087.419677734375 ZM1955.7540283203125,2650.916015625 L1172.2166748046875,3103.2890625 C418.400390625,1797.6619873046875 1201.9549560546875,1345.27734375 1955.7540283203125,2650.916015625 Z" fill-rule="evenodd" transform="matrix(0.019473, 0.000000, 0.000000, 0.019473, 636.510437, 4198.242188)" style="fill:#000000;" />
	<path d="M2859.732177734375,2122.103515625 C2853.197021484375,2122.103515625 2847.8984375,2127.40185546875 2847.8984375,2133.9375 C2847.898193359375,2163.624755859375 2846.24169921875,2190.4638671875 2843.01953125,2214.615234375 C2834.004150390625,2202.82568359375 2824.984619140625,2189.913330078125 2815.9609375,2175.837890625 L2798.001708984375,2144.732421875 C2795.95947265625,2141.19482421875 2792.365478515625,2139.111572265625 2788.576171875,2138.843505859375 C2786.302490234375,2138.682861328125 2783.95849609375,2139.1767578125 2781.8359375,2140.40234375 L2575.896240234375,2259.30078125 C2575.69921875,2259.414794921875 2575.7216796875,2259.930419921875 2575.9375,2260.8203125 C2575.9375,2260.820556640625 2575.9375,2260.822021484375 2575.9375,2260.822265625 L2575.892333984375,2260.84765625 C2570.232421875,2264.115234375 2568.294677734375,2271.351806640625 2571.562255859375,2277.01171875 C2584.89990234375,2300.113525390625 2594.51708984375,2321.085205078125 2603.20703125,2341.525390625 C2603.728271484375,2343.438232421875 2604.318115234375,2344.640869140625 2604.822021484375,2346.58984375 C2582.6357421875,2337.2314453125 2559.447509765625,2326.151123046875 2534.236083984375,2311.595703125 C2532.056884765625,2310.33740234375 2529.64501953125,2309.8671875 2527.314453125,2310.068115234375 C2523.03955078125,2309.874267578125 2518.8046875,2311.958251953125 2516.517578125,2315.919677734375 L2397.619140625,2521.861328125 C2396.393798828125,2523.98388671875 2395.89990234375,2526.327880859375 2396.060546875,2528.6015625 C2396.328369140625,2532.390869140625 2398.41357421875,2535.98291015625 2401.951171875,2538.025390625 L2430.372802734375,2554.435302734375 L2430.375,2554.4375 C2443.44970703125,2562.87548828125 2455.4404296875,2571.3173828125 2466.638671875,2579.76171875 C2443.352294921875,2583.94287109375 2417.92724609375,2586.925537109375 2387.40625,2586.92578125 C2380.870849609375,2586.92578125 2375.572265625,2592.22412109375 2375.572265625,2598.759765625 L2375.572265625,2600.150390625 C2375.571533203125,2600.201416015625 2375.5703125,2600.253173828125 2375.5703125,2600.3046875 L2375.5703125,2838.103515625 C2375.5703125,2844.638916015625 2380.86865234375,2849.9375 2387.404296875,2849.9375 C2417.044677734375,2849.9375 2443.161376953125,2851.989013671875 2467.282958984375,2855.201171875 C2455.5908203125,2864.12353515625 2443.035400390625,2873.0478515625 2429.12109375,2881.978515625 C2429.109130859375,2881.986083984375 2429.095703125,2881.994384765625 2429.083984375,2882.001953125 L2398.193359375,2899.8359375 C2394.65576171875,2901.878173828125 2392.572509765625,2905.470458984375 2392.3046875,2909.259521484375 C2392.14404296875,2911.533447265625 2392.6376953125,2913.87939453125 2393.86328125,2916.001953125 L2512.763671875,3121.94140625 C2512.87841796875,3122.14013671875 2513.392578125,3122.11181640625 2514.27734375,3121.88671875 L2514.314208984375,3121.94921875 C2517.58203125,3127.609130859375 2524.8203125,3129.549072265625 2530.48046875,3126.28125 C2553.0673828125,3113.240966796875 2573.89697265625,3103.2666015625 2594.005859375,3094.552734375 C2596.5478515625,3093.85595703125 2598.1455078125,3093.056640625 2600.755615234375,3092.392578125 C2591.384521484375,3114.6591796875 2579.677001953125,3138.286865234375 2565.05859375,3163.607421875 C2563.79638671875,3165.79345703125 2563.327392578125,3168.2119140625 2563.533203125,3170.548828125 C2563.35009765625,3174.814208984375 2565.435546875,3179.035888671875 2569.388671875,3181.318115234375 L2775.327880859375,3300.216796875 C2777.45068359375,3301.442138671875 2779.794677734375,3301.93603515625 2782.068359375,3301.775390625 C2785.857666015625,3301.5078125 2789.451904296875,3299.422119140625 2791.494140625,3295.884765625 L2809.259765625,3265.11328125 L2809.261474609375,3265.111083984375 C2817.3095703125,3252.5693359375 2825.361572265625,3241.3466796875 2833.415771484375,3230.681396484375 C2837.609619140625,3253.994384765625 2840.386474609375,3279.862060546875 2840.386474609375,3310.431640625 C2840.386474609375,3316.967041015625 2845.684814453125,3322.265625 2852.220703125,3322.265625 L2853.404296875,3322.265625 C2853.5263671875,3322.269287109375 2853.650146484375,3322.271484375 2853.7734375,3322.271484375 L3091.572021484375,3322.271484375 C3098.107421875,3322.271484375 3103.40625,3316.97314453125 3103.40625,3310.4375 C3103.406494140625,3280.750244140625 3105.06298828125,3253.9111328125 3108.285400390625,3229.759765625 C3117.298095703125,3241.54638671875 3126.316650390625,3254.4541015625 3135.337890625,3268.525390625 C3135.340087890625,3268.528564453125 3135.34130859375,3268.53173828125 3135.343505859375,3268.53515625 L3153.302490234375,3299.642578125 C3155.345458984375,3303.18017578125 3158.939208984375,3305.263427734375 3162.728515625,3305.531005859375 C3165.002197265625,3305.692138671875 3167.34619140625,3305.1982421875 3169.46875,3303.972412109375 L3375.407958984375,3185.07421875 C3375.605224609375,3184.96044921875 3375.580322265625,3184.443115234375 3375.365234375,3183.5546875 L3375.411865234375,3183.527099609375 C3381.072021484375,3180.259521484375 3383.010009765625,3173.023193359375 3379.7421875,3167.36328125 C3366.404052734375,3144.260986328125 3356.787353515625,3123.289794921875 3348.09765625,3102.849609375 C3347.576416015625,3100.936767578125 3346.986572265625,3099.734375 3346.482177734375,3097.78515625 C3368.6689453125,3107.1435546875 3391.857177734375,3118.223876953125 3417.068115234375,3132.779296875 C3419.2451171875,3134.0361328125 3421.65234375,3134.505859375 3423.98046875,3134.306640625 C3428.2587890625,3134.50439453125 3432.498046875,3132.419677734375 3434.787109375,3128.455078125 L3553.685546875,2922.513671875 C3554.910888671875,2920.39111328125 3555.40478515625,2918.047119140625 3555.243896484375,2915.7734375 C3554.976318359375,2911.984130859375 3552.89111328125,2908.39208984375 3549.353271484375,2906.349609375 L3520.927490234375,2889.9375 C3520.92626953125,2889.9365234375 3520.925048828125,2889.936279296875 3520.92333984375,2889.935302734375 C3507.8505859375,2881.498046875 3495.863037109375,2873.056396484375 3484.666015625,2864.61328125 C3507.952392578125,2860.43212890625 3533.377197265625,2857.449462890625 3563.8984375,2857.44921875 C3570.433837890625,2857.44921875 3575.732421875,2852.15087890625 3575.732421875,2845.615234375 L3575.732421875,2844.2421875 C3575.733154296875,2844.18505859375 3575.734375,2844.12744140625 3575.734375,2844.0703125 L3575.734375,2606.271484375 C3575.734375,2599.73583984375 3570.436279296875,2594.4375 3563.900390625,2594.4375 C3534.260009765625,2594.437255859375 3508.14306640625,2592.385986328125 3484.021240234375,2589.173583984375 C3495.713134765625,2580.251708984375 3508.268310546875,2571.32666015625 3522.181640625,2562.396484375 C3522.181884765625,2562.396240234375 3522.18310546875,2562.396728515625 3522.18359375,2562.396484375 L3553.111328125,2544.5390625 C3556.64892578125,2542.496826171875 3558.73193359375,2538.904052734375 3559.0,2535.115234375 C3559.16064453125,2532.841552734375 3558.6669921875,2530.49560546875 3557.44140625,2528.373046875 L3438.541015625,2322.43359375 C3438.42626953125,2322.23486328125 3437.910400390625,2322.263427734375 3437.024658203125,2322.48828125 L3436.98974609375,2322.42578125 C3433.72265625,2316.765869140625 3426.484375,2314.825927734375 3420.82421875,2318.09375 C3398.23828125,2331.133544921875 3377.408935546875,2341.1064453125 3357.30078125,2349.8203125 C3354.7578125,2350.51708984375 3353.16015625,2351.31787109375 3350.548583984375,2351.982421875 C3359.919677734375,2329.7158203125 3371.62744140625,2306.087890625 3386.24609375,2280.767578125 C3387.510009765625,2278.578369140625 3387.9775390625,2276.15625 3387.76953125,2273.81640625 C3387.94970703125,2269.553466796875 3385.86669921875,2265.33740234375 3381.916015625,2263.056640625 L3175.9765625,2144.158203125 C3173.85400390625,2142.932861328125 3171.509765625,2142.43896484375 3169.23583984375,2142.599609375 C3165.447021484375,2142.8671875 3161.8525390625,2144.952880859375 3159.810546875,2148.490234375 L3142.06640625,2179.22265625 C3142.05810546875,2179.235107421875 3142.051025390625,2179.249267578125 3142.04296875,2179.26171875 C3133.995361328125,2191.80322265625 3125.942626953125,2203.02685546875 3117.888427734375,2213.69140625 C3113.6953125,2190.379150390625 3110.91796875,2164.51220703125 3110.91796875,2133.943359375 C3110.91796875,2127.407958984375 3105.61962890625,2122.109375 3099.083740234375,2122.109375 L3097.8984375,2122.109375 C3097.7763671875,2122.10546875 3097.654052734375,2122.103515625 3097.531005859375,2122.103515625 L2859.732177734375,2122.103515625 ZM2873.119140625,2145.77734375 L3085.697265625,2145.77734375 C3085.697021484375,2189.2353515625 3082.313720703125,2226.9833984375 3076.734375,2259.85546875 C3044.357177734375,2289.822998046875 3011.92724609375,2305.159423828125 2979.4453125,2304.822265625 C2947.1923828125,2304.4873046875 2914.882080078125,2287.536376953125 2882.525390625,2257.25390625 C2881.46826171875,2250.941162109375 2879.793212890625,2246.0478515625 2878.917724609375,2239.34765625 C2878.214599609375,2234.313232421875 2878.21728515625,2227.9404296875 2877.611328125,2222.70703125 C2875.13037109375,2198.89208984375 2873.118896484375,2174.08349609375 2873.119140625,2145.77734375 ZM2783.419677734375,2168.361328125 C2804.7080078125,2205.233154296875 2819.6982421875,2238.447509765625 2831.255859375,2269.204833984375 C2815.45361328125,2321.190673828125 2788.151123046875,2353.41357421875 2749.537109375,2366.201171875 C2724.828125,2373.710693359375 2695.616943359375,2373.483154296875 2661.896240234375,2365.5078125 C2640.770751953125,2337.8935546875 2619.6298828125,2311.173095703125 2598.6484375,2275.0390625 L2783.419677734375,2168.361328125 ZM3174.388671875,2172.1171875 L3359.162109375,2278.794921875 C3340.084228515625,2311.615478515625 3320.850830078125,2335.216552734375 3301.654296875,2361.037109375 C3236.091064453125,2367.7333984375 3165.039794921875,2351.13916015625 3131.207275390625,2263.078125 C3142.266357421875,2234.89453125 3155.193115234375,2205.364990234375 3174.388671875,2172.1171875 ZM2532.265625,2338.677734375 C2565.096923828125,2357.739013671875 2589.521484375,2376.943603515625 2614.45703125,2396.138671875 C2621.1875,2461.919189453125 2605.105224609375,2533.515869140625 2516.279296875,2567.234375 C2488.2119140625,2556.0400390625 2458.489990234375,2542.45166015625 2425.583984375,2523.453125 L2532.265625,2338.677734375 ZM3422.802490234375,2345.185546875 L3529.474365234375,2529.951171875 C3492.47705078125,2551.31201171875 3459.32861328125,2566.081298828125 3428.521484375,2577.599609375 C3372.218505859375,2560.350830078125 3338.941650390625,2529.701171875 3329.29296875,2485.30078125 C3329.165771484375,2484.685791015625 3329.0205078125,2484.081298828125 3328.90234375,2483.4609375 C3328.327392578125,2480.604736328125 3327.940673828125,2477.638916015625 3327.552490234375,2474.67333984375 C3327.3271484375,2472.80859375 3327.09716796875,2470.945068359375 3326.9453125,2469.037109375 C3326.623779296875,2465.4384765625 3326.945556640625,2461.46630859375 3326.886962890625,2457.71484375 C3326.785400390625,2442.38671875 3328.52587890625,2425.98828125 3332.75390625,2408.140625 C3360.19189453125,2387.1123046875 3386.83544921875,2366.069580078125 3422.802490234375,2345.185546875 ZM2399.240234375,2612.138427734375 C2430.707275390625,2612.138427734375 2458.5419921875,2614.252197265625 2484.458984375,2617.2890625 C2487.544921875,2617.676513671875 2491.41650390625,2617.64892578125 2494.427734375,2618.072265625 C2501.798828125,2619.054443359375 2507.05126953125,2620.965087890625 2513.94921875,2622.16796875 C2572.87451171875,2686.563232421875 2571.497314453125,2751.16650390625 2510.572265625,2815.976806640625 C2478.2421875,2821.307861328125 2441.652587890625,2824.724853515625 2399.240234375,2824.724365234375 L2399.240234375,2612.138427734375 ZM3552.064453125,2619.650390625 L3552.064453125,2832.236083984375 C3520.564208984375,2832.236083984375 3492.692138671875,2830.12109375 3466.753662109375,2827.078125 C3463.700439453125,2826.6943359375 3459.86865234375,2826.7216796875 3456.888671875,2826.302490234375 C3449.511474609375,2825.31982421875 3444.25634765625,2823.40869140625 3437.353515625,2822.205078125 C3378.4296875,2757.810302734375 3379.80810546875,2693.20751953125 3440.732421875,2628.3984375 C3473.062255859375,2623.067138671875 3509.652099609375,2619.650146484375 3552.064453125,2619.650390625 ZM2522.783203125,2866.775146484375 C2579.070068359375,2884.019287109375 2612.34326171875,2914.65625 2622.001953125,2959.037109375 C2622.13427734375,2959.67626953125 2622.285400390625,2960.3046875 2622.407958984375,2960.94921875 C2622.97900390625,2963.78857421875 2623.362060546875,2966.736572265625 2623.748046875,2969.68359375 C2623.974365234375,2971.554931640625 2624.204833984375,2973.423583984375 2624.357421875,2975.337158203125 C2624.678466796875,2978.933349609375 2624.359130859375,2982.902099609375 2624.41796875,2986.650390625 C2624.520263671875,3001.980224609375 2622.77978515625,3018.383544921875 2618.55078125,3036.234375 C2591.113037109375,3057.262939453125 2564.46923828125,3078.303466796875 2528.501708984375,3099.1875 L2421.830078125,2914.423828125 C2458.827392578125,2893.063232421875 2491.976318359375,2878.293701171875 2522.783203125,2866.775146484375 ZM3435.025390625,2877.140625 C3463.0927734375,2888.3349609375 3492.814697265625,2901.923095703125 3525.720458984375,2920.921875 L3419.0390625,3105.697265625 C3386.20654296875,3086.635498046875 3361.783935546875,3067.431640625 3336.84765625,3048.236328125 C3330.11669921875,2982.45556640625 3346.19921875,2910.859130859375 3435.025390625,2877.140625 ZM3226.97265625,3073.28125 C3245.7119140625,3071.581787109375 3266.531005859375,3073.45654296875 3289.407958984375,3078.8671875 C3310.533935546875,3106.481201171875 3331.674560546875,3133.201904296875 3352.65625,3169.3359375 L3167.88427734375,3276.013427734375 C3146.596435546875,3239.141845703125 3131.606201171875,3205.927490234375 3120.048828125,3175.169921875 C3135.849609375,3123.188720703125 3163.148681640625,3090.966064453125 3201.7578125,3078.17578125 C3209.706298828125,3075.75927734375 3218.0869140625,3074.087158203125 3226.97265625,3073.28125 ZM2675.431640625,3081.9765625 C2733.1611328125,3081.976806640625 2790.66455078125,3104.687255859375 2820.09765625,3181.296875 C2809.038330078125,3209.480224609375 2796.112060546875,3239.010009765625 2776.916015625,3272.2578125 L2592.142333984375,3165.580078125 C2611.220458984375,3132.759521484375 2630.453857421875,3109.158447265625 2649.650390625,3083.337890625 C2658.177001953125,3082.467041015625 2666.8017578125,3081.975830078125 2675.431640625,3081.9765625 ZM2971.859375,3139.55224609375 C3004.1123046875,3139.887451171875 3036.422607421875,3156.8388671875 3068.779296875,3187.12109375 C3069.836181640625,3193.43310546875 3071.51171875,3198.32568359375 3072.38671875,3205.025390625 C3073.09033203125,3210.061279296875 3073.087158203125,3216.436767578125 3073.693359375,3221.671875 C3076.173828125,3245.485595703125 3078.185791015625,3270.29345703125 3078.185546875,3298.59765625 L2865.607421875,3298.59765625 C2865.607421875,3255.1396484375 2868.990966796875,3217.3916015625 2874.5703125,3184.519287109375 C2906.947509765625,3154.552001953125 2939.377197265625,3139.215576171875 2971.859375,3139.55224609375 Z" fill-rule="evenodd" transform="matrix(0.082279, 0.000000, 0.000000, 0.082279, 532.506348, 3993.962891)" style="fill:#000000;" />
	<path d="M-430.4355163574219,-1701.474609375 C-440.0421142578125,-1702.1534423828125 -449.9481201171875,-1700.070068359375 -458.91595458984375,-1694.8924560546875 L-1329.0546875,-1192.517578125 C-1352.96923828125,-1178.71044921875 -1361.16259765625,-1148.131591796875 -1347.35546875,-1124.2166748046875 L-587.59375,191.74609375 L-2125.45703125,191.755859375 C-2153.071044921875,191.755859375 -2175.45703125,214.14210510253906 -2175.45703125,241.755859375 L-2175.45703125,1246.50390625 C-2175.45703125,1274.1180419921875 -2153.071044921875,1296.50390625 -2125.45703125,1296.50390625 Q-605.9198608398438,1296.515625 -1374.8416748046875,2628.34765625 C-1388.6490478515625,2652.26220703125 -1380.4549560546875,2682.84130859375 -1356.541015625,2696.6484375 L-486.40234375,3199.021484375 C-462.48779296875,3212.828857421875 -431.90869140625,3204.634521484375 -418.1015625,3180.720703125 L341.67578125,1864.76953125 L1110.615234375,3196.591796875 C1124.42236328125,3220.506591796875 1155.0018310546875,3228.69921875 1178.9158935546875,3214.892578125 L2049.0546875,2712.517333984375 C2072.96923828125,2698.710693359375 2081.16259765625,2668.131103515625 2067.35546875,2644.216796875 Q1307.59375,1328.25390625 2845.45703125,1328.244140625 C2873.071044921875,1328.244140625 2895.45703125,1305.8580322265625 2895.45703125,1278.244140625 L2895.45703125,273.49609375 C2895.45703125,245.88182067871094 2873.071044921875,223.49609375 2845.45703125,223.49609375 L1325.9195556640625,223.484375 L2094.841796875,-1108.34765625 C2108.64892578125,-1132.26220703125 2100.454833984375,-1162.841552734375 2076.541015625,-1176.6484375 L1206.40234375,-1679.0234375 C1197.4344482421875,-1684.2010498046875 1187.5302734375,-1686.2841796875 1177.923828125,-1685.6053466796875 C1161.9129638671875,-1684.4739990234375 1146.73095703125,-1675.6671142578125 1138.1015625,-1660.7205810546875 Q378.32421875,-344.76953125 -390.615234375,-1676.5916748046875 C-399.24468994140625,-1691.538330078125 -414.42462158203125,-1700.343017578125 -430.4355163574219,-1701.474609375 ZM-452.2167663574219,-1583.2890625 Q301.599609375,-277.662109375 -481.955078125,174.72265625 L-1235.75390625,-1130.9158935546875 L-452.2167663574219,-1583.2890625 ZM1199.703125,-1567.419921875 L1983.239990234375,-1115.046875 L1229.44140625,190.591796875 L1204.44140625,233.89451599121094 L1229.44140625,190.591796875 Q445.8885803222656,-261.79296875 1199.703125,-1567.419921875 ZM1187.841796875,282.044921875 Q1187.841796875,1237.955078125 360.0,1715.908203125 Q-467.841796875,1237.955078125 -467.841796875,282.044921875 Q360.0,-195.908203125 1187.841796875,282.044921875 ZM-567.841796875,291.74609375 C-567.841796875,1196.515625 -2075.45703125,1196.5057373046875 -2075.45703125,1196.5057373046875 L-2075.45703125,291.7558288574219 L-567.841796875,291.74609375 ZM2795.45703125,323.494140625 L2795.45703125,1228.244140625 C1287.841796875,1228.25390625 1287.841796875,323.484375 1237.8416748046875,323.484375 L1287.841796875,323.484375 L2795.45703125,323.494140625 ZM274.11328125,1781.79296875 L299.11328125,1738.4921875 L274.11328125,1781.79296875 L-479.703125,3087.419677734375 L-1263.240234375,2635.046875 Q-509.4413757324219,1329.408203125 274.11328125,1781.79296875 ZM1955.7540283203125,2650.916015625 L1172.2166748046875,3103.2890625 L418.400390625,1797.6619873046875 L375.099609375,1822.661865234375 L418.400390625,1797.6619873046875 C1232.025390625,1327.9156494140625 1201.9549560546875,1345.27734375 1955.7540283203125,2650.916015625 ZM1187.841796875,282.044921875 Q1187.841796875,1237.955078125 360.0,1715.908203125 Q-467.841796875,1237.955078125 -467.841796875,282.044921875 Q360.0,-195.908203125 1187.841796875,282.044921875 Z" fill-rule="evenodd" transform="matrix(0.019473, 0.000000, 0.000000, 0.019473, 494.307800, 4197.693848)" style="fill:#000000;" />
	<path d="M-430.4355163574219,-1701.474609375 C-440.0421142578125,-1702.1534423828125 -449.9481201171875,-1700.070068359375 -458.91595458984375,-1694.8924560546875 L-1329.0546875,-1192.517578125 C-1352.96923828125,-1178.71044921875 -1361.16259765625,-1148.131591796875 -1347.35546875,-1124.2166748046875 L-587.59375,191.74609375 L-2125.45703125,191.755859375 C-2153.071044921875,191.755859375 -2175.45703125,214.14210510253906 -2175.45703125,241.755859375 L-2175.45703125,1246.50390625 C-2175.45703125,1274.1180419921875 -2153.071044921875,1296.50390625 -2125.45703125,1296.50390625 Q-605.9198608398438,1296.515625 -1374.8416748046875,2628.34765625 C-1388.6490478515625,2652.26220703125 -1380.4549560546875,2682.84130859375 -1356.541015625,2696.6484375 C-486.40234375,3199.021484375 -418.1015625,3180.720703125 341.67578125,1864.76953125 C1110.615234375,3196.591796875 1178.9158935546875,3214.892578125 2049.0546875,2712.517333984375 C2072.96923828125,2698.710693359375 2081.16259765625,2668.131103515625 2067.35546875,2644.216796875 Q1307.59375,1328.25390625 2845.45703125,1328.244140625 C2873.071044921875,1328.244140625 2895.45703125,1305.8580322265625 2895.45703125,1278.244140625 L2895.45703125,273.49609375 C2895.45703125,245.88182067871094 2873.071044921875,223.49609375 2845.45703125,223.49609375 L1325.9195556640625,223.484375 L2094.841796875,-1108.34765625 C2108.64892578125,-1132.26220703125 2100.454833984375,-1162.841552734375 2076.541015625,-1176.6484375 L1206.40234375,-1679.0234375 C1197.4344482421875,-1684.2010498046875 1187.5302734375,-1686.2841796875 1177.923828125,-1685.6053466796875 C1161.9129638671875,-1684.4739990234375 1146.73095703125,-1675.6671142578125 1138.1015625,-1660.7205810546875 Q378.32421875,-344.76953125 -390.615234375,-1676.5916748046875 C-399.24468994140625,-1691.538330078125 -414.42462158203125,-1700.343017578125 -430.4355163574219,-1701.474609375 ZM-452.2167663574219,-1583.2890625 Q301.599609375,-277.662109375 -481.955078125,174.72265625 L-1235.75390625,-1130.9158935546875 L-452.2167663574219,-1583.2890625 ZM1199.703125,-1567.419921875 L1983.239990234375,-1115.046875 L1229.44140625,190.591796875 L1204.44140625,233.89451599121094 L1229.44140625,190.591796875 Q445.8885803222656,-261.79296875 1199.703125,-1567.419921875 ZM1187.841796875,282.044921875 Q1187.841796875,1237.955078125 360.0,1715.908203125 Q-467.841796875,1237.955078125 -467.841796875,282.044921875 Q360.0,-195.908203125 1187.841796875,282.044921875 ZM-567.841796875,291.74609375 C-567.841796875,1196.515625 -2075.45703125,1196.5057373046875 -2075.45703125,1196.5057373046875 L-2075.45703125,291.7558288574219 L-567.841796875,291.74609375 ZM2795.45703125,323.494140625 L2795.45703125,1228.244140625 C1287.841796875,1228.25390625 1287.841796875,323.484375 1237.8416748046875,323.484375 L1287.841796875,323.484375 L2795.45703125,323.494140625 ZM299.11328125,1738.4921875M375.099609375,1822.661865234375M1187.841796875,282.044921875 Q1187.841796875,1237.955078125 360.0,1715.908203125 Q-467.841796875,1237.955078125 -467.841796875,282.044921875 Q360.0,-195.908203125 1187.841796875,282.044921875 Z" fill-rule="evenodd" transform="matrix(0.019473, 0.000000, 0.000000, 0.019473, 358.435425, 4198.487793)" style="fill:#000000;" />
	<path d="M-430.4355163574219,-1701.474609375 C-440.0421142578125,-1702.1534423828125 -449.9481201171875,-1700.070068359375 -458.91595458984375,-1694.8924560546875 C-1329.0546875,-1192.517578125 -1347.35546875,-1124.2166748046875 -587.59375,191.74609375 L-2125.45703125,191.755859375 C-2153.071044921875,191.755859375 -2175.45703125,214.14210510253906 -2175.45703125,241.755859375 C-2175.45703125,1246.50390625 -2125.45703125,1296.50390625 -605.9198608398438,1296.515625 L-1374.8416748046875,2628.34765625 C-1388.6490478515625,2652.26220703125 -1380.4549560546875,2682.84130859375 -1356.541015625,2696.6484375 L-486.40234375,3199.021484375 C-462.48779296875,3212.828857421875 -431.90869140625,3204.634521484375 -418.1015625,3180.720703125 L341.67578125,1864.76953125 L1110.615234375,3196.591796875 C1124.42236328125,3220.506591796875 1155.0018310546875,3228.69921875 1178.9158935546875,3214.892578125 C2049.0546875,2712.517333984375 2067.35546875,2644.216796875 1307.59375,1328.25390625 L2845.45703125,1328.244140625 C2873.071044921875,1328.244140625 2895.45703125,1305.8580322265625 2895.45703125,1278.244140625 C2895.45703125,273.49609375 2845.45703125,223.49609375 1325.9195556640625,223.484375 L2094.841796875,-1108.34765625 C2108.64892578125,-1132.26220703125 2100.454833984375,-1162.841552734375 2076.541015625,-1176.6484375 C1206.40234375,-1679.0234375 1138.1015625,-1660.7205810546875 378.32421875,-344.76953125 L-390.615234375,-1676.5916748046875 C-399.24468994140625,-1691.538330078125 -414.42462158203125,-1700.343017578125 -430.4355163574219,-1701.474609375 ZM-452.2167663574219,-1583.2890625 L301.599609375,-277.662109375 L-481.955078125,174.72265625 Q-1235.75390625,-1130.9158935546875 -452.2167663574219,-1583.2890625 ZM1983.239990234375,-1115.046875 L1229.44140625,190.591796875 L1204.44140625,233.89451599121094 L1229.44140625,190.591796875 L445.8885803222656,-261.79296875 Q1199.703125,-1567.419921875 1983.239990234375,-1115.046875 ZM360.0,-195.908203125 L1187.841796875,282.044921875 L1187.841796875,1237.955078125 L360.0,1715.908203125 L-467.841796875,1237.955078125 L-467.841796875,282.044921875 L360.0,-195.908203125 ZM-567.841796875,291.74609375 L-567.841796875,1196.515625 C-517.8417358398438,1196.515625 -2075.45703125,1196.5057373046875 -2075.45703125,291.7558288574219 L-567.841796875,291.74609375 ZM2795.45703125,1228.244140625 L1287.841796875,1228.25390625 L1237.8416748046875,1228.25390625 L1287.841796875,1228.25390625 L1287.841796875,323.484375 L1237.8416748046875,323.484375 L1287.841796875,323.484375 Q2795.45703125,323.494140625 2795.45703125,1228.244140625 ZM-509.4413757324219,1329.408203125 L274.11328125,1781.79296875 L299.11328125,1738.4921875 L274.11328125,1781.79296875 Q-479.703125,3087.419677734375 -1263.240234375,2635.046875 L-509.4413757324219,1329.408203125 ZM1232.025390625,1327.9156494140625 L1201.9549560546875,1345.27734375 Q1955.7540283203125,2650.916015625 1172.2166748046875,3103.2890625 L418.400390625,1797.6619873046875 L375.099609375,1822.661865234375 L418.400390625,1797.6619873046875 L1201.9549560546875,1345.27734375 L1232.025390625,1327.9156494140625 ZM360.0,-195.908203125 L1187.841796875,282.044921875 L1187.841796875,1237.955078125 L360.0,1715.908203125 L-467.841796875,1237.955078125 L-467.841796875,282.044921875 L360.0,-195.908203125 Z" fill-rule="evenodd" transform="matrix(0.019473, 0.000000, 0.000000, 0.019473, 632.060852, 4084.207275)" style="fill:#000000;" />
</svg>