<?xml version="1.0" encoding="UTF-8"?>
<!-- Created with Grafika (https://www.grafika.cc/) -->
<svg version="1.0" xmlns="http://www.w3.org/2000/svg" xmlns:svg="http://www.w3.org/2000/svg" width="543" height="229" viewBox="-349.177551 -1393.213379 542.548950 228.750366" preserveAspectRatio="xMinYMin meet">
	<path d="M1686.2890625,10657.69921875 L1686.2890625,10719.19140625 L1894.13671875,10719.19140625 L2101.765625,10719.19140625 L2371.10546875,10719.19140625 L2371.10546875,11851.796875 L2432.59765625,11851.796875 L2432.59765625,11851.7919921875 L2432.599609375,11851.7919921875 L2432.599609375,10657.69921875 L2432.59765625,10657.69921875 L2163.2578125,10657.69921875 L1955.62890625,10657.69921875 L1686.2890625,10657.69921875 ZM2371.10546875,11851.796875 L1686.2890625,11851.796875 L1686.2890625,11851.7919921875 L1686.2890625,11582.455078125 L1686.2890625,11389.41796875 L1686.2890625,11120.078125 L1686.2890625,10927.0390625 L1686.2890625,10719.19140625 L1624.7947998046875,10719.19140625 L1624.7947998046875,10988.53515625 L1624.7947998046875,11181.5703125 L1624.7947998046875,11450.91015625 L1624.7947998046875,11643.94921875 L1624.7947998046875,11913.2890625 L2371.10546875,11913.2890625 L2371.10546875,11851.796875 ZM1955.62890625,10927.0390625 L1955.62890625,10988.53515625 L2101.765625,10988.53515625 L2101.765625,11120.078125 L2163.2578125,11120.078125 L2163.2578125,10927.0390625 L1955.62890625,10927.0390625 ZM2101.765625,11120.078125 L1955.62890625,11120.078125 L1955.62890625,10988.53515625 L1894.13671875,10988.53515625 L1894.13671875,11181.5703125 L2101.765625,11181.5703125 L2101.765625,11120.078125 ZM1955.62890625,11389.41796875 L1955.62890625,11450.91015625 L2101.765625,11450.91015625 L2101.765625,11582.455078125 L2163.2578125,11582.455078125 L2163.2578125,11389.41796875 L1955.62890625,11389.41796875 ZM2101.765625,11582.455078125 L1955.62890625,11582.455078125 L1955.62890625,11450.91015625 L1894.13671875,11450.91015625 L1894.13671875,11643.94921875 L2101.765625,11643.94921875 L2101.765625,11582.455078125 Z" fill-rule="evenodd" transform="matrix(0.077970, 0.000000, 0.000000, 0.077970, -116.408806, -2093.346680)" style="fill:#000000;" />
	<path d="M2861.607421875,10659.380859375 L2861.607421875,10660.263671875 L2861.607421875,10928.72265625 L2861.607421875,11121.7587890625 L2861.607421875,11391.09765625 L2861.607421875,11391.099609375 L2911.69921875,11391.099609375 L2911.69921875,11171.8466796875 L2911.69921875,10978.8125 L2911.69921875,10710.35546875 L2911.69921875,10709.47265625 L3607.91796875,10709.47265625 L3607.91796875,10659.380859375 L2861.607421875,10659.380859375 ZM3607.91796875,10709.47265625 L3607.91796875,10928.72265625 L3607.915771484375,10928.72265625 L3607.915771484375,11121.7587890625 L3607.91796875,11121.7587890625 L3607.91796875,11391.09765625 L3607.915771484375,11391.09765625 L3607.915771484375,11584.13671875 L3607.91796875,11584.13671875 L3607.91796875,11853.4765625 L2911.69921875,11853.4765625 L2911.69921875,11903.5654296875 L3658.0078125,11903.5654296875 L3658.0078125,11634.2265625 L3658.0078125,11441.189453125 L3658.0078125,11171.8466796875 L3658.0078125,10978.8125 L3658.0078125,10709.47265625 L3607.91796875,10709.47265625 ZM2911.69921875,11853.4765625 L2911.69921875,11634.2265625 L3388.666015625,11634.2265625 L3388.666015625,11441.189453125 L3338.575927734375,11441.189453125 L3338.575927734375,11584.13671875 L2861.607421875,11584.13671875 L2861.607421875,11853.4765625 L2911.69921875,11853.4765625 ZM3338.575927734375,11441.189453125 L3338.575927734375,11391.09765625 L3130.947265625,11391.09765625 L3130.947265625,11391.099609375 L2911.69921875,11391.099609375 L2911.69921875,11441.189453125 L2911.69921875,11441.19140625 L3181.0390625,11441.19140625 L3181.0390625,11441.189453125 L3338.575927734375,11441.189453125 ZM3130.947265625,10928.72265625 L3130.947265625,11121.7587890625 L3181.0390625,11121.7587890625 L3181.0390625,10978.8125 L3338.575927734375,10978.8125 L3338.575927734375,10928.72265625 L3130.947265625,10928.72265625 ZM3338.575927734375,10978.8125 L3338.575927734375,11121.7587890625 L3181.0390625,11121.7587890625 L3181.0390625,11171.8466796875 L3388.666015625,11171.8466796875 L3388.666015625,10978.8125 L3338.575927734375,10978.8125 Z" fill-rule="evenodd" transform="matrix(0.077970, 0.000000, 0.000000, 0.077970, -93.145790, -2093.468994)" style="fill:#000000;" />
	<path d="M496.71875,10598.83203125 L496.71875,10651.43359375 L1181.912109375,10651.43359375 L1181.912109375,10651.435546875 L1181.912109375,10920.7734375 L1181.912109375,11787.685546875 L1239.751953125,11787.685546875 L1239.751953125,10866.98828125 L1239.751953125,10598.83203125 L496.71875,10598.83203125 ZM1181.912109375,11787.685546875 L971.59375,11787.685546875 L971.59375,10866.98828125 L496.71875,10866.98828125 L496.71875,10651.43359375 L435.6015625,10651.43359375 L435.6015625,10920.7734375 L912.5702514648438,10920.7734375 L912.5702514648438,11845.5302734375 L1181.912109375,11845.5302734375 L1181.912109375,11787.685546875 Z" fill-rule="evenodd" transform="matrix(0.076947, 0.000000, 0.000000, 0.077970, -145.325516, -2090.983643)" style="fill:#000000;" />
	<path d="M2847.336181640625,8999.62890625 L2847.336181640625,9272.04296875 L2847.336181640625,9467.279296875 L2847.336181640625,9603.48828125 L2847.336181640625,9686.5625 L2847.336181640625,9739.69140625 L2847.336181640625,9934.93359375 L2847.336181640625,10071.13671875 L2847.336181640625,10207.34765625 L2907.0546875,10207.34765625 L2907.0546875,10123.880859375 L2907.0546875,9989.2109375 L2907.0546875,9796.171875 L2907.0546875,9743.640625 L2907.0546875,9661.50390625 L2907.0546875,9526.83203125 L2907.0546875,9333.796875 L2907.0546875,9064.455078125 L3176.396484375,9064.455078125 L3602.158203125,9064.455078125 L3602.158203125,8999.62890625 L3119.75,8999.62890625 L2847.336181640625,8999.62890625 ZM3602.158203125,9064.455078125 L3602.158203125,9272.04296875 L3119.75,9272.04296875 L3119.75,9467.279296875 L3176.396484375,9467.279296875 L3176.396484375,9333.796875 L3653.364990234375,9333.796875 L3653.364990234375,9064.455078125 L3602.158203125,9064.455078125 ZM3176.396484375,9467.279296875 L3176.396484375,9526.83203125 L3602.158203125,9526.83203125 L3602.158203125,9467.279296875 L3176.396484375,9467.279296875 ZM3602.158203125,9526.83203125 L3602.158203125,9739.69140625 L3602.158203125,9934.93359375 L3602.158203125,10207.34765625 L2907.0546875,10207.34765625 L2907.0546875,10258.55078125 L3653.364990234375,10258.55078125 L3653.364990234375,9989.2109375 L3653.364990234375,9796.171875 L3653.364990234375,9526.83203125 L3602.158203125,9526.83203125 ZM3119.75,9739.69140625 L3119.75,9934.93359375 L3176.396484375,9934.93359375 L3176.396484375,9796.171875 L3329.744140625,9796.171875 L3329.744140625,9739.69140625 L3119.75,9739.69140625 ZM3329.744140625,9796.171875 L3329.744140625,9934.93359375 L3176.396484375,9934.93359375 L3176.396484375,9989.2109375 L3384.0234375,9989.2109375 L3384.0234375,9796.171875 L3329.744140625,9796.171875 Z" fill-rule="evenodd" transform="matrix(0.077970, 0.000000, 0.000000, 0.077970, -448.707825, -1967.582520)" style="fill:#000000;" />
	<path d="M1630.990234375,8995.15234375 L1630.990234375,9053.25 L1842.234375,9053.25 L2319.203125,9053.25 L2319.203125,9264.4921875 L2377.30078125,9264.4921875 L2377.30078125,8995.15234375 L1900.33203125,8995.15234375 L1630.990234375,8995.15234375 ZM2319.203125,9264.4921875 L1900.33203125,9264.4921875 L1900.33203125,9322.58984375 L2319.203125,9322.58984375 L2319.203125,9264.4921875 ZM1900.33203125,9322.58984375 L1842.234375,9322.58984375 L1842.234375,9515.626953125 L2319.203125,9515.626953125 L2319.203125,9784.966796875 L2319.203125,9978.005859375 L2319.203125,10189.25 L2377.30078125,10189.25 L2377.30078125,9919.908203125 L2377.30078125,9726.8671875 L2377.30078125,9457.529296875 L1900.33203125,9457.529296875 L1900.33203125,9322.58984375 ZM2319.203125,10189.25 L1630.990234375,10189.25 L1630.990234375,9978.005859375 L1572.892578125,9978.005859375 L1572.892578125,10247.34765625 L2319.203125,10247.34765625 L2319.203125,10189.25 ZM1630.990234375,9978.005859375 L2049.86328125,9978.005859375 L2049.86328125,9919.908203125 L1630.990234375,9919.908203125 L1630.990234375,9978.005859375 ZM2049.86328125,9919.908203125 L2107.958984375,9919.908203125 L2107.958984375,9726.8671875 L1630.990234375,9726.8671875 L1630.990234375,9674.337890625 L1630.990234375,9457.529296875 L1630.990234375,9264.4921875 L1630.990234375,9053.25 L1572.892578125,9053.25 L1572.892578125,9322.58984375 L1572.892578125,9515.626953125 L1572.892578125,9732.435546875 L1572.892578125,9784.966796875 L2049.86328125,9784.966796875 L2049.86328125,9919.908203125 Z" fill-rule="evenodd" transform="matrix(0.077970, 0.000000, 0.000000, 0.077970, -471.816589, -1971.156616)" style="fill:#000000;" />
	<path d="M485.67767333984375,8956.94921875 L485.67767333984375,8998.37890625 L702.43359375,8998.37890625 L702.43359375,9451.658203125 L911.318359375,9451.658203125 L911.318359375,9419.32421875 L762.0859375,9419.32421875 L762.0859375,8956.94921875 L485.67767333984375,8956.94921875 ZM911.318359375,9419.32421875 L975.1641235351562,9419.32421875 L975.1641235351562,8998.37890625 L911.318359375,8998.37890625 L911.318359375,9419.32421875 ZM975.1641235351562,8998.37890625 L1182.287109375,8998.37890625 L1182.287109375,9451.658203125 L1182.287109375,9715.69921875 L1182.287109375,10151.044921875 L1251.572265625,10151.044921875 L1251.572265625,9688.66796875 L1251.572265625,9419.32421875 L1251.572265625,8956.94921875 L975.1641235351562,8956.94921875 L975.1641235351562,8998.37890625 ZM1182.287109375,10151.044921875 L975.1641235351562,10151.044921875 L975.1641235351562,9688.66796875 L485.67767333984375,9688.66796875 L485.67767333984375,9620.8125 L485.67767333984375,9419.32421875 L485.67767333984375,8998.37890625 L431.46484375,8998.37890625 L431.46484375,9451.658203125 L431.46484375,9649.1796875 L431.46484375,9715.69921875 L911.318359375,9715.69921875 L911.318359375,10168.978515625 L1182.287109375,10168.978515625 L1182.287109375,10151.044921875 Z" fill-rule="evenodd" transform="matrix(0.077970, 0.000000, 0.000000, 0.077970, 95.785828, -2086.507568)" style="fill:#000000;" />
	<path d="M349.443359375,7098.01123046875 L349.443359375,7145.95068359375 L573.765625,7145.95068359375 L573.765625,7145.953125 L783.6464233398438,7145.953125 L783.6464233398438,7145.95068359375 L1055.908203125,7145.95068359375 L1055.908203125,7145.953125 L1055.908203125,7418.21533203125 L1055.908203125,8080.73583984375 L1055.908203125,8305.05859375 L357.537109375,8305.05859375 L357.537109375,8035.71875 L357.537109375,7380.3046875 L357.537109375,7158.38671875 L310.11328125,7158.38671875 L310.11328125,7158.388671875 L310.11328125,7427.728515625 L310.11328125,8083.142578125 L310.11328125,8352.484375 L1056.421875,8352.484375 L1056.421875,8305.060546875 L1103.84765625,8305.060546875 L1103.84765625,8032.798828125 L1103.84765625,7370.275390625 L1103.84765625,7098.01123046875 L831.583984375,7098.01123046875 L621.705078125,7098.01123046875 L349.443359375,7098.01123046875 ZM626.87890625,7380.3046875 L626.87890625,7427.728515625 L787.08203125,7427.728515625 L787.08203125,8035.71875 L834.505859375,8035.71875 L834.505859375,7380.3046875 L626.87890625,7380.3046875 ZM787.08203125,8035.71875 L626.87890625,8035.71875 L626.87890625,7427.728515625 L579.453125,7427.728515625 L579.453125,8083.142578125 L787.08203125,8083.142578125 L787.08203125,8035.71875 Z" fill-rule="evenodd" transform="matrix(0.077970, 0.000000, 0.000000, 0.077970, -371.275360, -1946.647949)" style="fill:#000000;" />
	<path d="M3294.878662109375,7095.78515625 L3294.878662109375,7126.302734375 L3717.064453125,7126.302734375 L3986.40625,7126.302734375 L3986.40625,7395.642578125 L3986.40625,7588.6796875 L3986.40625,7858.01953125 L3986.40625,8051.056640625 L3986.40625,8275.349609375 L4032.107177734375,8275.349609375 L4032.107177734375,8009.287109375 L4032.107177734375,7818.59765625 L4032.107177734375,7552.53515625 L4032.107177734375,7361.84765625 L4032.107177734375,7095.78515625 L3766.04296875,7095.78515625 L3294.878662109375,7095.78515625 ZM3986.40625,8275.349609375 L3766.04296875,8275.349609375 L3294.878662109375,8275.349609375 L3294.878662109375,8051.056640625 L3240.095458984375,8051.056640625 L3240.095458984375,8320.396484375 L3717.064453125,8320.396484375 L3986.40625,8320.396484375 L3986.40625,8275.349609375 ZM3294.878662109375,8051.056640625 L3717.064453125,8051.056640625 L3717.064453125,8009.287109375 L3294.878662109375,8009.287109375 L3294.878662109375,8051.056640625 ZM3717.064453125,8009.287109375 L3766.04296875,8009.287109375 L3766.04296875,7818.59765625 L3294.878662109375,7818.59765625 L3294.878662109375,7588.6796875 L3240.095458984375,7588.6796875 L3240.095458984375,7858.01953125 L3717.064453125,7858.01953125 L3717.064453125,8009.287109375 ZM3294.878662109375,7588.6796875 L3717.064453125,7588.6796875 L3717.064453125,7552.53515625 L3294.878662109375,7552.53515625 L3294.878662109375,7588.6796875 ZM3717.064453125,7552.53515625 L3766.04296875,7552.53515625 L3766.04296875,7361.84765625 L3294.878662109375,7361.84765625 L3294.878662109375,7126.302734375 L3240.095458984375,7126.302734375 L3240.095458984375,7395.642578125 L3717.064453125,7395.642578125 L3717.064453125,7552.53515625 Z" fill-rule="evenodd" transform="matrix(0.077970, 0.000000, 0.000000, 0.077970, -254.688873, -1944.433716)" style="fill:#000000;" />
	<path d="M1571.3125,7064.68701171875 L1571.3125,7121.49267578125 L1790.91796875,7121.49267578125 L1790.91796875,7583.86865234375 L1790.91796875,7853.20849609375 L1790.91796875,8258.78515625 L1847.72265625,8258.78515625 L1847.72265625,7796.40625 L1847.72265625,7527.0634765625 L1847.72265625,7064.68701171875 L1571.3125,7064.68701171875 ZM1790.91796875,8258.78515625 L1571.3125,8258.78515625 L1571.3125,7796.40625 L1571.3125,7527.0634765625 L1571.3125,7121.49267578125 L1514.509765625,7121.49267578125 L1514.509765625,7583.86865234375 L1514.509765625,7853.20849609375 L1514.509765625,8315.587890625 L1790.91796875,8315.587890625 L1790.91796875,8258.78515625 Z" fill-rule="evenodd" transform="matrix(0.077970, 0.000000, 0.000000, 0.077970, -337.154327, -1942.348145)" style="fill:#000000;" />
	<path d="M2157.955078125,7054.892578125 L2157.955078125,7110.4140625 L2590.52734375,7110.4140625 L2857.8203125,7110.4140625 L2857.8203125,7377.705078125 L2857.8203125,7569.27392578125 L2857.8203125,7786.6103515625 L2904.263671875,7786.6103515625 L2904.263671875,7517.26953125 L2904.263671875,7324.234375 L2904.263671875,7054.892578125 L2634.923828125,7054.892578125 L2157.955078125,7054.892578125 ZM2857.8203125,7786.6103515625 L2427.294677734375,7786.6103515625 L2427.294677734375,7836.56591796875 L2857.8203125,7836.56591796875 L2857.8203125,7786.6103515625 ZM2427.294677734375,7836.56591796875 L2384.478515625,7836.56591796875 L2384.478515625,8028.13623046875 L2857.8203125,8028.13623046875 L2857.8203125,8248.98828125 L2904.263671875,8248.98828125 L2904.263671875,7979.6484375 L2427.294677734375,7979.6484375 L2427.294677734375,7836.56591796875 ZM2857.8203125,8248.98828125 L2157.955078125,8248.98828125 L2157.955078125,8158.3671875 L2157.955078125,7979.6484375 L2157.955078125,7786.6103515625 L2157.955078125,7594.66015625 L2157.955078125,7569.27392578125 L2117.185546875,7569.27392578125 L2117.185546875,7646.076171875 L2117.185546875,7836.56591796875 L2117.185546875,8028.13623046875 L2117.185546875,8205.494140625 L2117.185546875,8295.4296875 L2857.8203125,8295.4296875 L2857.8203125,8248.98828125 ZM2157.955078125,7569.27392578125 L2590.52734375,7569.27392578125 L2590.52734375,7517.26953125 L2157.955078125,7517.26953125 L2157.955078125,7569.27392578125 ZM2590.52734375,7517.26953125 L2634.923828125,7517.26953125 L2634.923828125,7324.234375 L2157.955078125,7324.234375 L2157.955078125,7110.4140625 L2117.185546875,7110.4140625 L2117.185546875,7377.705078125 L2590.52734375,7377.705078125 L2590.52734375,7517.26953125 Z" fill-rule="evenodd" transform="matrix(0.077791, 0.000000, 0.000000, 0.076948, -290.577362, -1931.821167)" style="fill:#000000;" />
</svg>