<?xml version="1.0" encoding="UTF-8"?>
<!-- Created with Grafika (https://www.grafika.cc/) -->
<svg version="1.0" xmlns="http://www.w3.org/2000/svg" xmlns:svg="http://www.w3.org/2000/svg" width="525" height="215" viewBox="-337.633118 -1387.233154 524.703903 214.611084" preserveAspectRatio="xMinYMin meet">
	<path d="M20632.447265625,464.3984375 L19528.4453125,7094.798828125 L14038.9921875,3215.72265625 L17958.64453125,8641.140625 L11356.33203125,9740.4619140625 L17695.21875,10795.9228515625 L13477.8994140625,15644.6328125 L19491.119140625,12162.09375 L20632.439453125,19016.63671875 L21736.44921875,12386.1806640625 L27225.921875,16265.267578125 L23306.224609375,10839.796875 L29908.5703125,9740.4677734375 L23569.69921875,8685.009765625 L27786.982421875,3836.336181640625 L21773.755859375,7318.87890625 L20632.447265625,464.3984375 Z" fill-rule="evenodd" transform="matrix(0.004497, 0.000000, 0.000000, 0.004497, 52.564938, -1389.321655)" style="fill:#000000;" />
	<path d="M-54623.9765625,12757.5703125 L-55130.890625,15802.0 L-56766.58984375,13184.7421875 L-56064.37109375,16202.9931640625 L-58595.125,14414.6552734375 L-56787.73046875,16916.376953125 L-59798.6171875,16238.0712890625 L-57192.09375,17841.77734375 L-60210.85546875,18344.419921875 L-57166.51171875,18851.3203125 L-59783.73828125,20487.00390625 L-57175.984375,19880.287109375 L-58933.0625,21900.423828125 L-56262.390625,20353.712890625 L-57239.91796875,23281.083984375 L-55181.078125,20585.521484375 L-54623.9765625,23931.3359375 L-54117.08203125,20887.01171875 L-52481.4453125,23504.177734375 L-53183.6953125,20485.80078125 L-50652.8125,22274.224609375 L-52460.1875,19772.53515625 L-49449.40234375,20450.81640625 L-52055.97265625,18847.0859375 L-49037.08984375,18344.423828125 L-52081.49609375,17837.51171875 L-49464.30859375,16201.849609375 L-52071.93359375,16808.5390625 L-50314.890625,14788.443359375 L-52985.671875,16335.21875 L-52008.13671875,13407.7978515625 L-54066.8984375,16103.26171875 L-54623.9765625,12757.5703125 Z" fill-rule="evenodd" transform="matrix(0.007497, 0.000000, 0.000000, 0.007497, 402.891388, -1482.780762)" style="fill:#000000;" />
	<path d="M19528.4453125,7094.798828125 Q14038.9921875,3215.72265625 17958.64453125,8641.140625 Q11356.33203125,9740.4619140625 17695.21875,10795.9228515625 Q13477.8994140625,15644.6328125 19491.119140625,12162.09375 Q20632.439453125,19016.63671875 21736.44921875,12386.1806640625 Q27225.921875,16265.267578125 23306.224609375,10839.796875 Q29908.5703125,9740.4677734375 23569.69921875,8685.009765625 Q27786.982421875,3836.336181640625 21773.755859375,7318.87890625 Q20632.447265625,464.3984375 19528.4453125,7094.798828125 Z" fill-rule="evenodd" transform="matrix(0.006526, 0.000000, 0.000000, 0.006526, -432.850616, -1406.288086)" style="fill:#000000;" />
	<path d="M19528.4453125,7094.798828125 C14038.9921875,3215.72265625 11356.33203125,9740.4619140625 17695.21875,10795.9228515625 C13477.8994140625,15644.6328125 20632.439453125,19016.63671875 21736.44921875,12386.1806640625 C27225.921875,16265.267578125 29908.5703125,9740.4677734375 23569.69921875,8685.009765625 C27786.982421875,3836.336181640625 20632.447265625,464.3984375 19528.4453125,7094.798828125 Z" fill-rule="evenodd" transform="matrix(0.006526, 0.000000, 0.000000, 0.006526, 8.388131, -1281.747681)" style="fill:#000000;" />
	<path d="M20632.447265625,464.3984375 Q19528.4453125,7094.798828125 14038.9921875,3215.72265625 Q17958.64453125,8641.140625 11356.33203125,9740.4619140625 Q17695.21875,10795.9228515625 13477.8994140625,15644.6328125 Q19491.119140625,12162.09375 20632.439453125,19016.63671875 Q21736.44921875,12386.1806640625 27225.921875,16265.267578125 Q23306.224609375,10839.796875 29908.5703125,9740.4677734375 Q23569.69921875,8685.009765625 27786.982421875,3836.336181640625 Q21773.755859375,7318.87890625 20632.447265625,464.3984375 Z" fill-rule="evenodd" transform="matrix(0.004622, 0.000000, 0.000000, 0.004622, -255.522171, -1384.714844)" style="fill:#000000;" />
	<path d="M-50.818359375,-4163.6484375 C-135.7144012451172,-4165.63330078125 -134.65069580078125,-4065.680419921875 -126.0078125,-3956.739990234375 C-144.40829467773438,-3991.569091796875 -168.1448211669922,-4011.56884765625 -203.205078125,-4000.095458984375 C-267.60174560546875,-3979.022216796875 -235.057861328125,-3898.76953125 -197.328125,-3815.3515625 C-292.4129333496094,-3921.87451171875 -391.0086975097656,-4068.336669921875 -469.732421875,-3988.734375 C-526.6450805664062,-3931.1865234375 -463.2459716796875,-3864.317626953125 -383.9726257324219,-3796.220703125 C-414.73480224609375,-3803.62255859375 -439.5539245605469,-3797.894775390625 -453.1797180175781,-3767.43359375 C-480.08306884765625,-3707.28955078125 -407.7266540527344,-3673.579833984375 -327.775390625,-3641.89453125 C-468.29278564453125,-3650.214599609375 -637.0654296875,-3682.5908203125 -640.1737670898438,-3573.927490234375 C-642.7183837890625,-3484.976318359375 -531.5054321289062,-3491.97607421875 -416.458984375,-3502.208984375 C-455.10308837890625,-3484.181884765625 -478.2780456542969,-3459.917724609375 -465.7695007324219,-3421.265625 C-455.66943359375,-3390.0556640625 -433.1454772949219,-3381.003662109375 -403.916015625,-3383.90625 C-491.08709716796875,-3322.37548828125 -565.5963745117188,-3261.02978515625 -510.794921875,-3201.560302734375 C-449.1639404296875,-3134.679931640625 -366.3039245605469,-3207.892578125 -282.0703125,-3290.169677734375 C-307.871826171875,-3243.711181640625 -317.9318542480469,-3203.097900390625 -277.9921875,-3181.0546875 C-209.90879821777344,-3143.478759765625 -168.45806884765625,-3240.3349609375 -125.94921112060547,-3331.84765625 C-132.20310974121094,-3182.25244140625 -174.73619079589844,-2989.9619140625 -56.234375,-2987.19140625 C25.866792678833008,-2985.271728515625 27.131181716918945,-3079.21337890625 19.48828125,-3183.71875 C38.0733528137207,-3147.23828125 62.12532043457031,-3125.95068359375 98.06835174560547,-3137.712890625 C167.92922973632812,-3160.57470703125 124.20648193359375,-3252.7734375 82.89453125,-3343.501953125 C180.24090576171875,-3236.565185546875 281.91265869140625,-3080.434814453125 362.6796875,-3162.103515625 C415.1816711425781,-3215.191650390625 365.6287536621094,-3276.185302734375 295.51171875,-3338.771240234375 C318.5386657714844,-3337.1162109375 336.9692687988281,-3345.62109375 348.04296875,-3370.376953125 C379.008056640625,-3439.60107421875 279.4277648925781,-3474.057373046875 186.828125,-3510.372802734375 C332.3530578613281,-3506.930908203125 529.7555541992188,-3459.3232421875 533.119140625,-3576.910400390625 C535.4574584960938,-3658.652587890625 441.323486328125,-3659.02294921875 336.939453125,-3650.748046875 C358.9996643066406,-3666.969970703125 369.9808349609375,-3687.656982421875 360.6328125,-3716.54296875 C347.3844299316406,-3757.4814453125 312.40618896484375,-3759.671875 269.26953125,-3747.312255859375 C367.5739440917969,-3815.410400390625 464.3690185546875,-3883.486572265625 403.7421875,-3949.27734375 C346.1230163574219,-4011.804443359375 269.90521240234375,-3951.60693359375 191.419921875,-3876.435302734375 C205.03192138671875,-3910.562255859375 204.34014892578125,-3939.376220703125 172.85350036621094,-3956.75390625 C103.33183288574219,-3995.123779296875 61.556549072265625,-3893.443115234375 18.09375,-3800.279296875 C21.048892974853516,-3951.9140625 72.6173095703125,-4160.7626953125 -50.818359375,-4163.6484375 Z" fill-rule="evenodd" transform="matrix(0.066194, 0.000000, 0.000000, 0.066194, -286.287903, -984.203369)" style="fill:#000000;" />
	<path d="M-2347.171875,16509.77734375 L-2572.454833984375,18546.65625 L-4609.328125,18771.9375 L-2572.453125,18997.220703125 L-2347.171875,21034.0859375 L-2121.892578125,18997.220703125 L-85.021484375,18771.9375 L-2121.890625,18546.65625 L-2347.171875,16509.77734375 Z" fill-rule="evenodd" transform="matrix(0.020824, 0.000000, 0.000000, 0.020824, -100.041695, -1611.746948)" style="fill:#000000;" />
	<path d="M2907.870849609375,-4297.28271484375 L2845.747802734375,-3735.614990234375 L2404.662109375,-4088.84765625 L2757.89453125,-3647.761474609375 L2196.23046875,-3585.640625 L2757.89453125,-3523.51953125 L2404.6640625,-3082.4375 L2845.747802734375,-3435.669921875 L2907.870849609375,-2874.00390625 L2969.990234375,-3435.666015625 L3411.073974609375,-3082.4375 L3057.841796875,-3523.51953125 L3619.509765625,-3585.640625 L3057.84375,-3647.763427734375 L3411.076171875,-4088.84765625 L2969.9921875,-3735.614990234375 L2907.870849609375,-4297.28271484375 Z" fill-rule="evenodd" transform="matrix(0.066194, 0.000000, 0.000000, 0.066194, -195.489563, -982.379639)" style="fill:#000000;" />
</svg>